<?xml version="1.0" encoding="utf-8"?>
<!-- Generator: Adobe Illustrator 18.0.0, SVG Export Plug-In . SVG Version: 6.00 Build 0)  -->
<!DOCTYPE svg PUBLIC "-//W3C//DTD SVG 1.1//EN" "http://www.w3.org/Graphics/SVG/1.1/DTD/svg11.dtd">
<svg version="1.1" id="Calque_1" xmlns="http://www.w3.org/2000/svg" xmlns:xlink="http://www.w3.org/1999/xlink" x="0px" y="0px"
	 viewBox="0 0 128 128" enable-background="new 0 0 128 128" xml:space="preserve">
<path fill="#060606" d="M53.4,49.3l1.6-1.6L21.3,14c-2.6,2.2-5,4.7-7.3,7.3l28.5,28.5c2.1-0.6,4.3-0.9,6.4-0.9
	C50.4,48.9,51.9,49,53.4,49.3z M78.2,85.4l28.6,28.6c2.6-2.2,5-4.7,7.3-7.3L80.3,73l-1.6,1.6l0.3,2.2l0.1,2.2l-0.2,3.3L78.2,85.4z
	 M98.2,53.7l-24-24c-1.2,1.2-2.2,2.6-2.8,4c-0.6,1.5-0.9,3-0.9,4.5c0,1.5,0.3,3,0.9,4.5l-15,14.9c-1.3-0.7-2.6-1.1-3.9-1.5
	c-1.4-0.3-2.7-0.5-4.1-0.5c-2.2,0-4.3,0.4-6.4,1.2c-2.1,0.8-3.9,2-5.5,3.6l12.7,12.7l-8.2,9.4L35,90.1l-3.9,5.2
	c-0.9,1.3-1.4,2.2-1.4,2.6l0,0.2l0.1,0v0.1l0.1-0.1l0.1,0c0.4,0,1.3-0.4,2.6-1.3l5.2-3.9l7.4-6.2l9.5-8.2l12.7,12.7
	c1.6-1.6,2.8-3.5,3.6-5.5c0.8-2.1,1.2-4.2,1.2-6.4c0-1.4-0.2-2.8-0.5-4.1c-0.3-1.4-0.8-2.7-1.5-3.9l14.9-14.9c1.5,0.6,3,0.9,4.5,0.9
	c1.5,0,3.1-0.3,4.5-0.9C95.7,55.9,97,54.9,98.2,53.7z"/>
</svg>
