<?xml version="1.0" encoding="utf-8"?>
<!-- Generator: Adobe Illustrator 18.0.0, SVG Export Plug-In . SVG Version: 6.00 Build 0)  -->
<!DOCTYPE svg PUBLIC "-//W3C//DTD SVG 1.1//EN" "http://www.w3.org/Graphics/SVG/1.1/DTD/svg11.dtd">
<svg version="1.1" id="Calque_1" xmlns="http://www.w3.org/2000/svg" xmlns:xlink="http://www.w3.org/1999/xlink" x="0px" y="0px"
	 viewBox="0 0 128 128" enable-background="new 0 0 128 128" xml:space="preserve">
<path id="path3107" inkscape:connector-curvature="0" fill="#060606" d="M64,36.2c17.1,0,30.9,13.8,30.9,30.9S81.1,98,64,98
	S33.1,84.2,33.1,67.1S46.9,36.2,64,36.2z M64,43.9c-12.8,0-23.2,10.4-23.2,23.2c0,12.8,10.4,23.2,23.2,23.2s23.2-10.4,23.2-23.2
	C87.2,54.3,76.8,43.9,64,43.9z M63.2,50.1c1.7,0,3.1,1.4,3.1,3.1v11.6h11.6c1.7,0,3.1,1.4,3.1,3.1v1.5c0,1.7-1.4,3.1-3.1,3.1H64
	c-1.5-0.3-3.1-0.5-4-1.4c-0.9-0.9-1.2-2.4-1.4-4V53.2c0-1.7,1.4-3.1,3.1-3.1H63.2z M85.6,30C92.5,30,98,35.5,98,42.4
	c0,2.9-1,5.7-2.7,7.8c-4-7.4-10.6-13.2-18.6-16.3C78.9,31.5,82.1,30,85.6,30z M42.4,30c3.5,0,6.7,1.5,9,3.9c-8,3-14.6,8.9-18.6,16.3
	C31,48,30,45.3,30,42.4C30,35.5,35.5,30,42.4,30z"/>
</svg>
