<?xml version="1.0" encoding="utf-8"?>
<!-- Generator: Adobe Illustrator 18.0.0, SVG Export Plug-In . SVG Version: 6.00 Build 0)  -->
<!DOCTYPE svg PUBLIC "-//W3C//DTD SVG 1.1//EN" "http://www.w3.org/Graphics/SVG/1.1/DTD/svg11.dtd">
<svg version="1.1" id="Calque_1" xmlns="http://www.w3.org/2000/svg" xmlns:xlink="http://www.w3.org/1999/xlink" x="0px" y="0px"
	 viewBox="0 0 128 128" enable-background="new 0 0 128 128" xml:space="preserve">
<path fill="#060606" d="M64,54.7c5.1,0,9.3,4.2,9.3,9.3s-4.2,9.3-9.3,9.3s-9.3-4.2-9.3-9.3S58.9,54.7,64,54.7z M64,39.3
	c21.6,0,40.2,15.5,40.2,24.7S85.6,88.7,64,88.7S23.8,73.3,23.8,64S42.4,39.3,64,39.3z M64,47c-9.4,0-17,7.6-17,17s7.6,17,17,17
	c9.4,0,17-7.6,17-17S73.4,47,64,47z M37.7,84.9c2.3,1.3,4.8,2.4,7.5,3.3L19.4,114c-1.9-1.7-3.7-3.5-5.4-5.4L37.7,84.9z M90.3,43.1
	c-2.3-1.3-4.8-2.4-7.5-3.3L108.6,14c1.9,1.7,3.7,3.5,5.4,5.4L90.3,43.1z"/>
</svg>
