<?xml version="1.0" encoding="utf-8"?>
<!-- Generator: Adobe Illustrator 18.0.0, SVG Export Plug-In . SVG Version: 6.00 Build 0)  -->
<!DOCTYPE svg PUBLIC "-//W3C//DTD SVG 1.1//EN" "http://www.w3.org/Graphics/SVG/1.1/DTD/svg11.dtd">
<svg version="1.1" id="Calque_1" xmlns="http://www.w3.org/2000/svg" xmlns:xlink="http://www.w3.org/1999/xlink" x="0px" y="0px"
	 viewBox="0 0 128 128" enable-background="new 0 0 128 128" xml:space="preserve">
<g>
	<path id="path3107_1_" inkscape:connector-curvature="0" fill="#060606" d="M63.6,36.3c17,0,30.7,13.8,30.7,30.7
		S80.5,97.7,63.6,97.7S32.8,84,32.8,67S46.6,36.3,63.6,36.3z M63.6,43.9c-12.7,0-23,10.3-23,23c0,12.7,10.3,23,23,23s23-10.3,23-23
		C86.6,54.3,76.3,43.9,63.6,43.9z M62.8,50.1c1.7,0,3.1,1.4,3.1,3.1v11.5h11.5c1.7,0,3.1,1.4,3.1,3.1v1.5c0,1.7-1.4,3.1-3.1,3.1
		H63.6c-1.5-0.3-3.1-0.5-4-1.4c-0.9-0.9-1.2-2.4-1.4-4V53.2c0-1.7,1.4-3.1,3.1-3.1L62.8,50.1z M85.1,30.1c6.8,0,12.3,5.5,12.3,12.3
		c0,2.9-1,5.6-2.7,7.7C90.6,42.8,84.1,37,76.1,34C78.4,31.6,81.5,30.1,85.1,30.1z M42,30.1c3.5,0,6.7,1.5,8.9,3.8
		c-7.9,3-14.5,8.8-18.5,16.2c-1.7-2.1-2.7-4.8-2.7-7.7C29.8,35.6,35.3,30.1,42,30.1z"/>
	<g>
		<path fill="#010101" d="M30.7,30.1c-6.1,8.2-10.5,19-10.5,34c0,14.8,4.6,25.5,10.5,33.8h-5.8C19.7,91,14,80.3,14,64.1
			c0.1-16.4,5.7-27.1,10.9-34H30.7z"/>
	</g>
	<g>
		<path fill="#010101" d="M97.3,97.9c6.1-8.2,10.5-19,10.5-34c0-14.8-4.6-25.5-10.5-33.8h5.8C108.3,37,114,47.7,114,63.9
			c-0.1,16.4-5.7,27.1-10.9,34H97.3z"/>
	</g>
</g>
</svg>
