<?xml version="1.0" encoding="utf-8"?>
<!-- Generator: Adobe Illustrator 18.0.0, SVG Export Plug-In . SVG Version: 6.00 Build 0)  -->
<!DOCTYPE svg PUBLIC "-//W3C//DTD SVG 1.1//EN" "http://www.w3.org/Graphics/SVG/1.1/DTD/svg11.dtd">
<svg version="1.1" id="Calque_1" xmlns="http://www.w3.org/2000/svg" xmlns:xlink="http://www.w3.org/1999/xlink" x="0px" y="0px"
	 viewBox="0 0 128 128" enable-background="new 0 0 128 128" xml:space="preserve">
<path fill="#060606" d="M50.9,33.4c0,2.5,0.1,14.8,0.1,14.8H40.5V64l10.4,0l0.1,50h21.1V64l13.5,0c0,0,1-6.9,1.6-15.8
	c-1.8,0-15.1,0-15.1,0s-0.3-10.9-0.3-12.6c0-1.7,2.3-4,4.5-4c2.2,0,6.9,0,11.3,0c0-2.3,0-10.2,0-17.5c-5.8,0-12.4,0-15.3,0
	C50.4,14,50.9,30.9,50.9,33.4z"/>
</svg>
