<?xml version="1.0" encoding="utf-8"?>
<!-- Generator: Adobe Illustrator 18.0.0, SVG Export Plug-In . SVG Version: 6.00 Build 0)  -->
<!DOCTYPE svg PUBLIC "-//W3C//DTD SVG 1.1//EN" "http://www.w3.org/Graphics/SVG/1.1/DTD/svg11.dtd">
<svg version="1.1" id="Calque_1" xmlns="http://www.w3.org/2000/svg" xmlns:xlink="http://www.w3.org/1999/xlink" x="0px" y="0px"
	 viewBox="0 0 128 128" enable-background="new 0 0 128 128" xml:space="preserve">
<path fill="#060606" d="M14,34h100v57.1H14V34z M102.6,28.3H59.7c2.9-8.6,7.1-11.4,7.1-11.4l32.1,0c1.6,0,3.6,2,3.6,3.6V28.3z
	 M106.9,96.9c3.9,0,7.1,3.2,7.1,7.1s-3.2,7.1-7.1,7.1s-7.1-3.2-7.1-7.1S102.9,96.9,106.9,96.9z M86.9,96.9c3.9,0,7.1,3.2,7.1,7.1
	s-3.2,7.1-7.1,7.1s-7.1-3.2-7.1-7.1S82.9,96.9,86.9,96.9z M66.9,96.9c3.9,0,7.1,3.2,7.1,7.1s-3.2,7.1-7.1,7.1s-7.1-3.2-7.1-7.1
	S62.9,96.9,66.9,96.9z"/>
</svg>
