<?xml version="1.0" encoding="utf-8"?>
<!-- Generator: Adobe Illustrator 19.0.0, SVG Export Plug-In . SVG Version: 6.00 Build 0)  -->
<svg version="1.1" id="Calque_1" xmlns="http://www.w3.org/2000/svg" xmlns:xlink="http://www.w3.org/1999/xlink" x="0px" y="0px"
	 viewBox="0 0 128 128" enable-background="new 0 0 128 128" xml:space="preserve">
<path id="XMLID_53_" fill-rule="evenodd" clip-rule="evenodd" fill="#1F1D1D" d="M64,16c-27.6,0-50,22.4-50,50
	c0,22.1,14.3,40.8,34.2,47.4c2.5,0.5,3.4-1.1,3.4-2.4c0-1.2,0-4.3-0.1-8.5c-13.9,3-16.8-6.7-16.8-6.7c-2.3-5.8-5.6-7.3-5.6-7.3
	c-4.5-3.1,0.3-3,0.3-3c5,0.4,7.7,5.2,7.7,5.2c4.5,7.6,11.7,5.4,14.6,4.2c0.5-3.2,1.7-5.4,3.2-6.7c-11.1-1.3-22.8-5.6-22.8-24.7
	c0-5.5,1.9-9.9,5.1-13.4c-0.5-1.3-2.2-6.3,0.5-13.2c0,0,4.2-1.3,13.7,5.1c4-1.1,8.3-1.7,12.5-1.7c4.2,0,8.5,0.6,12.5,1.7
	c9.5-6.5,13.7-5.1,13.7-5.1c2.7,6.9,1,12,0.5,13.2c3.2,3.5,5.1,8,5.1,13.4c0,19.2-11.7,23.4-22.8,24.7c1.8,1.5,3.4,4.6,3.4,9.3
	c0,6.7-0.1,12.1-0.1,13.7c0,1.3,0.9,2.9,3.4,2.4C99.7,106.8,114,88.1,114,66C114,38.4,91.6,16,64,16z"/>
</svg>
