<?xml version="1.0" encoding="utf-8"?>
<!-- Generator: Adobe Illustrator 18.0.0, SVG Export Plug-In . SVG Version: 6.00 Build 0)  -->
<!DOCTYPE svg PUBLIC "-//W3C//DTD SVG 1.1//EN" "http://www.w3.org/Graphics/SVG/1.1/DTD/svg11.dtd">
<svg version="1.1" id="Calque_1" xmlns="http://www.w3.org/2000/svg" xmlns:xlink="http://www.w3.org/1999/xlink" x="0px" y="0px"
	 viewBox="0 0 128 128" enable-background="new 0 0 128 128" xml:space="preserve">
<path id="path3400" inkscape:connector-curvature="0" fill="#060606" d="M62,94c5.5,0,10,4.5,10,10c0,5.5-4.5,10-10,10
	c-5.5,0-10-4.5-10-10C52,98.5,56.5,94,62,94z M64,14c17.7,0,32,11.4,32,28c0,6-4,16-12,20c-8,4-12,9.4-12,16v8H52v-6
	c0-13.6,12-22,16-26c8-8,8-9.1,8-12c0-6.6-5.4-12-12-12c-6.6,0-12,5.4-12,12v6H32v-4C32,27.4,46.3,14,64,14z"/>
</svg>
