<?xml version="1.0" encoding="utf-8"?>
<!-- Generator: Adobe Illustrator 18.0.0, SVG Export Plug-In . SVG Version: 6.00 Build 0)  -->
<!DOCTYPE svg PUBLIC "-//W3C//DTD SVG 1.1//EN" "http://www.w3.org/Graphics/SVG/1.1/DTD/svg11.dtd">
<svg version="1.1" id="Calque_1" xmlns="http://www.w3.org/2000/svg" xmlns:xlink="http://www.w3.org/1999/xlink" x="0px" y="0px"
	 viewBox="0 0 128 128" enable-background="new 0 0 128 128" xml:space="preserve">
<g>
	<path id="path1_3_" fill="#010101" d="M46.9,60.7c2.4,0,4.9,0.5,7.2,1.4L48,68.1c-3.9-0.4-7.8,0.8-10.8,3.8l-12,12
		c-5.2,5.2-5.2,13.7,0,18.9c5.2,5.2,13.7,5.2,18.9,0l12-12c2.9-2.9,4.2-6.9,3.8-10.8l6.1-6.1c2.8,7.4,1.3,16.1-4.7,22l-12,12
		c-8.1,8.1-21.2,8.1-29.2,0c-8.1-8.1-8.1-21.2,0-29.3l12-12C36.1,62.6,41.5,60.6,46.9,60.7z M76,46.6l5.5,5.5L51.8,81.7l-5.5-5.5
		L76,46.6z M93.3,14c5.3,0,10.6,2,14.6,6.1c8.1,8.1,8.1,21.2,0,29.2l-12,12c-6,6-14.6,7.5-22,4.7l6.1-6.1c3.9,0.4,7.8-0.8,10.8-3.8
		l12-12c5.2-5.2,5.2-13.7,0-18.9c-5.2-5.2-13.7-5.2-18.9,0l-12,12c-2.9,2.9-4.2,6.9-3.8,10.8l-6.1,6.1c-2.8-7.4-1.3-16.1,4.7-22
		l12-12C82.7,16,88,14,93.3,14z"/>
</g>
</svg>
