<?xml version="1.0" encoding="utf-8"?>
<!-- Generator: Adobe Illustrator 18.0.0, SVG Export Plug-In . SVG Version: 6.00 Build 0)  -->
<!DOCTYPE svg PUBLIC "-//W3C//DTD SVG 1.1//EN" "http://www.w3.org/Graphics/SVG/1.1/DTD/svg11.dtd">
<svg version="1.1" id="Calque_1" xmlns="http://www.w3.org/2000/svg" xmlns:xlink="http://www.w3.org/1999/xlink" x="0px" y="0px"
	 viewBox="0 0 128 128" enable-background="new 0 0 128 128" xml:space="preserve">
<path fill="#060606" d="M64,26.7c2.2,0,4.4,0.2,6.5,0.6L75.9,14l14.3,5.8l-5.4,13.3c4,2.7,7.4,6.1,10.1,10.1l13.3-5.4l5.8,14.3
	l-13.3,5.4c0.4,2.1,0.6,4.3,0.6,6.5c0,2.2-0.2,4.4-0.6,6.5l13.3,5.4l-5.8,14.3l-13.3-5.4c-2.4,3.6-5.5,6.8-9,9.4l5.8,13.1l-14.1,6.3
	l-5.8-13.1c-2.5,0.5-5.1,0.8-7.8,0.8c-2.2,0-4.4-0.2-6.5-0.6L52.1,114l-14.3-5.8l5.4-13.3c-4-2.7-7.4-6.1-10.1-10.1l-13.3,5.4
	L14,75.9l13.3-5.4c-0.4-2.1-0.6-4.3-0.6-6.5c0-2.2,0.2-4.4,0.6-6.5L14,52.1l5.8-14.3l13.3,5.4c2.4-3.6,5.5-6.8,9-9.4l-5.8-13.1
	l14.1-6.3l5.8,13.1C58.7,27,61.3,26.7,64,26.7z M64,38.3c-14.2,0-25.7,11.5-25.7,25.7c0,14.2,11.5,25.7,25.7,25.7
	c14.2,0,25.7-11.5,25.7-25.7C89.7,49.8,78.2,38.3,64,38.3z"/>
</svg>
