<?xml version="1.0" encoding="utf-8"?>
<!-- Generator: Adobe Illustrator 18.0.0, SVG Export Plug-In . SVG Version: 6.00 Build 0)  -->
<!DOCTYPE svg PUBLIC "-//W3C//DTD SVG 1.1//EN" "http://www.w3.org/Graphics/SVG/1.1/DTD/svg11.dtd">
<svg version="1.1" id="Calque_1" xmlns="http://www.w3.org/2000/svg" xmlns:xlink="http://www.w3.org/1999/xlink" x="0px" y="0px"
	 viewBox="0 0 128 128" enable-background="new 0 0 128 128" xml:space="preserve">
<path fill="#060606" d="M94.4,17.6c10.8,0,19.6,19.2,19.6,42.9c0,23.7-8.8,42.9-19.6,42.9c-3.8,0-7.4-2.4-10.4-6.5
	c-6.9-7.4-14-18.5-23.5-18.5c-7.1,0-0.9,7.1-0.9,14.3c0,7.1,0.9,17.9-9.8,17.9S28.3,99.7,31.9,96.1c3.6-3.6,3.6-17.9,3.6-17.9
	C24.7,78.3,14,71.1,14,60.4S24.7,39,53.3,39C81.9,39,76.5,17.6,94.4,17.6z M74.7,60.4c0-10.5,1.7-20.2,4.6-27.6
	c-5.4,6.2-1.1,9.8-25.7,13.7c-23.1,0-31.7,6-31.7,14.6c0,8.7,9.5,10.9,18.2,10.9c0,0,2.7,20.5-0.2,23.4c-2.9,2.9,0.4,7.1,9.1,7.1
	s2.6-10.4,2.6-16.2s-1.8-15,7.9-15.1c18.9,7.2,12.5,6,18.3,11.9C75.8,76.4,74.7,68.7,74.7,60.4z M96.1,24.7
	c-4.8,0-8.9,10.5-10.2,25.1c9.8,0.6,17.4,5.1,17.4,10.6c0,5.5-7.6,10-17.4,10.6c1.4,14.5,5.4,25.1,10.2,25.1
	c5.9,0,10.7-16,10.7-35.7S102.1,24.7,96.1,24.7z M92.6,24.7c-7.9,0-14.3,16-14.3,35.7s6.4,35.7,14.3,35.7l1-0.1
	C87,94.8,81.9,79.4,81.9,60.4S87,26,93.5,24.8L92.6,24.7z"/>
</svg>
