<?xml version="1.0" encoding="utf-8"?>
<!-- Generator: Adobe Illustrator 18.0.0, SVG Export Plug-In . SVG Version: 6.00 Build 0)  -->
<!DOCTYPE svg PUBLIC "-//W3C//DTD SVG 1.1//EN" "http://www.w3.org/Graphics/SVG/1.1/DTD/svg11.dtd">
<svg version="1.1" id="Calque_1" xmlns="http://www.w3.org/2000/svg" xmlns:xlink="http://www.w3.org/1999/xlink" x="0px" y="0px"
	 viewBox="0 0 128 128" enable-background="new 0 0 128 128" xml:space="preserve">
<g>
	<path id="path3257_1_" inkscape:connector-curvature="0" fill="#060606" d="M14,21.1h100v85.7H14L14,21.1z M21.1,28.3v71.4h85.7
		V28.3L21.1,28.3z"/>
	<rect x="26.7" y="37" fill="#060606" width="15" height="15"/>
	<rect x="47" y="37" fill="#060606" width="15" height="15"/>
	<rect x="66.6" y="37" fill="#060606" width="15" height="15"/>
	<rect x="86.3" y="37" fill="#060606" width="15" height="15"/>
	<rect x="26.7" y="56.5" fill="#060606" width="15" height="15"/>
	<rect x="47" y="56.5" fill="#060606" width="15" height="15"/>
	<rect x="66.6" y="56.5" fill="#060606" width="15" height="15"/>
	<rect x="86.3" y="56.5" fill="#060606" width="15" height="15"/>
	<rect x="26.7" y="75.3" fill="#060606" width="15" height="15"/>
	<rect x="47" y="75.3" fill="#060606" width="15" height="15"/>
	<rect x="66.6" y="75.3" fill="#060606" width="15" height="15"/>
</g>
</svg>
