<?xml version="1.0" encoding="utf-8"?>
<!-- Generator: Adobe Illustrator 18.0.0, SVG Export Plug-In . SVG Version: 6.00 Build 0)  -->
<!DOCTYPE svg PUBLIC "-//W3C//DTD SVG 1.1//EN" "http://www.w3.org/Graphics/SVG/1.1/DTD/svg11.dtd">
<svg version="1.1" id="Calque_1" xmlns="http://www.w3.org/2000/svg" xmlns:xlink="http://www.w3.org/1999/xlink" x="0px" y="0px"
	 viewBox="0 0 128 128" enable-background="new 0 0 128 128" xml:space="preserve">
<path fill="#010101" d="M76.3,14C97.1,14,114,30.9,114,51.7S97.1,89.4,76.3,89.4c-7.1,0-13.8-2-19.6-5.3l-27.2,27.2
	c-3.5,3.5-9.3,3.5-12.8,0c-3.5-3.5-3.5-9.3,0-12.8L44,71.2c-3.4-5.7-5.4-12.4-5.4-19.5C38.6,30.9,55.5,14,76.3,14z M76.3,26.1
	c-14.2,0-25.6,11.5-25.6,25.6s11.5,25.6,25.6,25.6s25.6-11.5,25.6-25.6S90.5,26.1,76.3,26.1z"/>
</svg>
