<?xml version="1.0" encoding="utf-8"?>
<!-- Generator: Adobe Illustrator 18.0.0, SVG Export Plug-In . SVG Version: 6.00 Build 0)  -->
<!DOCTYPE svg PUBLIC "-//W3C//DTD SVG 1.1//EN" "http://www.w3.org/Graphics/SVG/1.1/DTD/svg11.dtd">
<svg version="1.1" id="Calque_1" xmlns="http://www.w3.org/2000/svg" xmlns:xlink="http://www.w3.org/1999/xlink" x="0px" y="0px"
	 viewBox="0 0 128 128" enable-background="new 0 0 128 128" xml:space="preserve">
<g>
	<path d="M44.8,100.8c23-23,46.1-46.1,69.2-69.1c-1.4-1.4-2.9-2.9-4.5-4.5C88,48.7,66.5,70.3,44.8,92.1
		c-8.9-8.9-17.6-17.7-26.3-26.4c-1.5,1.5-3,3-4.5,4.5C24.3,80.4,34.6,90.6,44.8,100.8z"/>
	<path d="M44.8,100.8C34.6,90.6,24.3,80.4,14,70.2c1.5-1.5,2.9-3,4.5-4.5c8.7,8.7,17.4,17.5,26.3,26.4C66.5,70.3,88,48.7,109.5,27.2
		c1.6,1.6,3.1,3.1,4.5,4.5C91,54.7,67.8,77.8,44.8,100.8z"/>
</g>
<path fill="#060606" d="M96.4,70.8h4.7v12.6h12.6v4.7h-12.6v12.6h-4.7V88.2H83.8v-4.7h12.6V70.8z"/>
</svg>
