<?xml version="1.0" encoding="utf-8"?>
<!-- Generator: Adobe Illustrator 18.0.0, SVG Export Plug-In . SVG Version: 6.00 Build 0)  -->
<!DOCTYPE svg PUBLIC "-//W3C//DTD SVG 1.1//EN" "http://www.w3.org/Graphics/SVG/1.1/DTD/svg11.dtd">
<svg version="1.1" id="Calque_1" xmlns="http://www.w3.org/2000/svg" xmlns:xlink="http://www.w3.org/1999/xlink" x="0px" y="0px"
	 viewBox="0 0 128 128" enable-background="new 0 0 128 128" xml:space="preserve">
<path fill="#060606" d="M28.4,25.1h71.1c2.5,0,3.3,10,3.3,10H25.1C25.1,35.1,26,25.1,28.4,25.1z M57.3,14h13.3
	c1.2,0,4.4,3.2,4.4,4.4c0,1.2-3.2,4.4-4.4,4.4H57.3c-1.2,0-4.4-3.2-4.4-4.4C52.9,17.2,56.1,14,57.3,14z M35.1,38.4h57.8
	c2.5,0,4.4,2,4.4,4.4l-4.4,66.7c0,2.5-2,4.4-4.4,4.4H39.6c-2.5,0-4.4-2-4.4-4.4l-4.4-66.7C30.7,40.4,32.7,38.4,35.1,38.4z
	 M41.8,47.3l1.1,57.8h7.8l-1.1-57.8H41.8z M59.6,47.3v57.8h8.9V47.3H59.6z M78.4,47.3l-1.1,57.8h7.8l1.1-57.8H78.4z"/>
</svg>
