<?xml version="1.0" encoding="utf-8"?>
<!-- Generator: Adobe Illustrator 18.0.0, SVG Export Plug-In . SVG Version: 6.00 Build 0)  -->
<!DOCTYPE svg PUBLIC "-//W3C//DTD SVG 1.1//EN" "http://www.w3.org/Graphics/SVG/1.1/DTD/svg11.dtd">
<svg version="1.1" id="Calque_1" xmlns="http://www.w3.org/2000/svg" xmlns:xlink="http://www.w3.org/1999/xlink" x="0px" y="0px"
	 viewBox="0 0 128 128" enable-background="new 0 0 128 128" xml:space="preserve">
<path fill="#060606" d="M64,14c9.2,0,16.7,7.5,16.7,16.7v29.2c0,9.2-7.5,16.7-16.7,16.7S47.3,69,47.3,59.8V30.7
	C47.3,21.5,54.8,14,64,14z M43.2,101.5h12.5v-5.1C39,92.6,26.5,77.7,26.5,59.8V47.3H39v12.5c0,13.8,11.2,25,25,25s25-11.2,25-25
	V47.3h12.5v12.5c0,17.8-12.5,32.8-29.2,36.6v5.1h12.5V114H43.2V101.5z"/>
</svg>
