<?xml version="1.0" encoding="utf-8"?>
<!-- Generator: Adobe Illustrator 18.0.0, SVG Export Plug-In . SVG Version: 6.00 Build 0)  -->
<!DOCTYPE svg PUBLIC "-//W3C//DTD SVG 1.1//EN" "http://www.w3.org/Graphics/SVG/1.1/DTD/svg11.dtd">
<svg version="1.1" id="Calque_1" xmlns="http://www.w3.org/2000/svg" xmlns:xlink="http://www.w3.org/1999/xlink" x="0px" y="0px"
	 viewBox="0 0 128 128" enable-background="new 0 0 128 128" xml:space="preserve">
<path fill="#060606" d="M22.8,26.5h82.5c4.4,0,8.8,4.4,8.8,8.8v57.5c0,4.4-4.4,8.8-8.8,8.8H22.8c-4.4,0-8.8-4.4-8.8-8.8V35.3
	C14,30.9,18.4,26.5,22.8,26.5z M24,86.5c0,3.3,1.7,5,5,5h70c3.3,0,5-1.7,5-5v-45L70.6,75.6c-3.1,3.1-8.1,3.1-11.2,0L24,41.5V86.5z
	 M31.5,36.5l29.3,29.3c2.3,2.3,6.1,2.3,8.4,0L99,36.5H31.5z"/>
</svg>
