<?xml version="1.0" encoding="utf-8"?>
<!-- Generator: Adobe Illustrator 18.0.0, SVG Export Plug-In . SVG Version: 6.00 Build 0)  -->
<!DOCTYPE svg PUBLIC "-//W3C//DTD SVG 1.1//EN" "http://www.w3.org/Graphics/SVG/1.1/DTD/svg11.dtd">
<svg version="1.1" id="Calque_1" xmlns="http://www.w3.org/2000/svg" xmlns:xlink="http://www.w3.org/1999/xlink" x="0px" y="0px"
	 viewBox="0 0 128 128" enable-background="new 0 0 128 128" xml:space="preserve">
<path fill="#060606" d="M91.4,114l-69.8-13.7V47.9l69.8-14.3l15,5v69.8L91.4,114z M36.6,59.8V71h15V57.5L36.6,59.8z M51.5,88.8V73.5
	h-15v13.1L51.5,88.8z M74,54.2l-19.9,3V71H74V54.2z M74,92.2V73.5H54v15.7L74,92.2z M71.5,21.5c4.1-1.2,10,0.6,10,4.8l0,6.9l-5,1.2
	v-4.2c0-2.8-2.2-4.4-5-3.6L69,27.3l0,8.5L64,37l0-7.7c-2.8,0.8-5,1.1-5,3.9v4.9l-5,1.2V32c0-4.1,5.8-6.6,10-7.7l0-1.2
	c0-2.8-2.2-4.5-5-3.9L51.5,21c-2.8,0.6-5,3.3-5,6.1l0,13.6l-5,1.2l0-16.1c0-4.1,3.3-8.2,7.5-9.1l12.5-2.5c4.1-0.9,7.5,1.7,7.5,5.9
	l0,2.3L71.5,21.5z"/>
</svg>
