<?xml version="1.0" encoding="utf-8"?>
<!-- Generator: Adobe Illustrator 18.0.0, SVG Export Plug-In . SVG Version: 6.00 Build 0)  -->
<!DOCTYPE svg PUBLIC "-//W3C//DTD SVG 1.1//EN" "http://www.w3.org/Graphics/SVG/1.1/DTD/svg11.dtd">
<svg version="1.1" id="Calque_1" xmlns="http://www.w3.org/2000/svg" xmlns:xlink="http://www.w3.org/1999/xlink" x="0px" y="0px"
	 viewBox="0 0 128 128" enable-background="new 0 0 128 128" xml:space="preserve">
<g id="Layer_1">
	<path fill="#010101" d="M102.2,33.5c-0.1-0.2-0.2-0.3-0.3-0.5c-8.5-11.5-22-19-37.3-19c-24.7,0-44.9,19.5-46.4,44.3
		C21.9,51.3,39.1,33,61.8,33s20.7,21.5,20.7,21.5H46.8c0.7-8.5,6.8-15.7,6.8-15.7C28.3,49,29.5,74.9,29.5,74.9
		c0.6,12.1,4.6,20.4,9.8,26.2C51.8,114.8,71.6,114,71.6,114c17.8,0,29.8-7.2,29.8-7.2V90.2v-4.4c0,0-10.3,7.3-27.3,7.5
		c-28.3-0.6-26.9-21.3-26.9-21.3h62.6c0,0,0,0,0,0V60.9C109.9,60.9,110.4,45.2,102.2,33.5z"/>
</g>
</svg>
