<?xml version="1.0" encoding="utf-8"?>
<!-- Generator: Adobe Illustrator 18.0.0, SVG Export Plug-In . SVG Version: 6.00 Build 0)  -->
<!DOCTYPE svg PUBLIC "-//W3C//DTD SVG 1.1//EN" "http://www.w3.org/Graphics/SVG/1.1/DTD/svg11.dtd">
<svg version="1.1" id="Calque_1" xmlns="http://www.w3.org/2000/svg" xmlns:xlink="http://www.w3.org/1999/xlink" x="0px" y="0px"
	 viewBox="0 0 128 128" enable-background="new 0 0 128 128" xml:space="preserve">
<path fill="#010101" d="M85.5,89.2v-31c0-11.9-9.5-21.5-21.5-21.5s-21.5,9.5-21.5,21.5v31H85.5 M95.1,84.4l9.5,9.5v4.8H23.5V94
	l9.5-9.5V58.2c0-14.6,10.2-26.9,23.8-30.1v-3.2c0-4,3.2-7.2,7.2-7.2c4,0,7.2,3.2,7.2,7.2v3.2c13.6,3.2,23.8,15.5,23.8,30.1V84.4
	 M64.1,113.1c-5.3,0-9.5-4.3-9.5-9.5h19.1C73.6,108.8,69.3,113.1,64.1,113.1 M104.5,55.8c-0.7-12.6-7.2-23.8-16.9-30.6l6.8-6.8
	c11.4,8.7,18.9,22.1,19.6,37.4H104.5 M40.6,25.2c-9.7,6.8-16.2,18-17.1,30.6H14c0.9-15.3,8.4-28.8,19.8-37.4L40.6,25.2z"/>
</svg>
