<?xml version="1.0" encoding="utf-8"?>
<!-- Generator: Adobe Illustrator 18.0.0, SVG Export Plug-In . SVG Version: 6.00 Build 0)  -->
<!DOCTYPE svg PUBLIC "-//W3C//DTD SVG 1.1//EN" "http://www.w3.org/Graphics/SVG/1.1/DTD/svg11.dtd">
<svg version="1.1" id="Calque_1" xmlns="http://www.w3.org/2000/svg" xmlns:xlink="http://www.w3.org/1999/xlink" x="0px" y="0px"
	 viewBox="0 0 128 128" enable-background="new 0 0 128 128" xml:space="preserve">
<path id="path3410" fill="#060606" d="M98.7,51.1l-8.1,20h16.1L98.7,51.1z M64.1,34.7c-1.7,0-3.1,1.4-3.1,3.1c0,1.7,1.4,3.1,3.1,3.1
	c1.7,0,3.1-1.4,3.1-3.1C67.2,36.1,65.8,34.7,64.1,34.7z M29.6,32.4l-9.2,22.7h18.3L29.6,32.4z M66.4,25.5l3.2,1.2l-2.1,5.7l0.3,0.2
	c1.7,1.2,2.9,3.1,2.9,5.4l0,0.2l28.6,7.6c0.8,0.2,1.4,1,1.2,1.9l0,0l9.5,23.5h2.7c0.8,0,1.5,0.7,1.5,1.5c0,0.8-0.6,1.4-1.3,1.5
	l-0.1,0l0,0.6c-0.4,6.7-6.5,12-14,12c-7.5,0-13.6-5.3-14-12l0-0.6h0c-0.8,0-1.5-0.7-1.5-1.5c0-0.8,0.7-1.5,1.5-1.5h3l9.2-22.6
	l-27.1-7.2l-0.1,0.2c-0.4,0.5-0.8,1-1.3,1.4L68.1,43v51.7h40.5v7.8H19.9v-7.8h40.4V43.1L60,42.9c-1.4-1.2-2.4-3-2.4-5l0-0.1L32.2,31
	l9.7,24.2h1.6c0.8,0,1.5,0.7,1.5,1.5c0,0.8-0.6,1.4-1.3,1.5l-0.1,0l0,0.6c-0.4,6.7-6.5,12-14,12s-13.6-5.3-14-12l0-0.6l-0.1,0
	C14.6,58,14,57.4,14,56.6c0-0.8,0.7-1.5,1.5-1.5h1.9L28,28.8l0,0c0-0.2,0-0.4,0.1-0.7c0.2-0.7,0.8-1.2,1.5-1.3c0.2,0,0.3,0,0.5,0.1
	l28.5,7.6l0.2-0.3c1.2-1.7,3.1-2.9,5.4-2.9l0.1,0L66.4,25.5z"/>
</svg>
