<?xml version="1.0" encoding="utf-8"?>
<!-- Generator: Adobe Illustrator 18.0.0, SVG Export Plug-In . SVG Version: 6.00 Build 0)  -->
<!DOCTYPE svg PUBLIC "-//W3C//DTD SVG 1.1//EN" "http://www.w3.org/Graphics/SVG/1.1/DTD/svg11.dtd">
<svg version="1.1" id="Calque_1" xmlns="http://www.w3.org/2000/svg" xmlns:xlink="http://www.w3.org/1999/xlink" x="0px" y="0px"
	 viewBox="0 0 128 128" enable-background="new 0 0 128 128" xml:space="preserve">
<path id="path3320" fill="#060606" d="M23.3,80.6c5.1,0,9.3,4.2,9.3,9.3c0,5.1-4.2,9.3-9.3,9.3c-5.1,0-9.3-4.2-9.3-9.3
	C14,84.8,18.2,80.6,23.3,80.6z M99.3,80.2c8.1,0,14.7,6.6,14.7,14.7s-6.6,14.7-14.7,14.7c-8.1,0-14.7-6.6-14.7-14.7
	S91.1,80.2,99.3,80.2z M40.7,78.5l1.3,2.3L34.7,85l-1.3-2.3L40.7,78.5z M70.8,77.8l13,7.4l-2.4,4.3l-13-7.4L70.8,77.8z M55.5,59.9
	c7,0,12.8,5.7,12.8,12.8c0,7-5.7,12.8-12.8,12.8c-7.1,0-12.8-5.7-12.8-12.8C42.7,65.7,48.5,59.9,55.5,59.9z M53.3,46.8h4.5v11.1
	h-4.5V46.8z M55.5,18.4c7,0,12.8,5.7,12.8,12.8c0,7-5.7,12.8-12.8,12.8c-7.1,0-12.8-5.7-12.8-12.8C42.7,24.1,48.5,18.4,55.5,18.4z"
	/>
</svg>
