<?xml version="1.0" encoding="utf-8"?>
<!-- Generator: Adobe Illustrator 18.0.0, SVG Export Plug-In . SVG Version: 6.00 Build 0)  -->
<!DOCTYPE svg PUBLIC "-//W3C//DTD SVG 1.1//EN" "http://www.w3.org/Graphics/SVG/1.1/DTD/svg11.dtd">
<svg version="1.1" id="Calque_1" xmlns="http://www.w3.org/2000/svg" xmlns:xlink="http://www.w3.org/1999/xlink" x="0px" y="0px"
	 viewBox="0 0 128 128" enable-background="new 0 0 128 128" xml:space="preserve">
<path id="path3197" fill="#060606" d="M35.7,76c8,5.7,17.7,9.1,28.3,9.1s20.3-3.4,28.3-9.1C86,84.9,75.7,90.8,64,90.8
	S42,84.9,35.7,76z M79.6,48.4c4.3,0,7.8,3.5,7.8,7.8c0,4.3-3.5,7.8-7.8,7.8c-4.3,0-7.8-3.5-7.8-7.8C71.8,51.9,75.3,48.4,79.6,48.4z
	 M48.4,48.4c4.3,0,7.8,3.5,7.8,7.8c0,4.3-3.5,7.8-7.8,7.8c-4.3,0-7.8-3.5-7.8-7.8C40.6,51.9,44.1,48.4,48.4,48.4z M64,21.8
	c-23.3,0-42.2,18.9-42.2,42.2c0,23.3,18.9,42.2,42.2,42.2c23.3,0,42.2-18.9,42.2-42.2C106.2,40.7,87.3,21.8,64,21.8z M64,14
	c27.6,0,50,22.4,50,50c0,27.6-22.4,50-50,50c-27.6,0-50-22.4-50-50C14,36.4,36.4,14,64,14z"/>
</svg>
