<?xml version="1.0" encoding="utf-8"?>
<!-- Generator: Adobe Illustrator 18.0.0, SVG Export Plug-In . SVG Version: 6.00 Build 0)  -->
<!DOCTYPE svg PUBLIC "-//W3C//DTD SVG 1.1//EN" "http://www.w3.org/Graphics/SVG/1.1/DTD/svg11.dtd">
<svg version="1.1" id="Calque_1" xmlns="http://www.w3.org/2000/svg" xmlns:xlink="http://www.w3.org/1999/xlink" x="0px" y="0px"
	 viewBox="0 0 128 128" enable-background="new 0 0 128 128" xml:space="preserve">
<path id="path3087" inkscape:connector-curvature="0" fill="#060606" d="M64,14c-10.2,0-18.5,8.3-18.5,18.5C45.5,42.7,53.8,51,64,51
	c10.2,0,18.5-8.3,18.5-18.5C82.5,22.3,74.2,14,64,14z M45.5,77L44.1,109c6.6,3.2,14,5,21.8,5c6.4,0,12.5-1.2,18.2-3.4L82.5,77
	c2.5,1.2,7.4,11.1,7.4,11.1s2.5,3.7,3.7,18.5l11.1-3.7L101,84.4c0,0-7.4-25.9-22.2-25.9H49.2C34.4,58.4,27,84.4,27,84.4l-3.7,18.5
	l11.1,3.7c1.2-14.8,3.7-18.5,3.7-18.5S43,78.2,45.5,77z"/>
</svg>
