<?xml version="1.0" encoding="utf-8"?>
<!-- Generator: Adobe Illustrator 18.0.0, SVG Export Plug-In . SVG Version: 6.00 Build 0)  -->
<!DOCTYPE svg PUBLIC "-//W3C//DTD SVG 1.1//EN" "http://www.w3.org/Graphics/SVG/1.1/DTD/svg11.dtd">
<svg version="1.1" id="Calque_1" xmlns="http://www.w3.org/2000/svg" xmlns:xlink="http://www.w3.org/1999/xlink" x="0px" y="0px"
	 viewBox="0 0 128 128" enable-background="new 0 0 128 128" xml:space="preserve">
<path id="path3330" inkscape:connector-curvature="0" fill="#060606" d="M64,42.1c9.1,0,13,5.2,11.7,16.1c1.2,0.7,2,1.9,2,3.4
	c0,1.8-1.2,3.3-2.8,3.7c-0.7,2.4-1.7,4.6-3.1,6.3v8.2c4.3,0.9,7.8,1.3,13,3.9c5.2,2.6,6.9,5,10.4,8.5v12.4H32.8l0-12.4
	c3.5-3.5,5.2-5.9,10.4-8.5c5.2-2.6,8.7-3,13-3.9v-8.2c-1.3-1.7-2.4-3.8-3.1-6.3c-1.6-0.5-2.8-2-2.8-3.7c0-1.5,0.8-2.7,2-3.4
	C51,47.3,54.9,42.1,64,42.1z M40,81.4c-4.3,2.2-3.9,1.8-6.4,4.4l-19.6,0V73.5c3.5-3.5,5.2-5.9,10.4-8.5c5.2-2.6,8.7-3,13-3.9v-8.2
	c-1.3-1.7-2.4-3.8-3.1-6.3c-1.6-0.5-2.8-2-2.8-3.7c0-1.5,0.8-2.7,2-3.4c-1.3-10.9,2.6-16.1,11.7-16.1c8.5,0,12.5,6.9,11.9,16.5
	c-5.6,2.2-8.8,5.4-8.8,14.5c-1.2,0.7-2,1.9-2,3.4c0,1.8,0.4,4.1,2,4.5c0.7,2.4,1.7,4.6,3.1,6.3v9C47.2,78.4,45.2,78.8,40,81.4z
	 M88,81.4c-5.2-2.6-7.1-3-11.5-3.9v-9c1.3-1.7,2.4-3.8,3.1-6.3c1.6-0.5,2-2.8,2-4.5c0-1.5-0.8-2.7-2-3.4c0-9.1-3.1-12.2-8.8-14.5
	c-0.6-9.6,3.3-16.5,11.9-16.5c9.1,0,13,5.2,11.7,16.1c1.2,0.7,2,1.9,2,3.4c0,1.8-1.2,3.3-2.8,3.7c-0.7,2.4-1.7,4.6-3.1,6.3v8.2
	c4.3,0.9,7.8,1.3,13,3.9c5.2,2.6,6.9,5,10.4,8.5v12.4H94.4C91.9,83.3,92.3,83.6,88,81.4z"/>
</svg>
