<?xml version="1.0" encoding="utf-8"?>
<!-- Generator: Adobe Illustrator 18.0.0, SVG Export Plug-In . SVG Version: 6.00 Build 0)  -->
<!DOCTYPE svg PUBLIC "-//W3C//DTD SVG 1.1//EN" "http://www.w3.org/Graphics/SVG/1.1/DTD/svg11.dtd">
<svg version="1.1" id="Calque_1" xmlns="http://www.w3.org/2000/svg" xmlns:xlink="http://www.w3.org/1999/xlink" x="0px" y="0px"
	 viewBox="0 0 128 128" enable-background="new 0 0 128 128" xml:space="preserve">
<path id="path3097_1_" inkscape:connector-curvature="0" fill="#060606" d="M49.9,100.9l35.7-35.7c4.7-4.7,4.7-12.4,0-17.2
	c-4.7-4.7-12.4-4.7-17.2,0L39.9,76.6l5.7,5.7l28.6-28.6c1.6-1.6,4.1-1.6,5.7,0c1.6,1.6,0.1,2.7-1.4,4.3L42.8,93.8
	c-3.9,3.9-8.9,5.4-12.9,1.4s-3.9-10.3,0-14.3l44.3-44.3c6.3-6.3,16.6-6.3,22.9,0c6.3,6.3,6.3,16.6,0,22.9L62.8,93.8l8.6,8.6
	L105.7,68c11.1-11.1,11.1-29,0-40s-29-11.1-40,0L19.9,73.8c-7.9,7.9-7.9,20.7,0,28.6c7.9,7.9,20.7,7.9,28.6,0L49.9,100.9L49.9,100.9
	z"/>
</svg>
