<?xml version="1.0" encoding="utf-8"?>
<!-- Generator: Adobe Illustrator 18.0.0, SVG Export Plug-In . SVG Version: 6.00 Build 0)  -->
<!DOCTYPE svg PUBLIC "-//W3C//DTD SVG 1.1//EN" "http://www.w3.org/Graphics/SVG/1.1/DTD/svg11.dtd">
<svg version="1.1" id="Calque_1" xmlns="http://www.w3.org/2000/svg" xmlns:xlink="http://www.w3.org/1999/xlink" x="0px" y="0px"
	 viewBox="0 0 128 128" enable-background="new 0 0 128 128" xml:space="preserve">
<path id="path3137" inkscape:connector-curvature="0" fill="#060606" d="M112.3,64h-0.2c0,0,2.7,4.3-28.9,5.9l-8.2,12h1.3
	c2,0,3.6,1.6,3.6,3.6c0,2-1.6,3.6-3.6,3.6H70l-3.9,5.4h0.5c2,0,3.6,1.6,3.6,3.6c0,2-1.6,3.6-3.6,3.6h-6c-4.6,5.8-8.9,10.5-11.9,12.5
	c0,0-6.2,0-6.2-3.6c0,0,14.5-26.6,19.7-40c-32.2,0.3-32.2-1.9-32.2-1.9s-7.1,13.4-14.3,13.4L21,64h0.2l-5.4-17.9
	c7.1,0,14.3,13.4,14.3,13.4s0-2.2,32.2-1.9c-5.1-13.4-19.7-40-19.7-40c0-3.6,6.2-3.6,6.2-3.6c3,2,7.2,6.7,11.9,12.5h6
	c2,0,3.6,1.6,3.6,3.6c0,2-1.6,3.6-3.6,3.6h-0.5l3.9,5.4h6.4c2,0,3.6,1.6,3.6,3.6c0,2-1.6,3.6-3.6,3.6h-1.3l8.2,12
	C114.9,59.7,112.3,64,112.3,64z"/>
</svg>
