<?xml version="1.0" encoding="utf-8"?>
<!-- Generator: Adobe Illustrator 18.0.0, SVG Export Plug-In . SVG Version: 6.00 Build 0)  -->
<!DOCTYPE svg PUBLIC "-//W3C//DTD SVG 1.1//EN" "http://www.w3.org/Graphics/SVG/1.1/DTD/svg11.dtd">
<svg version="1.1" id="Calque_1" xmlns="http://www.w3.org/2000/svg" xmlns:xlink="http://www.w3.org/1999/xlink" x="0px" y="0px"
	 viewBox="0 0 128 128" enable-background="new 0 0 128 128" xml:space="preserve">
<path id="path3007" fill="#060606" d="M49,92.3V104h11.7V92.3H49z M27.3,91.8V104h12.2V91.8H27.3z M100.7,84v20h6.7V84H100.7z
	 M87.3,84v20H94V84H87.3z M48.8,70.7v11.9h11.9V70.7H48.8z M27.3,70.7v12.1h12.1V70.7H27.3z M100.7,57.3v20h6.7v-20H100.7z
	 M87.3,57.3v19.9H94V57.3H87.3z M47.3,50.7v6.7H54v-6.7H47.3z M34,50.7v6.7h6.7v-6.7H34z M80.7,44H114v73.3H80.7V44z M47.3,37.3V44
	H54v-6.7H47.3z M34,37.3V44h6.7v-6.7H34z M40.7,10.7h6.7V24H54l6.7,13.3v20h6.7L74,64v53.3H14V64l6.7-6.7h6.7v-20L34,24h6.7V10.7z"
	/>
</svg>
