<?xml version="1.0" encoding="utf-8"?>
<!-- Generator: Adobe Illustrator 18.0.0, SVG Export Plug-In . SVG Version: 6.00 Build 0)  -->
<!DOCTYPE svg PUBLIC "-//W3C//DTD SVG 1.1//EN" "http://www.w3.org/Graphics/SVG/1.1/DTD/svg11.dtd">
<svg version="1.1" id="Calque_1" xmlns="http://www.w3.org/2000/svg" xmlns:xlink="http://www.w3.org/1999/xlink" x="0px" y="0px"
	 viewBox="0 0 128 128" enable-background="new 0 0 128 128" xml:space="preserve">
<path id="path3187" inkscape:connector-curvature="0" fill="#060606" d="M49,24H34c7.5-7.5,30-3.8,30-3.8c15-11.3,22.5-3.8,22.5-3.8
	c-3.8,0-11.3,3.8-11.3,3.8c30,0,33.8,7.5,33.8,7.5c-18.8-3.8-33.8,0-33.8,0C97.8,39,101.5,54,101.5,54C87.2,39.6,75,36.2,70.1,35.5
	c8.1,35.5,8,45.3,6.1,71c15,0,21.6,7.5,21.6,7.5H41.5c0,0,10.3-7.5,21.6-7.5c0,0,8.7-28.4,1.7-63.9C60.2,55.7,60.2,69,60.2,69
	c-7.5-7.5-3.8-30-3.8-30C49,39,30.2,54,30.2,54C30.2,42.7,49,31.5,49,31.5c-22.5,3.8-30,11.3-30,11.3C26.5,27.7,49,24,49,24z"/>
</svg>
