<?xml version="1.0" encoding="utf-8"?>
<!-- Generator: Adobe Illustrator 18.0.0, SVG Export Plug-In . SVG Version: 6.00 Build 0)  -->
<!DOCTYPE svg PUBLIC "-//W3C//DTD SVG 1.1//EN" "http://www.w3.org/Graphics/SVG/1.1/DTD/svg11.dtd">
<svg version="1.1" id="Calque_1" xmlns="http://www.w3.org/2000/svg" xmlns:xlink="http://www.w3.org/1999/xlink" x="0px" y="0px"
	 viewBox="0 0 128 128" enable-background="new 0 0 128 128" xml:space="preserve">
<path id="path3390" inkscape:connector-curvature="0" fill="#060606" d="M97.6,14.9c4.3-1,8.5,1.7,9.5,6l4.5,19.4L18.7,61.7
	l-4.5-19.4c-1-4.3,1.7-8.5,6-9.5L97.6,14.9z M19.9,49.2l1.8,7.7l14.9-23.8l-7.7,1.8L19.9,49.2z M33.3,54.2l7.7-1.8l14.9-23.8
	l-7.7,1.8L33.3,54.2z M52.6,49.7l7.7-1.8l14.9-23.8l-7.7,1.8L52.6,49.7z M72,45.3l7.7-1.8l14.9-23.8l-7.7,1.8L72,45.3z M91.3,40.8
	l7.7-1.8l6-9.5l-1.8-7.7L91.3,40.8z M106.1,113.3H26.6c-4.4,0-7.9-3.6-7.9-7.9V61.7H114l0,43.7C114,109.7,110.4,113.3,106.1,113.3z
	 M46.5,65.6L30.6,81.5h7.9l15.9-15.9H46.5z M66.3,65.6L50.4,81.5h7.9l15.9-15.9H66.3z M86.2,65.6L70.3,81.5h7.9l15.9-15.9H86.2z
	 M106.1,65.6L90.2,81.5h7.9L110,69.6l0-4H106.1z M26.6,65.6l-4,4v7.9l11.9-11.9H26.6z"/>
<text transform="matrix(1 0 0 1 64 64)" fill="#010101" font-family="'MyriadPro-Regular'" font-size="12">folder</text>
</svg>
