<?xml version="1.0" encoding="utf-8"?>
<!-- Generator: Adobe Illustrator 18.0.0, SVG Export Plug-In . SVG Version: 6.00 Build 0)  -->
<!DOCTYPE svg PUBLIC "-//W3C//DTD SVG 1.1//EN" "http://www.w3.org/Graphics/SVG/1.1/DTD/svg11.dtd">
<svg version="1.1" id="Calque_1" xmlns="http://www.w3.org/2000/svg" xmlns:xlink="http://www.w3.org/1999/xlink" x="0px" y="0px"
	 viewBox="0 0 128 128" enable-background="new 0 0 128 128" xml:space="preserve">
<path id="path3247" inkscape:connector-curvature="0" fill="#060606" d="M56,93.1L55,82l-34.1-0.1L20,93L56,93.1z M108.1,93.2
	l-0.8-11.1L73.2,82l-1.1,11.1L108.1,93.2z M61.1,113.9l-1.6-18l-42.9-0.1l-1.4,18L61.1,113.9z M49.4,34.8l-0.8-8.3l-12.5,0l-0.7,8.3
	L49.4,34.8z M92.8,34.9l-0.6-8.3l-12.5,0l-0.8,8.3L92.8,34.9z M95.3,23.8l-0.7-9.7l-17.6,0l-0.9,9.7L95.3,23.8z M112.8,114l-1.3-18
	l-42.9-0.1l-1.7,18L112.8,114z M33.1,23.7l19.2,0L51.4,14l-17.6,0L33.1,23.7z M21.1,79.1l86,0.2l-0.7-9.8L104,37.7l-79.7-0.2
	l-2.5,31.8L21.1,79.1z"/>
</svg>
