<?xml version="1.0" encoding="utf-8"?>
<!-- Generator: Adobe Illustrator 18.0.0, SVG Export Plug-In . SVG Version: 6.00 Build 0)  -->
<!DOCTYPE svg PUBLIC "-//W3C//DTD SVG 1.1//EN" "http://www.w3.org/Graphics/SVG/1.1/DTD/svg11.dtd">
<svg version="1.1" id="Calque_1" xmlns="http://www.w3.org/2000/svg" xmlns:xlink="http://www.w3.org/1999/xlink" x="0px" y="0px"
	 viewBox="0 0 128 128" enable-background="new 0 0 128 128" xml:space="preserve">
<path id="path2997" inkscape:connector-curvature="0" fill="#060606" d="M64,39.4l34.5,30.8v39.5c0,1.5-1,2.5-1.8,2.9
	c-0.9,0.5-1.8,0.7-2.8,0.7H75.6c-0.6,0-1.3-0.2-1.7-0.7c-0.4-0.4-0.7-1-0.7-1.7v-19H54.9v19c0,0.6-0.3,1.2-0.7,1.7
	c-0.5,0.4-1.1,0.7-1.7,0.7H34.1c-1,0-1.9-0.2-2.7-0.7c-0.8-0.4-1.8-1.4-1.8-2.9V70.2L64,39.4z M64,14.7c1.6,0,3.1,0.6,4.4,1.7
	l43.5,38.9c2.6,2.4,2.8,6.3,0.4,8.9c-2.4,2.6-6.5,2.7-9.1,0.4L64,29.6l-39.2,35c-1.2,1.1-2.8,1.7-4.4,1.7c-1.8,0-3.5-0.7-4.8-2l0,0
	c-2.4-2.6-2.2-6.6,0.4-8.9l43.5-38.9C60.9,15.3,62.4,14.7,64,14.7L64,14.7z"/>
</svg>
