<?xml version="1.0" encoding="utf-8"?>
<!-- Generator: Adobe Illustrator 18.0.0, SVG Export Plug-In . SVG Version: 6.00 Build 0)  -->
<!DOCTYPE svg PUBLIC "-//W3C//DTD SVG 1.1//EN" "http://www.w3.org/Graphics/SVG/1.1/DTD/svg11.dtd">
<svg version="1.1" id="Calque_1" xmlns="http://www.w3.org/2000/svg" xmlns:xlink="http://www.w3.org/1999/xlink" x="0px" y="0px"
	 viewBox="0 0 128 128" enable-background="new 0 0 128 128" xml:space="preserve">
<path id="path3282" fill="#060606" d="M85,56L71.3,70.9L54.7,81.2l0.7,0.5c3.1,1.9,6.8,3,10.7,3c11.3,0,20.6-9.2,20.6-20.6
	C86.7,61.3,86.1,58.6,85,56L85,56z M66.1,43.6c-11.3,0-20.6,9.2-20.6,20.6c0,2.5,0.4,4.9,1.3,7.1l0.3,0.9l12.5-13.2L78,47.4
	l-0.4-0.3C74.3,44.9,70.4,43.6,66.1,43.6z M63.5,20.3l6.8,22.1l0.4,0.1c3.2,0.7,6.2,2,8.7,3.9l0.1,0.1L114,24.8l-27.8,30l0.3,0.7
	c0.3,0.7,0.5,1.3,0.7,2l0,0.1l22.2,4l-21.7,6.7l-0.1,0.3c-0.5,2.5-1.4,4.8-2.7,6.9l-0.1,0.2l7.8,10l-11.6-5.4l-0.2,0.2
	c-2.3,2.1-5.1,3.7-8.2,4.7l-0.5,0.1l-3.7,22.3l-7-21.9l-0.3-0.1c-2.7-0.6-5.2-1.7-7.4-3.2l-0.5-0.3L14,106.8l32-33.6l-0.2-0.5
	c-0.3-0.7-0.5-1.3-0.7-2l0-0.1l-23-4.1l22.5-6.9l0.1-0.6c0.7-2.7,1.8-5.2,3.4-7.4l0.3-0.4l-7-10.6l11.2,6.3l0.2-0.1
	c1.8-1.4,3.8-2.5,5.9-3.3l0.9-0.3L63.5,20.3z"/>
</svg>
