<?xml version="1.0" encoding="utf-8"?>
<!-- Generator: Adobe Illustrator 18.0.0, SVG Export Plug-In . SVG Version: 6.00 Build 0)  -->
<!DOCTYPE svg PUBLIC "-//W3C//DTD SVG 1.1//EN" "http://www.w3.org/Graphics/SVG/1.1/DTD/svg11.dtd">
<svg version="1.1" id="Calque_1" xmlns="http://www.w3.org/2000/svg" xmlns:xlink="http://www.w3.org/1999/xlink" x="0px" y="0px"
	 viewBox="0 0 128 128" enable-background="new 0 0 128 128" xml:space="preserve">
<path id="path3037" inkscape:connector-curvature="0" fill="#060606" d="M14,51.5h25v8.3h4.2c4.2-2.8,12.5-5.6,17.1-11.2
	S70,34.4,74.9,29.5c4.9-4.9,9.5-6,14.1-7.2V14h25v25H89v-8.3c-4.5,1.2-9.1,2.3-13.9,7.2c-4.8,4.9-10,13.4-14.6,19.1l-2.6,2.9H89
	v-8.3h25v25H89v-8.3H57.9c0.8,0.9,1.7,1.8,2.6,2.9c4.7,5.7,9.8,14.2,14.6,19.1c4.8,4.9,9.4,6,13.9,7.2V89h25v25H89v-8.3
	c-4.6-1.2-9.3-2.3-14.1-7.2c-4.9-4.9-10-13.4-14.6-19.1c-4.6-5.7-13-8.4-17.1-11.2H39v8.3H14L14,51.5z"/>
</svg>
