<?xml version="1.0" encoding="utf-8"?>
<!-- Generator: Adobe Illustrator 18.0.0, SVG Export Plug-In . SVG Version: 6.00 Build 0)  -->
<!DOCTYPE svg PUBLIC "-//W3C//DTD SVG 1.1//EN" "http://www.w3.org/Graphics/SVG/1.1/DTD/svg11.dtd">
<svg version="1.1" id="Calque_1" xmlns="http://www.w3.org/2000/svg" xmlns:xlink="http://www.w3.org/1999/xlink" x="0px" y="0px"
	 viewBox="0 0 128 128" enable-background="new 0 0 128 128" xml:space="preserve">
<path id="path3227" inkscape:connector-curvature="0" fill="#060606" d="M104.9,50.7L96.8,30c-1.5-4-4.9-7.4-11.2-7.4H74H54.2H42.5
	c-6.3,0-9.7,3.4-11.2,7.4l-8.1,20.6H14v28.7h0.1V89h8v8.5c0,10.5,15,10.4,15,0V89h27h0h27v8.5c0,10.4,15,10.5,15,0V89h8v-9.6v-17
	V50.7H104.9z M29.8,72.7c-3.8,0-6.9-3.2-6.9-7.1c0-3.9,3.1-7.1,6.9-7.1c3.8,0,6.9,3.2,6.9,7.1C36.7,69.6,33.6,72.7,29.8,72.7z
	 M64,50.5L64,50.5L64,50.5H31.6l6.2-16.2c0.8-2.3,1.9-4,4.6-4H64h0h0h21.6c2.7,0,3.9,1.7,4.6,4l6.2,16.2H64z M98.3,72.7
	c-3.8,0-6.9-3.2-6.9-7.1c0-3.9,3.1-7.1,6.9-7.1c3.8,0,6.9,3.2,6.9,7.1C105.2,69.6,102.1,72.7,98.3,72.7z"/>
</svg>
