<?xml version="1.0" encoding="utf-8"?>
<!-- Generator: Adobe Illustrator 18.0.0, SVG Export Plug-In . SVG Version: 6.00 Build 0)  -->
<!DOCTYPE svg PUBLIC "-//W3C//DTD SVG 1.1//EN" "http://www.w3.org/Graphics/SVG/1.1/DTD/svg11.dtd">
<svg version="1.1" id="Calque_1" xmlns="http://www.w3.org/2000/svg" xmlns:xlink="http://www.w3.org/1999/xlink" x="0px" y="0px"
	 viewBox="0 0 128 128" enable-background="new 0 0 128 128" xml:space="preserve">
<path id="path3177" inkscape:connector-curvature="0" fill="#060606" d="M114,70.3l-18.7,4.3c1.4-4.1,2-8.6,1.7-13.1L114,70.3z
	 M94.9,103.8L78.7,93.7c4.1-2,7.6-4.8,10.4-8.1L94.9,103.8z M57.7,114l-4.3-18.7c4.1,1.4,8.6,2,13.1,1.7L57.7,114z M24.2,94.9
	l10.2-16.2c2,4.1,4.8,7.6,8.1,10.4L24.2,94.9z M14,57.7l18.7-4.3c-1.4,4.1-2,8.6-1.7,13.1L14,57.7z M33.1,24.2l16.2,10.2
	c-4.1,2-7.6,4.8-10.4,8.1L33.1,24.2z M70.3,14l4.3,18.7c-4.1-1.4-8.6-2-13.1-1.7L70.3,14z M103.8,33.1L93.7,49.3
	c-2-4.1-4.8-7.6-8.1-10.4L103.8,33.1z M64,37.5c14.6,0,26.5,11.9,26.5,26.5S78.6,90.5,64,90.5S37.5,78.6,37.5,64S49.4,37.5,64,37.5z
	"/>
</svg>
