<?xml version="1.0" encoding="utf-8"?>
<!-- Generator: Adobe Illustrator 18.0.0, SVG Export Plug-In . SVG Version: 6.00 Build 0)  -->
<!DOCTYPE svg PUBLIC "-//W3C//DTD SVG 1.1//EN" "http://www.w3.org/Graphics/SVG/1.1/DTD/svg11.dtd">
<svg version="1.1" id="Calque_1" xmlns="http://www.w3.org/2000/svg" xmlns:xlink="http://www.w3.org/1999/xlink" x="0px" y="0px"
	 viewBox="0 0 128 128" enable-background="new 0 0 128 128" xml:space="preserve">
<path id="path3027" inkscape:connector-curvature="0" fill="#060606" d="M64,37.6c7.7-26,42.3-11.5,42.3-11.5l0,4.8v2.8l7.7-1.9
	l0,58.7c0,0-42.3,1.9-50,15.4c-7.7-13.5-50-15.4-50-15.4V31.9l7.7,1.9v-2.8v-4.8C21.7,26.1,56.3,11.7,64,37.6z M102.5,80l0-48
	c-11.5-1.1-23.1-8.8-36.5,9.7l0,50.7C72.5,84.1,91.7,83.2,102.5,80z M25.5,32v48c10.7,3.2,29.9,4.1,36.5,12.4V41.6
	C48.6,23.2,37.1,30.9,25.5,32z"/>
</svg>
