<?xml version="1.0" encoding="utf-8"?>
<!-- Generator: Adobe Illustrator 18.0.0, SVG Export Plug-In . SVG Version: 6.00 Build 0)  -->
<!DOCTYPE svg PUBLIC "-//W3C//DTD SVG 1.1//EN" "http://www.w3.org/Graphics/SVG/1.1/DTD/svg11.dtd">
<svg version="1.1" id="Calque_1" xmlns="http://www.w3.org/2000/svg" xmlns:xlink="http://www.w3.org/1999/xlink" x="0px" y="0px"
	 viewBox="0 0 128 128" enable-background="new 0 0 128 128" xml:space="preserve">
<path id="path3147" inkscape:connector-curvature="0" fill="#060606" d="M62.7,14c0,14.1-6.2,27.4-6.2,23.9
	c0-3.5-7.1,10.6-10.6,17.7c-3.5,7.1-7.1,16.8-7.1,16.8l-14.1-0.9c0,0-3.5,30.9,3.5,34.5c7.1,3.5,14.4-1.4,21.2,2.7
	c17.7,10.6,46,3.5,42.4-3.5c0,0,14.1-7.1,10.6-10.6c0,0,3.5-5.3-0.9-10.6c4.4-5.3,2.7-10.6,0-14.1c2.7-5.3,4.4-10.6-6.2-14.1
	c-6.7-2.2-24.8,6.2-24.8-3.5c0-3.5,7.1-14.1,7.1-21.2C77.7,16.7,62.7,14,62.7,14z"/>
</svg>
