<?xml version="1.0" encoding="utf-8"?>
<!-- Generator: Adobe Illustrator 18.0.0, SVG Export Plug-In . SVG Version: 6.00 Build 0)  -->
<!DOCTYPE svg PUBLIC "-//W3C//DTD SVG 1.1//EN" "http://www.w3.org/Graphics/SVG/1.1/DTD/svg11.dtd">
<svg version="1.1" id="Calque_1" xmlns="http://www.w3.org/2000/svg" xmlns:xlink="http://www.w3.org/1999/xlink" x="0px" y="0px"
	 viewBox="0 0 128 128" enable-background="new 0 0 128 128" xml:space="preserve">
<path id="path3292" sodipodi:nodetypes="scsscccccccccccccccccsccsccccccccscccccccccccccsccccccccccccccccccscccccccccccccssccs" inkscape:connector-curvature="0" fill="#060606" d="
	M75.2,70.2c-0.9,0-1.7,0.1-1.7,0.2c-0.1,0.1-0.1,1.2-0.1,2.5c0,1.3-0.6,2.3-1.4,2.3c-0.8,0-2.4,1.6-2.8,2.2
	c-0.4,0.6-0.5,2.2-0.2,3.6l0.9,4.2c0.3,1.4,2.7,4.3,3.4,4.9c0.8,0.6,1,2.2,0.5,3.5L69.2,104c-0.6,1.2,0,2,1.3,1.7l2.6-0.7
	c1.3-0.4,2.4-0.8,2.5-0.9l0.1,0c3.3-2.2,7.5-6.3,7.5-6.3c1-1,2.3-3.4,2.4-4c0.2-0.6,1.9-2,2.4-2.4c0.5-0.4,1.3-1.7,1.7-3.1l1.3-5
	c0.3-1.4-0.9-3.2-1.7-3.6c-0.8-0.4-1.6-2.4-1.7-3.1c-0.1-0.7-2.2-3.2-3.1-4.1c-0.9-0.9-2.8-1.7-4.2-1.8l-4.2-0.4
	C75.8,70.2,75.5,70.2,75.2,70.2z M38.4,25.8c-1.6-0.1-4.6,1-5.5,1.7c-1,0.7-1.4,2-1.2,2.2c0.1,0.2-0.7,0.6-1,0.7
	c-0.3,0.1-0.9,1.2-1,1.7c-0.1,0.4,0.9,0.6,1.4,0.5c0.4-0.1-0.5,1.3-0.9,1.9c-0.4,0.6-0.5,2.5-0.4,3c0.1,0.5,1,0.8,1.3,0.8
	c0.3,0-0.9,2.2-1.4,3.1c-0.5,0.9,1.1-1,2.1-2c1-0.9,3.4-3.1,4.1-3.6c0.7-0.5,3.6,0.1,4.7,0.5c1,0.4,2.4,1.7,3.1,2.9l1.7,3
	c0.7,1.2,1.2,3.3,1.1,4.7L46.1,50c-0.1,1.4,1.4,5.6,2,6.8c0.6,1.2,1.7,3.2,2.4,4.3l3.3,5.3c0.7,1.2,2.4,2.5,3.7,3l3,1.1
	c1.3,0.5,2.4,0.4,2.4-0.2c0-0.6-0.1-0.9-0.2-0.9c0,0-0.4-0.4-0.7-0.9c-0.3-0.5-0.4-4-0.1-4.9c0.3-0.8,4.2-1.9,5.5-2.1
	c1.3-0.1,3.1,1.5,3.3,2.2c0.2,0.7,1.3,1.1,1.7,1.1c0.3,0,0.6-1.7,0.6-2.3c0-0.6,0.7-2,1.5-3.1l1.7-2.2c0.8-1.1,4.2-3.2,5.1-3.7
	c0.9-0.4,4.5-1.7,5.5-2c0.9-0.3,1.3-1.6,0.8-2.9l-2.7-6.7c-0.6-1.3-1.9-2-2.3-1.9c-0.4,0.1-1.7-2-2-2.8c-0.4-0.8-2.7-1.8-3.5-1.9
	c-0.8-0.1-1.5,0.9-1.6,2.2c-0.1,1.3-0.2,2.7-0.2,2.7c-0.1,1.4-1,2.5-1.3,2.5c-0.3,0-1.4-0.8-2.4-1.8l-3.7-3.5c-1-0.9-1.2-3.1-1-3.5
	c0.2-0.5,3.8-1.1,5.1-1.1c1.2,0,1.8-2.8,1.7-3.7c-0.2-0.9-1.4-1.6-2.8-1.6l-11.3,0.1c-1.4,0-3.6-0.2-4.9-0.6l-2.9-0.8
	c-1.3-0.3-4.5,0.2-5.3,0.6c-0.8,0.4-2.6,0.4-3.9,0L39,25.9C38.8,25.8,38.6,25.8,38.4,25.8z M64,14c27.6,0,50,22.4,50,50
	s-22.4,50-50,50c-26.9-0.5-50-18.3-50-50C14,36.4,36.4,14,64,14z"/>
</svg>
