<?xml version="1.0" encoding="utf-8"?>
<!-- Generator: Adobe Illustrator 18.0.0, SVG Export Plug-In . SVG Version: 6.00 Build 0)  -->
<!DOCTYPE svg PUBLIC "-//W3C//DTD SVG 1.1//EN" "http://www.w3.org/Graphics/SVG/1.1/DTD/svg11.dtd">
<svg version="1.1" id="Calque_1" xmlns="http://www.w3.org/2000/svg" xmlns:xlink="http://www.w3.org/1999/xlink" x="0px" y="0px"
	 viewBox="0 0 128 128" enable-background="new 0 0 128 128" xml:space="preserve">
<path id="path3077" inkscape:connector-curvature="0" fill="#060606" d="M48.3,35.4h34.3v5.7H48.3L48.3,35.4z M85.4,55.4H114v5.7
	H85.4L85.4,55.4z M48.3,44h11.4h11.4h11.4v48.6H71.1V75.4H59.7v17.1H48.3L48.3,44z M85.4,92.6V64H94h11.4h8.6v28.6h-8.6V78.3H94
	v14.3H85.4z M16.9,92.6V78.3v-5.7l15.7-11.4l12.9,11.4v5.7v14.3h-8.6V78.3H25.4v14.3H16.9z M32.6,51.9l12.9,11.4V69L32.6,57.6
	L14,71.1v-5.7L32.6,51.9z"/>
</svg>
