<?xml version="1.0" encoding="utf-8"?>
<!-- Generator: Adobe Illustrator 18.0.0, SVG Export Plug-In . SVG Version: 6.00 Build 0)  -->
<!DOCTYPE svg PUBLIC "-//W3C//DTD SVG 1.1//EN" "http://www.w3.org/Graphics/SVG/1.1/DTD/svg11.dtd">
<svg version="1.1" id="Calque_1" xmlns="http://www.w3.org/2000/svg" xmlns:xlink="http://www.w3.org/1999/xlink" x="0px" y="0px"
	 viewBox="0 0 128 128" enable-background="new 0 0 128 128" xml:space="preserve">
<path id="path3237" fill="#060606" d="M54.1,59.5h40.2v6.3H54.1V59.5z M46.9,46.8h52.2v6.3H46.9V46.8z M15.6,21.6l14.8,3.4l1,2.7
	l0,0l17.3,45.6H99l8.6-37.5l6.4,1.5l-9.5,41.4l-0.2,0v1.3H51.2l3.1,8.2l0,0c0.2,0,0.3,0,0.5,0c3.5,0,6.5,2,8.1,4.8l0.2,0.4h20.3
	l0.2-0.4c1.6-2.9,4.6-4.8,8.1-4.8c5.1,0,9.2,4.1,9.2,9.2c0,5.1-4.1,9.2-9.2,9.2c-4.3,0-7.9-2.9-8.9-6.9l-0.1-0.4H63.8l-0.1,0.4
	c-1,4-4.6,6.9-8.9,6.9c-5.1,0-9.2-4.1-9.2-9.2c0-2.5,1-4.9,2.7-6.5l0,0L25.3,30L14,27.2L15.6,21.6z"/>
</svg>
