<?xml version="1.0" encoding="utf-8"?>
<!-- Generator: Adobe Illustrator 18.0.0, SVG Export Plug-In . SVG Version: 6.00 Build 0)  -->
<!DOCTYPE svg PUBLIC "-//W3C//DTD SVG 1.1//EN" "http://www.w3.org/Graphics/SVG/1.1/DTD/svg11.dtd">
<svg version="1.1" id="Calque_1" xmlns="http://www.w3.org/2000/svg" xmlns:xlink="http://www.w3.org/1999/xlink" x="0px" y="0px"
	 viewBox="0 0 128 128" enable-background="new 0 0 128 128" xml:space="preserve">
<path id="path3370" inkscape:connector-curvature="0" fill="#060606" d="M64,14c-16.7,0-30.2,13.5-30.2,30.2c0,5.9,1.7,11.3,4.6,16
	L51,86.8L64,114l13-27.2l12.7-26.6c2.9-4.6,4.6-10.1,4.6-16C94.2,27.5,80.7,14,64,14 M64,60.9c-8.6,0-15.6-7-15.6-15.6
	c0-8.6,7-15.6,15.6-15.6s15.6,7,15.6,15.6C79.6,53.9,72.6,60.9,64,60.9"/>
</svg>
