<?xml version="1.0" encoding="utf-8"?>
<!-- Generator: Adobe Illustrator 18.0.0, SVG Export Plug-In . SVG Version: 6.00 Build 0)  -->
<!DOCTYPE svg PUBLIC "-//W3C//DTD SVG 1.1//EN" "http://www.w3.org/Graphics/SVG/1.1/DTD/svg11.dtd">
<svg version="1.1" id="Calque_1" xmlns="http://www.w3.org/2000/svg" xmlns:xlink="http://www.w3.org/1999/xlink" x="0px" y="0px"
	 viewBox="0 0 128 128" enable-background="new 0 0 128 128" xml:space="preserve">
<path id="path3097" inkscape:connector-curvature="0" fill="#060606" d="M93.2,49.5c11.5,0,20.8,9.3,20.8,20.8
	c0,11.5-9.5,20.6-21.1,20.6l-68.4,0C18.8,91,14,86.5,14,80.8c0-5.1,3.7-9.3,8.5-10.2c-0.1-0.7-0.2-1.5-0.2-2.3
	c0-7.8,6.2-14.2,13.9-14.6C39.7,44,48.9,37,59.8,37c10.3,0,19.2,6.3,23,15.2C85.9,50.5,89.4,49.5,93.2,49.5z"/>
</svg>
