<?xml version="1.0" encoding="utf-8"?>
<!-- Generator: Adobe Illustrator 18.0.0, SVG Export Plug-In . SVG Version: 6.00 Build 0)  -->
<!DOCTYPE svg PUBLIC "-//W3C//DTD SVG 1.1//EN" "http://www.w3.org/Graphics/SVG/1.1/DTD/svg11.dtd">
<svg version="1.1" id="Calque_1" xmlns="http://www.w3.org/2000/svg" xmlns:xlink="http://www.w3.org/1999/xlink" x="0px" y="0px"
	 viewBox="0 0 128 128" enable-background="new 0 0 128 128" xml:space="preserve">
<path id="path3087_1_" inkscape:connector-curvature="0" fill="#060606" d="M70.5,63.4l1.9-13.1c-1-0.2-2.1-0.3-3.4-0.3l-2.2,0.2
	C63.4,51,60.5,53,58,56.1c-2.6,3.3-4.2,7.2-4.8,11.7l0,1.2c0,2.8,0.6,5.1,1.9,6.8c1.1,0.9,2.6,1.3,4.3,1.4c2.8-0.1,5.4-1.6,7.7-4.6
	l0.9-1.2C69.2,69.1,70.1,66.4,70.5,63.4z M25.7,100C18.3,92.5,14.4,82.2,14,69.1c0.2-11.3,2.9-21.2,8.3-29.8
	c2.1-3.7,4.7-7.2,7.7-10.4c9.7-10.3,22.6-15.6,39-16.1c13.1,0.2,23.5,4,31.3,11.4c0.4,0.4,0.8,0.8,1.1,1.1c3.5,3.3,6.2,7.2,8.1,11.5
	c2.9,5.7,4.4,12.3,4.5,19.7c-0.1,11-2.7,19.6-7.6,25.8c-4.9,6.2-11.5,9.3-19.6,9.4c-2,0-3.7-0.3-5.3-0.8c-1.8-0.4-3.5-1.2-4.8-2.3
	c-0.5-0.4-0.9-0.8-1.3-1.3c-1.3-1.2-2.3-2.7-3-4.5c-4.6,5.9-10.6,8.9-17.9,9c-2.6,0-4.9-0.5-7-1.6c-1.9-0.8-3.6-2-5.1-3.6
	c-0.4-0.4-0.8-0.8-1.2-1.2c-2.9-3.3-4.4-8-4.5-14.1c0.1-7.2,1.9-13.5,5.4-19c1.3-2.4,2.9-4.6,4.8-6.6c5.9-6.5,14.1-9.8,24.7-10.1
	c3.3,0,6.5,0.4,9.7,1c3.2,0.7,5.7,1.5,7.6,2.4l-0.1,0.5c0.4,0.2,0.7,0.3,1.1,0.5l-0.2,1.3l0.6,0.3l-4.4,27.4c-0.5,3-0.8,5.4-0.6,7.3
	c0.2,0.7,0.4,1.2,0.7,1.7c0.6,0.4,1.3,0.6,2.2,0.6c3.3,0.2,6.5-1.8,9.6-6.2c2-4,3.1-9.4,3.3-16.3c0-9.5-2.9-17.3-8.7-23.3
	c-5.9-5.6-14.3-8.5-25.1-8.7c-8.1,0.1-15.4,2.1-21.7,6.1c-2.3,1.5-4.4,3.3-6.5,5.3c-4.3,4.2-7.4,9.3-9.5,15.4
	c-1.5,4.8-2.3,10.2-2.4,16.1c0.2,11.3,3.2,20,9.3,26.4c6.7,6.2,15.5,9.4,26.3,9.4c3.8,0,7.5-0.4,11.2-1.1c3.7-0.7,7.1-1.8,10-3.1
	l0.4,1.3c0.2-0.1,0.4-0.2,0.7-0.3l2.1,8l0.9,2.6c-4.4,1.8-8.7,3.1-13,3.9c-4.3,0.7-9,1.1-14.3,1.1c-12.4-0.1-23-4-31.8-11.8
	l-2.4-2.3c-0.2-0.2-0.3-0.4-0.5-0.5L25.7,100z"/>
</svg>
