<?xml version="1.0" encoding="utf-8"?>
<!-- Generator: Adobe Illustrator 18.0.0, SVG Export Plug-In . SVG Version: 6.00 Build 0)  -->
<!DOCTYPE svg PUBLIC "-//W3C//DTD SVG 1.1//EN" "http://www.w3.org/Graphics/SVG/1.1/DTD/svg11.dtd">
<svg version="1.1" id="Calque_1" xmlns="http://www.w3.org/2000/svg" xmlns:xlink="http://www.w3.org/1999/xlink" x="0px" y="0px"
	 viewBox="0 0 128 128" enable-background="new 0 0 128 128" xml:space="preserve">
<path id="path3759" inkscape:connector-curvature="0" fill="#060606" d="M14,14v27.8h27.8V14L14,14z M50.1,14v27.8h27.8V14L50.1,14z
	 M86.2,14v27.8H114V14L86.2,14z M14,50.1v27.8h27.8V50.1H14z M50.1,50.1v27.8h27.8V50.1H50.1z M86.2,50.1v27.8H114V50.1H86.2z
	 M19.2,55.9h17.3v16.1H19.2V55.9z M14,86.2V114h27.8V86.2H14z M50.1,86.2V114h27.8V86.2H50.1z M86.2,86.2V114H114V86.2H86.2z"/>
</svg>
