<?xml version="1.0" encoding="utf-8"?>
<!-- Generator: Adobe Illustrator 18.0.0, SVG Export Plug-In . SVG Version: 6.00 Build 0)  -->
<!DOCTYPE svg PUBLIC "-//W3C//DTD SVG 1.1//EN" "http://www.w3.org/Graphics/SVG/1.1/DTD/svg11.dtd">
<svg version="1.1" id="Calque_1" xmlns="http://www.w3.org/2000/svg" xmlns:xlink="http://www.w3.org/1999/xlink" x="0px" y="0px"
	 viewBox="0 0 128 128" enable-background="new 0 0 128 128" xml:space="preserve">
<path id="path3792" inkscape:connector-curvature="0" fill="#060606" d="M70.2,14C94.4,14,114,26.1,114,41.1
	c0,9.5-7.9,17.8-19.8,22.7c2.5,4.9,7,10.3,11.5,17.1c-9.3-3.2-23.2-6.4-31.4-12.8l-4,0.1c-24.2,0-43.7-12.1-43.7-27.1
	C26.5,26.1,46.1,14,70.2,14z M80.7,78.6c0,12.7-14.9,22.9-33.3,22.9l-2.5-0.1C38,107.7,28.6,114,18.2,114c2.4-4.9,7.7-9.7,10.9-16.3
	c-9-4.1-15-11.1-15-19.1c0-8,6-15,15-19.1c7.7,7.6,21.5,12.7,37.1,12.7l4-0.1c2.9,2.3,6.6,4.2,10.5,5.8L80.7,78.6z"/>
</svg>
