<?xml version="1.0" encoding="utf-8"?>
<!-- Generator: Adobe Illustrator 18.0.0, SVG Export Plug-In . SVG Version: 6.00 Build 0)  -->
<!DOCTYPE svg PUBLIC "-//W3C//DTD SVG 1.1//EN" "http://www.w3.org/Graphics/SVG/1.1/DTD/svg11.dtd">
<svg version="1.1" id="Calque_1" xmlns="http://www.w3.org/2000/svg" xmlns:xlink="http://www.w3.org/1999/xlink" x="0px" y="0px"
	 viewBox="0 0 128 128" enable-background="new 0 0 128 128" xml:space="preserve">
<path id="path3117" inkscape:connector-curvature="0" fill="#060606" d="M82,99.6c0,2.7-2.2,4.9-4.9,4.9c-2.7,0-4.9-2.2-4.9-4.9v-16
	l-6.8-9.4l-3.5,9.6c-0.2,0.7-0.5,1.3-1,1.8l-0.9,1.5l-11.2,13.2c-1.8,2.1-4.9,2.3-7,0.6c-2.1-1.8-2.3-4.9-0.6-7l11.2-13.2l0,0
	l5.1-13.9l-0.2-1.8V47.8c0-4.1,3.3-7.4,7.4-7.4c2.8,0,5.3,1.6,6.5,3.9l8.6,8.3L91,55.4c2,0.5,3.2,2.5,2.7,4.5
	c-0.5,2-2.5,3.2-4.5,2.7l-11.3-2.8c-0.7-0.2-1.3-0.5-1.7-1c-0.5-0.2-1-0.5-1.5-0.9l-2.6-2.5v9.6L72,66.6l9.2,12.8
	c0.8,1.1,1,2.5,0.8,3.8L82,99.6z M62.3,23.4c4.1,0,7.4,3.3,7.4,7.4s-3.3,7.4-7.4,7.4c-4.1,0-7.4-3.3-7.4-7.4S58.2,23.4,62.3,23.4z
	 M99.8,60l9.4,17.3l-10.8,5.9L89,65.9L99.8,60z M96.2,84.4c-2.4,1.3-5.4,0.4-6.7-2l-4.7-8.7c-1.3-2.4-0.4-5.4,2-6.7L96.2,84.4z
	 M102,58.9c2.4-1.3,5.4-0.4,6.7,2l4.7,8.7c1.3,2.4,0.4,5.4-2,6.7L102,58.9z M44.7,51.9c2.4,0,4.4,2,4.4,4.4c0,2.4-2,4.4-4.4,4.4
	H30.1c-2.4,0-4.4-2-4.4-4.4c0-2.4,2-4.4,4.4-4.4L44.7,51.9z M41,66.6c2.4,0,4.4,2,4.4,4.4c0,2.4-2,4.4-4.4,4.4H25
	c-2.4,0-4.4-2-4.4-4.4c0-2.4,2-4.4,4.4-4.4H41z M33,81.2c2.4,0,4.4,2,4.4,4.4c0,2.4-2,4.4-4.4,4.4H18.4c-2.4,0-4.4-2-4.4-4.4
	s2-4.4,4.4-4.4H33z"/>
</svg>
