<?xml version="1.0" encoding="utf-8"?>
<!-- Generator: Adobe Illustrator 18.0.0, SVG Export Plug-In . SVG Version: 6.00 Build 0)  -->
<!DOCTYPE svg PUBLIC "-//W3C//DTD SVG 1.1//EN" "http://www.w3.org/Graphics/SVG/1.1/DTD/svg11.dtd">
<svg version="1.1" id="Calque_1" xmlns="http://www.w3.org/2000/svg" xmlns:xlink="http://www.w3.org/1999/xlink" x="0px" y="0px"
	 viewBox="0 0 128 128" enable-background="new 0 0 128 128" xml:space="preserve">
<path id="path3057_3_" inkscape:connector-curvature="0" fill="#060606" d="M14,112.8v-85h12.5v-7.5c0-2.8,2.2-5,5-5h10
	c2.8,0,5,2.2,5,5v7.5h35l0-7.5c0-2.8,2.2-5,5-5h10c2.8,0,5,2.2,5,5v7.5H114v85H14z M21.5,105.3h85V47.8h-85L21.5,105.3z M26.5,87.8
	h15v12.5h-15V87.8z M46.5,87.8h15v12.5h-15L46.5,87.8z M66.5,87.8h15v12.5h-15V87.8z M86.5,87.8h15v12.5h-15V87.8z M26.5,70.3h15
	v12.5h-15L26.5,70.3z M46.5,70.3h15v12.5h-15V70.3z M66.5,70.3h15v12.5h-15V70.3z M86.5,70.3h15v12.5h-15V70.3z M46.5,52.8h15v12.5
	h-15L46.5,52.8z M66.5,52.8h15v12.5h-15V52.8z M86.5,52.8h15v12.5h-15V52.8z M90.2,20.3c-2.1,0-3.7,1.7-3.7,3.8v7.5
	c0,2.1,1.7,3.7,3.7,3.7h2.5c2.1,0,3.7-1.7,3.7-3.7V24c0-2.1-1.7-3.8-3.7-3.8H90.2z M35.3,20.3c-2.1,0-3.7,1.7-3.7,3.7v7.5
	c0,2.1,1.7,3.8,3.7,3.8h2.5c2.1,0,3.7-1.7,3.7-3.8V24c0-2.1-1.7-3.7-3.7-3.7L35.3,20.3z"/>
</svg>
