<?xml version="1.0" encoding="utf-8"?>
<!-- Generator: Adobe Illustrator 18.0.0, SVG Export Plug-In . SVG Version: 6.00 Build 0)  -->
<!DOCTYPE svg PUBLIC "-//W3C//DTD SVG 1.1//EN" "http://www.w3.org/Graphics/SVG/1.1/DTD/svg11.dtd">
<svg version="1.1" id="Calque_1" xmlns="http://www.w3.org/2000/svg" xmlns:xlink="http://www.w3.org/1999/xlink" x="0px" y="0px"
	 viewBox="0 0 128 128" enable-background="new 0 0 128 128" xml:space="preserve">
<g>
	<path d="M114,34.3v9.1c0,1.9-1.5,3.4-3.4,3.4H17.4c-1.9,0-3.4-1.5-3.4-3.4v-9.1c0-1.9,1.5-3.4,3.4-3.4h93.2
		C112.4,30.9,114,32.4,114,34.3z"/>
	<path d="M113.9,59.4v9c0,1.9-1.5,3.4-3.4,3.4H17.4c-1.9,0-3.4-1.5-3.4-3.4v-9c0-1.9,1.5-3.4,3.4-3.4h93.1
		C112.4,56,113.9,57.5,113.9,59.4z"/>
	<path d="M14.1,93.7v-9c0-1.9,1.5-3.4,3.4-3.4h93.1c1.9,0,3.4,1.5,3.4,3.4v9c0,1.9-1.5,3.4-3.4,3.4H17.5
		C15.6,97.1,14.1,95.6,14.1,93.7z"/>
</g>
</svg>
