<?xml version="1.0" encoding="utf-8"?>
<!-- Generator: Adobe Illustrator 18.0.0, SVG Export Plug-In . SVG Version: 6.00 Build 0)  -->
<!DOCTYPE svg PUBLIC "-//W3C//DTD SVG 1.1//EN" "http://www.w3.org/Graphics/SVG/1.1/DTD/svg11.dtd">
<svg version="1.1" id="Calque_1" xmlns="http://www.w3.org/2000/svg" xmlns:xlink="http://www.w3.org/1999/xlink" x="0px" y="0px"
	 viewBox="0 0 128 128" enable-background="new 0 0 128 128" xml:space="preserve">
<g>
	<path stroke="#010101" stroke-width="11.0032" stroke-miterlimit="10" d="M46.4,97.9C67.5,76.7,88.8,55.5,110,34.3
		c-1.3-1.3-2.7-2.7-4.2-4.2C86.1,50,66.3,69.8,46.3,89.8c-8.2-8.2-16.2-16.3-24.2-24.3c-1.4,1.4-2.8,2.8-4.1,4.1
		C27.4,79,36.9,88.5,46.4,97.9z"/>
	<path stroke="#010101" stroke-width="11.96" stroke-miterlimit="10" d="M46.4,97.9C36.9,88.5,27.4,79,18,69.7
		c1.4-1.4,2.7-2.7,4.1-4.1c8,8,16,16.1,24.2,24.3c19.9-20,39.7-39.9,59.5-59.7c1.5,1.5,2.8,2.8,4.2,4.2
		C88.8,55.5,67.5,76.7,46.4,97.9z"/>
</g>
</svg>
