<?xml version="1.0" encoding="utf-8"?>
<!-- Generator: Adobe Illustrator 18.0.0, SVG Export Plug-In . SVG Version: 6.00 Build 0)  -->
<!DOCTYPE svg PUBLIC "-//W3C//DTD SVG 1.1//EN" "http://www.w3.org/Graphics/SVG/1.1/DTD/svg11.dtd">
<svg version="1.1" id="Calque_1" xmlns="http://www.w3.org/2000/svg" xmlns:xlink="http://www.w3.org/1999/xlink" x="0px" y="0px"
	 viewBox="0 0 128 128" enable-background="new 0 0 128 128" xml:space="preserve">
<path id="path3117_1_" sodipodi:nodetypes="cccccccccsscsccscsccccc" inkscape:connector-curvature="0" fill="#060606" d="M14,61.2
	c5.9-7.2,17.7-0.1,32.6,19.4c1,1.2,1.2,1.7,1.9,0.1c5.2-12.8,18.1-54.5,51.6-65.2c-30.8-1.9-47.9,25.8-56.7,41.9
	c-2.6-3.2-7.6-7.7-13.2-11.2C20.7,40.1,14,61.2,14,61.2 M101.1,17c4.3,1.8,7.8,5.1,10.5,9.9c1.5,3,2.3,6.1,2.3,9.2v55.2
	c0,9.6-5.1,16.5-15.4,20.5c-2.8,0.5-5.2,0.8-7.5,0.8H14V63.2c5.4-5.4,14,8.2,14,11.3v24.1h65.1c3.7,0,5.9-2.6,6.6-7.7v-53
	c-0.5-5.2-3.3-8-8.4-8.1h-2.1C89.5,26.4,94.1,19.4,101.1,17"/>
</svg>
