<?xml version="1.0" encoding="utf-8"?>
<!-- Generator: Adobe Illustrator 18.0.0, SVG Export Plug-In . SVG Version: 6.00 Build 0)  -->
<!DOCTYPE svg PUBLIC "-//W3C//DTD SVG 1.1//EN" "http://www.w3.org/Graphics/SVG/1.1/DTD/svg11.dtd">
<svg version="1.1" id="Calque_1" xmlns="http://www.w3.org/2000/svg" xmlns:xlink="http://www.w3.org/1999/xlink" x="0px" y="0px"
	 viewBox="0 0 128 128" enable-background="new 0 0 128 128" xml:space="preserve">
<path id="path3117_3_" sodipodi:nodetypes="cccccccccsscsccscscccccccccccccccccccccsscccscsccsscccscsccccscccscsccsccccscccsscccscsccccccccccscsc" inkscape:connector-curvature="0" fill="#060606" d="
	M14,59.6c1.7-2.1,5.1,0,9.3,5.5c0.3,0.4,0.4,0.5,0.5,0c1.5-3.7,5.2-15.6,14.7-18.6c-8.8-0.5-13.7,7.4-16.2,12
	c-0.8-0.9-2.2-2.2-3.8-3.2C15.9,53.5,14,59.6,14,59.6 M38.9,46.9c1.2,0.5,2.2,1.5,3,2.8c0.4,0.9,0.7,1.7,0.7,2.6v15.8
	c0,2.8-1.5,4.7-4.4,5.9c-0.8,0.2-1.5,0.2-2.1,0.2H14V60.1c1.5-1.5,4,2.3,4,3.2v6.9h18.6c1.1,0,1.7-0.7,1.9-2.2V52.9
	c-0.1-1.5-0.9-2.3-2.4-2.3h-0.6C35.5,49.6,36.9,47.6,38.9,46.9 M99,59.9h4.6l2.1,9.6c0.2,0.6,0.6,1,1.3,1.1l2.4-10.7h4.5l-4.5,18.9
	l-1.9,2.8h-3.2l1.8-7.3c-2.5,0-4-1.3-4.7-3.9L99,59.9z M90.8,71c0.9,0,1.6-0.3,2.3-1v-2.2L90.6,68c-0.7,0.1-1,0.5-1,1.4v0.5
	c0,0.6,0.1,0.9,0.4,1C90.2,70.9,90.5,71,90.8,71 M85.1,70.5v-1.2c0-1.2,0.4-2.1,1.1-2.9c0.7-0.8,1.7-1.1,3.1-1.1h3.8
	c0-0.4,0-0.6,0-0.6c0-0.7-0.1-1.1-0.4-1.3c-0.3-0.2-0.8-0.3-1.6-0.3c-0.8,0-2.6,0.1-5.5,0.3v-2.7c0.9-0.4,1.8-0.6,2.8-0.8
	c1-0.1,2.3-0.2,3.9-0.2c1.6,0,2.9,0.4,3.8,1.1c0.9,0.7,1.4,1.9,1.4,3.7v9.8H94l-0.9-1.5c-0.1,0.3-0.6,0.7-1.3,1.1
	c-0.7,0.4-1.5,0.6-2.3,0.6c-1.5,0-2.6-0.4-3.3-1.2C85.5,72.4,85.1,71.5,85.1,70.5 M71.9,70.4h3.9c1,0,1.7-0.5,2.1-1.5
	c0.4-1,0.6-2.4,0.6-4.2c0-1.8-0.1-3.2-0.4-4.1c-0.2-0.9-0.5-1.5-0.9-1.8c-0.4-0.3-0.9-0.4-1.5-0.4h-3.9V70.4z M67.5,74.2V54.4h8.8
	c1.1,0,2,0.2,2.8,0.6c0.8,0.4,1.5,0.9,2,1.4c0.5,0.6,0.9,1.3,1.2,2.2c0.5,1.5,0.8,3.5,0.8,5.8c0,6.5-2.3,9.8-6.8,9.8H67.5z
	 M50.5,58.2v-3.3c2.6-0.5,5.3-0.8,8.2-0.8c2,0,3.5,0.6,4.5,1.7c1,1.2,1.5,2.7,1.5,4.5c0,0.8-0.2,1.6-0.6,2.5
	c-0.4,0.9-0.8,1.6-1.3,2.3c-0.5,0.6-1.1,1.4-1.8,2.1c-0.9,1-1.9,1.9-3.1,2.9h6.7v4h-14v-3.9c1.6-1.1,3.5-2.6,5.7-4.5
	c1.1-1,2-2,2.8-2.9c0.8-1,1.1-1.9,1.1-2.6c0-0.7-0.2-1.3-0.7-1.6c-0.5-0.3-1.3-0.5-2.5-0.5H50.5z"/>
</svg>
