<?xml version="1.0" encoding="utf-8"?>
<!-- Generator: Adobe Illustrator 18.0.0, SVG Export Plug-In . SVG Version: 6.00 Build 0)  -->
<!DOCTYPE svg PUBLIC "-//W3C//DTD SVG 1.1//EN" "http://www.w3.org/Graphics/SVG/1.1/DTD/svg11.dtd">
<svg version="1.1" id="Calque_1" xmlns="http://www.w3.org/2000/svg" xmlns:xlink="http://www.w3.org/1999/xlink" x="0px" y="0px"
	 viewBox="0 0 128 128" enable-background="new 0 0 128 128" xml:space="preserve">
<path id="path3117_2_" inkscape:connector-curvature="0" fill="#060606" d="M69.1,41.4c2.7-3.2,8,0,14.6,8.7c0.4,0.6,0.6,0.8,0.9,0
	c2.4-5.8,8.1-24.4,23.2-29.3C94,20,86.3,32.5,82.3,39.7c-1.2-1.4-3.4-3.5-5.9-5C72.1,32,69.1,41.4,69.1,41.4 M108.2,21.6
	c1.9,0.8,3.5,2.3,4.7,4.5c0.7,1.3,1,2.7,1,4.1V55c0,4.3-2.3,7.4-6.9,9.2c-1.2,0.2-2.4,0.4-3.3,0.4H69.1V42.3
	c2.4-2.4,6.3,3.7,6.3,5.1v10.8h29.2c1.7,0,2.7-1.1,3-3.4V31c-0.2-2.4-1.5-3.6-3.8-3.7h-1C103,25.8,105.1,22.7,108.2,21.6 M90.1,73.1
	h7.3l3.3,15.1c0.3,1,0.9,1.6,2.1,1.7l3.8-16.8h7.1l-7.1,29.7l-3.1,4.3h-5.1l2.9-11.5c-3.9,0-6.3-2-7.3-6.1L90.1,73.1z M77.3,90.6
	c1.4,0,2.6-0.5,3.6-1.6v-3.4l-4,0.3c-1.1,0.1-1.6,0.8-1.6,2.1v0.7c0,0.9,0.2,1.4,0.7,1.6C76.3,90.5,76.8,90.6,77.3,90.6 M68.4,89.8
	v-2c0-1.8,0.6-3.4,1.7-4.6c1.1-1.2,2.7-1.8,4.9-1.8h6c0-0.6,0-0.9,0-0.9c0-1.1-0.2-1.8-0.6-2.1C79.9,78.1,79,78,77.7,78
	c-1.3,0-4.2,0.2-8.6,0.5v-4.2c1.4-0.6,2.9-1,4.4-1.2c1.6-0.2,3.6-0.3,6.1-0.3c2.5,0,4.5,0.6,6,1.7c1.5,1.1,2.2,3.1,2.2,5.9v15.5
	h-5.5L81,93.3c-0.2,0.5-0.9,1-2,1.7c-1.1,0.6-2.3,1-3.7,1c-2.3,0-4.1-0.6-5.2-1.9C68.9,92.7,68.4,91.3,68.4,89.8 M47.7,89.6h6.2
	c1.6,0,2.7-0.8,3.4-2.3c0.7-1.6,1-3.8,1-6.7c0-2.9-0.2-5.1-0.6-6.5c-0.4-1.4-0.9-2.4-1.4-2.8c-0.6-0.5-1.4-0.7-2.4-0.7h-6.2V89.6z
	 M40.7,95.7V64.5h13.8c1.7,0,3.2,0.3,4.5,0.9c1.3,0.6,2.3,1.3,3.1,2.3c0.8,0.9,1.4,2.1,1.9,3.5c0.9,2.4,1.3,5.4,1.3,9.1
	c0,10.3-3.6,15.4-10.7,15.4L40.7,95.7z M14,70.5v-5.2c4.1-0.8,8.4-1.2,12.9-1.2c3.1,0,5.5,0.9,7.1,2.7c1.6,1.8,2.4,4.2,2.4,7.1
	c0,1.2-0.3,2.6-0.9,3.9c-0.6,1.4-1.2,2.6-2,3.6c-0.7,1-1.7,2.1-2.8,3.3c-1.4,1.5-3,3-4.8,4.5h10.5v6.3h-22v-6.1
	c2.5-1.7,5.5-4,8.9-7.1c1.7-1.5,3.2-3.1,4.4-4.6c1.2-1.6,1.8-2.9,1.8-4.1c0-1.1-0.4-2-1.1-2.5c-0.8-0.5-2.1-0.8-3.9-0.8H14z"/>
</svg>
