<?xml version="1.0" encoding="utf-8"?>
<!-- Generator: Adobe Illustrator 18.0.0, SVG Export Plug-In . SVG Version: 6.00 Build 0)  -->
<!DOCTYPE svg PUBLIC "-//W3C//DTD SVG 1.1//EN" "http://www.w3.org/Graphics/SVG/1.1/DTD/svg11.dtd">
<svg version="1.1" id="Calque_1" xmlns="http://www.w3.org/2000/svg" xmlns:xlink="http://www.w3.org/1999/xlink" x="0px" y="0px"
	 viewBox="0 0 128 128" enable-background="new 0 0 128 128" xml:space="preserve">
<g>
	<path d="M114.2,59.4v9c0,1.9-1.3,3.4-2.9,3.4H32.1c-1.6,0-2.9-1.5-2.9-3.4v-9c0-1.9,1.3-3.4,2.9-3.4h79.2
		C112.9,56,114.2,57.5,114.2,59.4z"/>
	<path d="M13.8,93.7v-9c0-1.9,1.5-3.4,3.4-3.4h93.2c1.9,0,3.4,1.5,3.4,3.4v9c0,1.9-1.5,3.4-3.4,3.4H17.2
		C15.3,97.1,13.8,95.6,13.8,93.7z"/>
</g>
</svg>
