<?xml version="1.0" encoding="utf-8"?>
<!-- Generator: Adobe Illustrator 18.0.0, SVG Export Plug-In . SVG Version: 6.00 Build 0)  -->
<!DOCTYPE svg PUBLIC "-//W3C//DTD SVG 1.1//EN" "http://www.w3.org/Graphics/SVG/1.1/DTD/svg11.dtd">
<svg version="1.1" id="Calque_1" xmlns="http://www.w3.org/2000/svg" xmlns:xlink="http://www.w3.org/1999/xlink" x="0px" y="0px"
	 viewBox="0 0 128 128" enable-background="new 0 0 128 128" xml:space="preserve">
<path id="path3207" inkscape:connector-curvature="0" fill="#060606" d="M91.8,45.5l6.7,4.1l7.2-3.2l-1.9,7.6l5.2,5.8l-7.8,0.6
	l-3.9,6.8l-3-7.3l-7.7-1.6l6-5.1L91.8,45.5z M74,41.8c0.8,0,1.5,0.3,2.1,0.8l4.3,3.6c1.6,1.3,1.6,3.9,0,5.8l-50.3,60.3
	c-1.6,1.9-4.1,2.3-5.7,1l-4.3-3.6c-1.6-1.3-1.6-3.9,0-5.8l50.3-60.3C71.4,42.4,72.7,41.8,74,41.8z M51.6,14.5l8.4,5.1l9-4l-2.3,9.5
	l6.6,7.3l-9.8,0.8l-4.9,8.5l-3.7-9.1l-9.6-2.1l7.5-6.4L51.6,14.5z M86.2,14l5.9,3.6l6.3-2.8l-1.6,6.7l4.6,5.1l-6.9,0.5L91,33.1
	l-2.6-6.4l-6.7-1.4l5.2-4.4L86.2,14z"/>
</svg>
