<?xml version="1.0" encoding="utf-8"?>
<!-- Generator: Adobe Illustrator 18.0.0, SVG Export Plug-In . SVG Version: 6.00 Build 0)  -->
<!DOCTYPE svg PUBLIC "-//W3C//DTD SVG 1.1//EN" "http://www.w3.org/Graphics/SVG/1.1/DTD/svg11.dtd">
<svg version="1.1" id="Calque_1" xmlns="http://www.w3.org/2000/svg" xmlns:xlink="http://www.w3.org/1999/xlink" x="0px" y="0px"
	 viewBox="0 0 128 128" enable-background="new 0 0 128 128" xml:space="preserve">
<g>
	<g>
		<path fill="#060606" d="M107.4,23.7l2.2,2.2c2.8,2.8,2.8,7.3,0,10.1l-3.9,3.9L93.4,27.6l3.9-3.9C100.1,20.9,104.6,20.9,107.4,23.7
			z M73.2,72.5L60.9,60.1l30.3-30.3l12.3,12.3L73.2,72.5z M59.8,64.6l9,9l-12.4,3.5L59.8,64.6z"/>
	</g>
	<g>
		<rect x="45.6" y="101.9" fill="#010101" width="31.3" height="8.6"/>
	</g>
	<g>
		<rect x="57" y="90.8" fill="#010101" width="8.6" height="15.8"/>
	</g>
	<g>
		<rect x="23.6" y="79.5" fill="#010101" width="31.3" height="5.5"/>
	</g>
	<g>
		<polygon fill="#010101" points="109.5,96.9 11.8,96.9 11.8,40.1 70.4,40.1 60.6,48.7 20.4,48.7 20.4,88.3 100.9,88.3 100.9,56.8 
			109.5,48.9 		"/>
	</g>
	<path fill="none" stroke="#010101" stroke-width="7" stroke-miterlimit="10" d="M61.4,51.6"/>
	<path fill="none" stroke="#010101" stroke-width="7" stroke-miterlimit="10" d="M77.6,37.8"/>
	<path fill="#010101" d="M96.6,55.5"/>
</g>
</svg>
