<?xml version="1.0" encoding="utf-8"?>
<!-- Generator: Adobe Illustrator 18.0.0, SVG Export Plug-In . SVG Version: 6.00 Build 0)  -->
<!DOCTYPE svg PUBLIC "-//W3C//DTD SVG 1.1//EN" "http://www.w3.org/Graphics/SVG/1.1/DTD/svg11.dtd">
<svg version="1.1" id="Calque_1" xmlns="http://www.w3.org/2000/svg" xmlns:xlink="http://www.w3.org/1999/xlink" x="0px" y="0px"
	 viewBox="0 0 128 128" enable-background="new 0 0 128 128" xml:space="preserve">
<path fill="#060606" d="M64,21.7c12.1,0,23.1,5.1,30.8,13.3V14l11.5,11.5l0,30.8H75.5L64,44.8h21.5c-5.3-5.9-13-9.6-21.5-9.6
	c-14.6,0-26.7,10.9-28.6,25H21.9C23.8,38.6,41.9,21.7,64,21.7z M64,92.8c14.6,0,26.7-10.9,28.6-25h13.5
	c-1.9,21.6-20.1,38.5-42.1,38.5c-12.1,0-23.1-5.1-30.8-13.3v21l-11.5-11.5V71.7h30.8L64,83.2H42.5C47.8,89.1,55.5,92.8,64,92.8z"/>
</svg>
