<?xml version="1.0" encoding="utf-8"?>
<!-- Generator: Adobe Illustrator 18.0.0, SVG Export Plug-In . SVG Version: 6.00 Build 0)  -->
<!DOCTYPE svg PUBLIC "-//W3C//DTD SVG 1.1//EN" "http://www.w3.org/Graphics/SVG/1.1/DTD/svg11.dtd">
<svg version="1.1" id="Calque_1" xmlns="http://www.w3.org/2000/svg" xmlns:xlink="http://www.w3.org/1999/xlink" x="0px" y="0px"
	 viewBox="0 0 128 128" enable-background="new 0 0 128 128" xml:space="preserve">
<path id="path3047_2_" inkscape:connector-curvature="0" fill="#060606" d="M46.3,42h53.8c2.7,0,4.9,1.4,4.9,4.1
	c0,2.7-2.2,4.1-4.9,4.1H46.3c-2.7,0-4.9-1.4-4.9-4.1C41.5,43.4,43.6,42,46.3,42z M46.3,61.6l62.8,0c2.7,0,4.9,1.4,4.9,4.1
	c0,2.7-3,3.9-5.7,3.9l-62.8,0c-2.7,0-4.1-1.2-4.1-3.9C41.5,62.9,43.6,61.6,46.3,61.6z M46.3,81.1l46.5,0c2.7,0,4.9,1.4,4.9,4.1
	c0,2.7-2.2,4.1-4.9,4.1H46.3c-2.7,0-4.9-1.4-4.9-4.1C41.5,82.5,43.6,81.1,46.3,81.1z M17.8,81.2l5.6,4.9l9.9-12.3l4.4,4.9L25.3,93.3
	h-3.4L14,85.6v-4.4H17.8z M18.2,61.6l5.6,4.9l9.9-12.3l4.4,4.9L25.8,73.8h-3.4L14.4,66v-4.4H18.2z M18.2,42.1l5.6,4.9l9.9-12.3
	l4.4,4.9L25.8,54.2h-3.4l-7.9-7.8v-4.4H18.2z"/>
</svg>
