<?xml version="1.0" encoding="utf-8"?>
<!-- Generator: Adobe Illustrator 18.0.0, SVG Export Plug-In . SVG Version: 6.00 Build 0)  -->
<!DOCTYPE svg PUBLIC "-//W3C//DTD SVG 1.1//EN" "http://www.w3.org/Graphics/SVG/1.1/DTD/svg11.dtd">
<svg version="1.1" id="Calque_1" xmlns="http://www.w3.org/2000/svg" xmlns:xlink="http://www.w3.org/1999/xlink" x="0px" y="0px"
	 viewBox="0 0 128 128" enable-background="new 0 0 128 128" xml:space="preserve">
<path id="path3107_2_" inkscape:connector-curvature="0" fill="#060606" d="M64,23.1c25.1,0,45.5,20.4,45.5,45.5S89.1,114,64,114
	S18.5,93.6,18.5,68.5S38.9,23.1,64,23.1z M64,34.5c-18.8,0-34.1,15.3-34.1,34.1c0,18.8,15.3,34.1,34.1,34.1s34.1-15.3,34.1-34.1
	C98.1,49.7,82.8,34.5,64,34.5z M62.9,43.5c2.5,0,4.5,2,4.5,4.5v17h17c2.5,0,4.5,2,4.5,4.5V72c0,2.5-2,4.5-4.5,4.5H64
	c-2.3-0.4-4.5-0.8-5.9-2.1c-1.3-1.3-1.7-3.6-2.1-5.9V48.1c0-2.5,2-4.5,4.5-4.5L62.9,43.5z M95.8,14c10,0,18.2,8.1,18.2,18.2
	c0,4.3-1.5,8.3-4,11.4C104,32.7,94.3,24.2,82.6,19.7C85.9,16.2,90.6,14,95.8,14z M32.2,14c5.2,0,9.9,2.2,13.2,5.7
	C33.7,24.2,24,32.7,18,43.6c-2.5-3.1-4-7.1-4-11.4C14,22.1,22.1,14,32.2,14z"/>
</svg>
