<?xml version="1.0" encoding="utf-8"?>
<!-- Generator: Adobe Illustrator 18.0.0, SVG Export Plug-In . SVG Version: 6.00 Build 0)  -->
<!DOCTYPE svg PUBLIC "-//W3C//DTD SVG 1.1//EN" "http://www.w3.org/Graphics/SVG/1.1/DTD/svg11.dtd">
<svg version="1.1" id="Calque_1" xmlns="http://www.w3.org/2000/svg" xmlns:xlink="http://www.w3.org/1999/xlink" x="0px" y="0px"
	 viewBox="0 0 128 128" enable-background="new 0 0 128 128" xml:space="preserve">
<g id="text3750" transform="translate(-32.328924,-6.549394)">
	<path id="path3755" inkscape:connector-curvature="0" fill="#060606" d="M102.1,20.5l-1.3,70.9h-9.3l-1.2-70.9H102.1z M96.3,120.5
		c-2.1,0-3.9-0.7-5.4-2.2c-1.5-1.5-2.2-3.3-2.2-5.4c0-2.1,0.7-3.9,2.2-5.4c1.5-1.5,3.3-2.2,5.4-2.2c2.1,0,3.9,0.7,5.4,2.2
		c1.5,1.5,2.3,3.3,2.3,5.4c0,2.1-0.8,3.9-2.3,5.4C100.2,119.8,98.4,120.5,96.3,120.5z"/>
</g>
</svg>
