<?xml version="1.0" encoding="utf-8"?>
<!-- Generator: Adobe Illustrator 18.0.0, SVG Export Plug-In . SVG Version: 6.00 Build 0)  -->
<!DOCTYPE svg PUBLIC "-//W3C//DTD SVG 1.1//EN" "http://www.w3.org/Graphics/SVG/1.1/DTD/svg11.dtd">
<svg version="1.1" id="Calque_1" xmlns="http://www.w3.org/2000/svg" xmlns:xlink="http://www.w3.org/1999/xlink" x="0px" y="0px"
	 viewBox="0 0 128 128" enable-background="new 0 0 128 128" xml:space="preserve">
<g>
	<path id="path3047_3_" sodipodi:nodetypes="ccccccccc" inkscape:connector-curvature="0" fill="#060606" d="M17.9,61.5l5.8,5.1
		l10.3-12.8l4.6,5.1L25.8,74.2h-3.6L14,66.1v-4.6H17.9z"/>
	<path id="path3047-8-1" sodipodi:nodetypes="sssssss" inkscape:connector-curvature="0" fill="#060606" d="M62.5,60.2l1,0
		c2.8,0,5.1,1.4,5.1,4.2s-3.1,4.1-5.9,4.1l-1,0c-2.8,0-4.3-1.3-4.3-4.1S59.7,60.2,62.5,60.2z"/>
	<path id="path3047-8-1-1" sodipodi:nodetypes="sssssss" inkscape:connector-curvature="0" fill="#060606" d="M47.4,60.2l1,0
		c2.8,0,5.1,1.4,5.1,4.2s-3.1,4.1-5.9,4.1l-1,0c-2.8,0-4.3-1.3-4.3-4.1S44.5,60.2,47.4,60.2z"/>
	<path id="path3047-8-1-4" sodipodi:nodetypes="sssssss" inkscape:connector-curvature="0" fill="#060606" d="M77.6,60.2l1,0
		c2.8,0,5.1,1.4,5.1,4.2s-3.1,4.1-5.9,4.1l-1,0c-2.8,0-4.3-1.3-4.3-4.1S74.8,60.2,77.6,60.2z"/>
	<path id="path3047-8-1-2" sodipodi:nodetypes="sssssss" inkscape:connector-curvature="0" fill="#060606" d="M92.8,60.2l1,0
		c2.8,0,5.1,1.4,5.1,4.2s-3.1,4.1-5.9,4.1l-1,0c-2.8,0-4.3-1.3-4.3-4.1S90,60.2,92.8,60.2z"/>
	<path id="path3047-8-1-3" sodipodi:nodetypes="sssssss" inkscape:connector-curvature="0" fill="#060606" d="M107.9,60.2l1,0
		c2.8,0,5.1,1.4,5.1,4.2s-3.1,4.1-5.9,4.1l-1,0c-2.8,0-4.3-1.3-4.3-4.1S105.1,60.2,107.9,60.2z"/>
</g>
</svg>
