<?xml version="1.0" encoding="utf-8"?>
<!-- Generator: Adobe Illustrator 18.0.0, SVG Export Plug-In . SVG Version: 6.00 Build 0)  -->
<!DOCTYPE svg PUBLIC "-//W3C//DTD SVG 1.1//EN" "http://www.w3.org/Graphics/SVG/1.1/DTD/svg11.dtd">
<svg version="1.1" id="Calque_1" xmlns="http://www.w3.org/2000/svg" xmlns:xlink="http://www.w3.org/1999/xlink" x="0px" y="0px"
	 viewBox="0 0 128 128" enable-background="new 0 0 128 128" xml:space="preserve">
<g>
	
		<path id="path3057_2_" sodipodi:nodetypes="ccccssccccssscccccccccssssssssssssssssss" inkscape:connector-curvature="0" fill="#060606" d="
		M14,112.8v-85h12.5v-7.5c0-2.8,2.2-5,5-5h10c2.8,0,5,2.2,5,5v7.5h35l0-7.5c0-2.8,2.2-5,5-5h10c2.8,0,5,2.2,5,5v7.5H114v85H14z
		 M21.5,105.3h85V47.8h-85L21.5,105.3z M90.2,20.3c-2.1,0-3.7,1.7-3.7,3.8v7.5c0,2.1,1.7,3.7,3.7,3.7h2.5c2.1,0,3.7-1.7,3.7-3.7V24
		c0-2.1-1.7-3.8-3.7-3.8H90.2z M35.3,20.3c-2.1,0-3.7,1.7-3.7,3.7v7.5c0,2.1,1.7,3.8,3.7,3.8h2.5c2.1,0,3.7-1.7,3.7-3.8V24
		c0-2.1-1.7-3.7-3.7-3.7L35.3,20.3z"/>
	<g id="text3743">
		<path id="path3748" fill="#060606" d="M59.3,84c-0.2-0.5-0.3-1.2-0.5-2c-0.1-0.8-0.2-1.6-0.2-2.4c0-1.2,0.2-2.4,0.7-3.4
			c0.5-1,1.1-1.9,1.9-2.8c0.7-0.9,1.6-1.7,2.4-2.5c0.9-0.8,1.7-1.6,2.4-2.5c0.7-0.8,1.4-1.7,1.9-2.6c0.5-0.9,0.7-1.9,0.7-3
			c0-0.9-0.2-1.8-0.5-2.5c-0.4-0.7-0.9-1.3-1.5-1.8c-0.6-0.5-1.3-0.9-2.2-1.1c-0.8-0.2-1.7-0.4-2.6-0.4c-3.3,0-6.2,1.3-8.6,3.9v-5.2
			c3-1.9,6.1-2.8,9.3-2.8c1.5,0,2.9,0.2,4.2,0.6c1.3,0.4,2.5,1,3.4,1.7c1,0.8,1.8,1.7,2.3,2.9c0.6,1.2,0.8,2.5,0.8,4
			c0,1.4-0.3,2.7-0.8,3.9c-0.5,1.1-1.1,2.2-1.9,3.1c-0.8,0.9-1.6,1.8-2.5,2.7c-0.9,0.8-1.7,1.6-2.5,2.4c-0.8,0.8-1.4,1.7-1.9,2.5
			c-0.5,0.9-0.8,1.8-0.8,2.9c0,0.9,0.1,1.7,0.3,2.4c0.2,0.7,0.4,1.4,0.6,1.9H59.3z M61.9,96.2c-0.9,0-1.6-0.3-2.3-0.9
			c-0.6-0.6-1-1.4-1-2.3c0-0.9,0.3-1.7,1-2.3c0.6-0.6,1.4-1,2.3-1c0.9,0,1.6,0.3,2.3,1c0.6,0.6,1,1.4,1,2.3c0,0.9-0.3,1.7-1,2.3
			C63.5,95.9,62.8,96.2,61.9,96.2z"/>
	</g>
</g>
</svg>
