<?xml version="1.0" encoding="UTF-8" standalone="no"?>
<svg
   xmlns:dc="http://purl.org/dc/elements/1.1/"
   xmlns:cc="http://creativecommons.org/ns#"
   xmlns:rdf="http://www.w3.org/1999/02/22-rdf-syntax-ns#"
   xmlns:svg="http://www.w3.org/2000/svg"
   xmlns="http://www.w3.org/2000/svg"
   xmlns:sodipodi="http://sodipodi.sourceforge.net/DTD/sodipodi-0.dtd"
   xmlns:inkscape="http://www.inkscape.org/namespaces/inkscape"
   overflow="visible"
   id="svg3025"
   version="1.1"
   inkscape:version="0.48.4 r9939"
   width="100%"
   height="100%"
   sodipodi:docname="img04.svg">
  <metadata
     id="metadata3033">
    <rdf:RDF>
      <cc:Work
         rdf:about="">
        <dc:format>image/svg+xml</dc:format>
        <dc:type
           rdf:resource="http://purl.org/dc/dcmitype/StillImage" />
        <dc:title />
      </cc:Work>
    </rdf:RDF>
  </metadata>
  <defs
     id="defs3031" />
  <sodipodi:namedview
     pagecolor="#ffffff"
     bordercolor="#666666"
     borderopacity="1"
     objecttolerance="10"
     gridtolerance="10"
     guidetolerance="10"
     inkscape:pageopacity="0"
     inkscape:pageshadow="2"
     inkscape:window-width="640"
     inkscape:window-height="480"
     id="namedview3029"
     showgrid="false"
     inkscape:zoom="1.7940592"
     inkscape:cx="56.781463"
     inkscape:cy="1008.8981"
     inkscape:window-x="887"
     inkscape:window-y="208"
     inkscape:window-maximized="0"
     inkscape:current-layer="svg3025" />
  <path
     d="m 20.5834,6.3947368 c 3.1667,-10.6875 17.4167,-4.75 17.4167,-4.75 l -1e-4,1.9792 0,1.159 3.1667,-0.7631 -10e-5,24.1458002 c 0,0 -17.4166,0.7916 -20.5832,6.3333 C 17.4167,28.957237 0,28.165637 0,28.165637 l 0,-24.1459002 3.1667,0.7631 0,-1.1589 0,-1.9791 c 0,0 14.25,-5.9376 17.4167,4.7499 z M 36.4166,23.832637 36.4167,4.0693368 c -4.75,-0.4454 -9.5,-3.61209996 -15.0416,3.9741 L 21.375,28.922937 c 2.7257,-3.41 10.6181,-3.7873 15.0416,-5.0903 z M 4.75,4.0693368 l 0,19.7633002 c 4.4235,1.303 12.3159,1.6803 15.0417,5.0903 l 0,-20.8795002 C 14.2501,0.45723684 9.5001,3.6239368 4.75,4.0693368 z"
     id="path3027"
     inkscape:connector-curvature="0"
     style="fill:#000000;fill-rule:nonzero" />
</svg>
