<?xml version="1.0" encoding="UTF-8" standalone="no"?>
<svg
   xmlns:dc="http://purl.org/dc/elements/1.1/"
   xmlns:cc="http://creativecommons.org/ns#"
   xmlns:rdf="http://www.w3.org/1999/02/22-rdf-syntax-ns#"
   xmlns:svg="http://www.w3.org/2000/svg"
   xmlns="http://www.w3.org/2000/svg"
   xmlns:sodipodi="http://sodipodi.sourceforge.net/DTD/sodipodi-0.dtd"
   xmlns:inkscape="http://www.inkscape.org/namespaces/inkscape"
   overflow="visible"
   id="svg3075"
   version="1.1"
   inkscape:version="0.48.4 r9939"
   width="100%"
   height="100%"
   sodipodi:docname="img03.svg">
  <metadata
     id="metadata3083">
    <rdf:RDF>
      <cc:Work
         rdf:about="">
        <dc:format>image/svg+xml</dc:format>
        <dc:type
           rdf:resource="http://purl.org/dc/dcmitype/StillImage" />
        <dc:title />
      </cc:Work>
    </rdf:RDF>
  </metadata>
  <defs
     id="defs3081" />
  <sodipodi:namedview
     pagecolor="#ffffff"
     bordercolor="#666666"
     borderopacity="1"
     objecttolerance="10"
     gridtolerance="10"
     guidetolerance="10"
     inkscape:pageopacity="0"
     inkscape:pageshadow="2"
     inkscape:window-width="640"
     inkscape:window-height="480"
     id="namedview3079"
     showgrid="false"
     inkscape:zoom="5.0743656"
     inkscape:cx="17.860021"
     inkscape:cy="1041.3077"
     inkscape:window-x="274"
     inkscape:window-y="318"
     inkscape:window-maximized="0"
     inkscape:current-layer="svg3075" />
  <path
     d="m 19.00001,-0.01653348 19,0 0,3.16670088 -19,0 0,-3.16670088 z m 20.5833,11.08341348 15.8333,0 0,3.166703 -15.8333,0 0,-3.166703 z m -20.5833,-6.3333098 6.3333,0 6.3333,0 6.3334,0 0,26.9166128 -6.3334,0 0,-9.5 -6.3333,0 0,9.5 -6.3333,0 0,-26.9166128 z m 20.5833,26.9166128 0,-15.8333 4.75,0 6.3333,0 4.75,0 0,15.8333 -4.75,0 0,-7.9167 -6.3333,0 0,7.9167 -4.75,0 z m -38,0 0,-7.9167 0,-3.1666 8.7084,-6.3333 7.125,6.3333 0,3.1666 0,7.9167 -4.75,0 0,-7.9167 -6.3334,0 0,7.9167 -4.75,0 z m 8.7083,-22.562508 7.125,6.333408 0,3.1666 -7.125,-6.3333 L 0,19.775183 0,16.608583 10.29161,9.087675 z"
     id="path3077"
     inkscape:connector-curvature="0"
     style="fill:#000000;fill-rule:nonzero" />
</svg>
