<?xml version="1.0" encoding="UTF-8" standalone="no"?>
<svg
   xmlns:dc="http://purl.org/dc/elements/1.1/"
   xmlns:cc="http://creativecommons.org/ns#"
   xmlns:rdf="http://www.w3.org/1999/02/22-rdf-syntax-ns#"
   xmlns:svg="http://www.w3.org/2000/svg"
   xmlns="http://www.w3.org/2000/svg"
   xmlns:sodipodi="http://sodipodi.sourceforge.net/DTD/sodipodi-0.dtd"
   xmlns:inkscape="http://www.inkscape.org/namespaces/inkscape"
   overflow="visible"
   id="svg3045"
   version="1.1"
   inkscape:version="0.48.4 r9939"
   width="100%"
   height="100%"
   sodipodi:docname="img06.svg">
  <metadata
     id="metadata3053">
    <rdf:RDF>
      <cc:Work
         rdf:about="">
        <dc:format>image/svg+xml</dc:format>
        <dc:type
           rdf:resource="http://purl.org/dc/dcmitype/StillImage" />
        <dc:title />
      </cc:Work>
    </rdf:RDF>
  </metadata>
  <defs
     id="defs3051" />
  <sodipodi:namedview
     pagecolor="#ffffff"
     bordercolor="#666666"
     borderopacity="1"
     objecttolerance="10"
     gridtolerance="10"
     guidetolerance="10"
     inkscape:pageopacity="0"
     inkscape:pageshadow="2"
     inkscape:window-width="640"
     inkscape:window-height="480"
     id="namedview3049"
     showgrid="false"
     inkscape:zoom="2.5371828"
     inkscape:cx="-2.0524173"
     inkscape:cy="1008.1608"
     inkscape:window-x="0"
     inkscape:window-y="0"
     inkscape:window-maximized="0"
     inkscape:current-layer="svg3045" />
  <path
     d="m 15.896096,3.6643237 26.1249,0 c 1.3117,0 2.375,0.6675 2.375,1.9792 0,1.3116 -1.0633,1.9791 -2.375,1.9791 l -26.1249,0 c -1.3117,0 -2.375,-0.6675 -2.375,-1.9792 0,-1.3117 1.0633,-1.9791 2.375,-1.9791 z m -10e-5,9.4999003 30.4791,10e-5 c 1.3117,0 2.375,0.6675 2.375,1.9792 0,1.3117 -1.4505,1.8969 -2.7622,1.8969 l -30.479,-1e-4 c -1.3117,0 -1.9879,-0.5852 -1.9879,-1.8969 0,-1.3117 1.0634,-1.9792 2.375,-1.9792 z m 10e-5,9.5 22.5623,10e-5 c 1.3117,0 2.375,0.6675 2.375,1.9791 0,1.3117 -1.0633,1.9792 -2.375,1.9792 l -22.5623,0 c -1.3117,0 -2.375,-0.6675 -2.375,-1.9792 0,-1.3117 1.0633,-1.9792 2.375,-1.9792 z m -13.8669997,0.0383 2.707,2.3878 4.8266,-5.9886 2.1578997,2.3878 -6.0267997,7.1122 -1.6727,0 -3.83070005,-3.7634 0,-2.1358 1.83870005,0 z m 0.2171,-9.5 2.707,2.3878 4.8266,-5.9886003 2.1578997,2.3878003 -6.0267997,7.1122 -1.6727,0 -3.83070005,-3.7634 0,-2.1358 1.83870005,0 z m 0,-9.5000003 2.707,2.3877 4.8266,-5.98850005 2.1578997,2.38780005 -6.0267997,7.1122 -1.6727,0 -3.83070005,-3.7634 0,-2.1358 1.83870005,0 z"
     id="path3047"
     inkscape:connector-curvature="0"
     style="fill:#000000;fill-rule:nonzero" />
</svg>
