<?xml version="1.0" encoding="UTF-8" standalone="no"?>
<svg
   xmlns:dc="http://purl.org/dc/elements/1.1/"
   xmlns:cc="http://creativecommons.org/ns#"
   xmlns:rdf="http://www.w3.org/1999/02/22-rdf-syntax-ns#"
   xmlns:svg="http://www.w3.org/2000/svg"
   xmlns="http://www.w3.org/2000/svg"
   xmlns:sodipodi="http://sodipodi.sourceforge.net/DTD/sodipodi-0.dtd"
   xmlns:inkscape="http://www.inkscape.org/namespaces/inkscape"
   overflow="visible"
   id="svg3115"
   version="1.1"
   inkscape:version="0.48.4 r9939"
   width="100%"
   height="100%"
   sodipodi:docname="a.xaml">
  <metadata
     id="metadata3123">
    <rdf:RDF>
      <cc:Work
         rdf:about="">
        <dc:format>image/svg+xml</dc:format>
        <dc:type
           rdf:resource="http://purl.org/dc/dcmitype/StillImage" />
        <dc:title></dc:title>
      </cc:Work>
    </rdf:RDF>
  </metadata>
  <defs
     id="defs3121" />
  <sodipodi:namedview
     pagecolor="#ffffff"
     bordercolor="#666666"
     borderopacity="1"
     objecttolerance="10"
     gridtolerance="10"
     guidetolerance="10"
     inkscape:pageopacity="0"
     inkscape:pageshadow="2"
     inkscape:window-width="640"
     inkscape:window-height="480"
     id="namedview3119"
     showgrid="false"
     inkscape:zoom="3.5881183"
     inkscape:cx="45.648377"
     inkscape:cy="1044.3722"
     inkscape:window-x="0"
     inkscape:window-y="0"
     inkscape:window-maximized="0"
     inkscape:current-layer="svg3115" />
  <path
     d="m 36.754795,41.330338 c 0,1.4756 -1.1963,2.6719 -2.6719,2.6719 -1.4757,0 -2.6719,-1.1963 -2.6719,-2.6719 l 0,-8.6391 -3.689,-5.1176 -1.9209,5.2228 c -0.1082,0.3736 -0.2909,0.7055 -0.5272,0.9841 l -0.4721,0.8097 -6.0483,7.1323 c -0.9545,1.1254 -2.6405,1.264 -3.7659,0.3096 -1.1255,-0.9544 -1.2641,-2.6404 -0.3097,-3.7659 l 6.0484,-7.1322 0.0117,-0.0137 2.7721,-7.5371 -0.1147,-0.956 0,-9.3516 c 0,-2.2134 1.7943,-4.0077995 4.0078,-4.0077995 1.5343,0 2.8673,0.8621995 3.5408,2.1284995 l 4.663,4.4868 6.0186,1.4918 c 1.0742,0.2662 1.7292,1.3529 1.463,2.4271 -0.2663,1.0742 -1.353,1.7292 -2.4272,1.463 l -6.1297,-1.5193 c -0.366,-0.0907 -0.6833,-0.2766 -0.9321,-0.5249 -0.2876,-0.0896 -0.5592,-0.2458 -0.7911,-0.4689 l -1.3975,-1.3446 0,5.2199 -0.0824,0.8123 4.9931,6.9268 c 0.4298,0.6158 0.5642,1.3495 0.433,2.033 l 1e-4,8.931 z M 26.067195,0.06473847 c 2.2135,0 4.0078,1.79430003 4.0078,4.00780003 0,2.2135 -1.7943,4.0078 -4.0078,4.0078 -2.2134,0 -4.0078,-1.7943 -4.0078,-4.0078 0,-2.2135 1.7944,-4.00780003 4.0078,-4.00780003 z m 20.3551,19.81939953 5.0989,9.3928 -5.8704,3.1868 -5.099,-9.3927 5.8705,-3.1869 z m -1.9456,13.217 c -1.2969,0.704 -2.919,0.2234 -3.623,-1.0735 l -2.5494,-4.6964 c -0.704,-1.2968 -0.2234,-2.9189 1.0734,-3.6229 l 5.099,9.3928 z m 3.1197,-13.8543 c 1.2969,-0.704 2.9189,-0.2234 3.6229,1.0734 l 2.5495,4.6964 c 0.704,1.2969 0.2234,2.9189 -1.0735,3.6229 l -5.0989,-9.3927 z m -31.036,-3.7446 c 1.3117,0 2.375,1.0634 2.375,2.3751 0,1.3116 -1.0633,2.375 -2.375,2.375 l -7.9166995,0 c -1.3116,0 -2.375,-1.0634 -2.375,-2.375 0,-1.3117 1.0634,-2.3751 2.375,-2.3751 l 7.9166995,0 z m -1.9791,7.9166 c 1.3116,0 2.375,1.0634 2.375,2.375 0,1.3117 -1.0634,2.375 -2.375,2.375 l -8.7083995,0 c -1.3116,0 -2.375,-1.0633 -2.375,-2.375 0,-1.3116 1.0634,-2.375 2.375,-2.375 l 8.7083995,0 z m -4.3542,7.9167 c 1.3117,0 2.375,1.0633 2.375,2.375 0,1.3117 -1.0633,2.375 -2.375,2.375 l -7.9166995,0 c -1.3116,0 -2.375,-1.0633 -2.375,-2.375 0,-1.3117 1.0634,-2.375 2.375,-2.375 l 7.9166995,0 z"
     id="path3117"
     inkscape:connector-curvature="0"
     style="fill:#000000;fill-rule:nonzero" />
</svg>
