<?xml version="1.0" encoding="UTF-8" standalone="no"?>
<svg
   xmlns:dc="http://purl.org/dc/elements/1.1/"
   xmlns:cc="http://creativecommons.org/ns#"
   xmlns:rdf="http://www.w3.org/1999/02/22-rdf-syntax-ns#"
   xmlns:svg="http://www.w3.org/2000/svg"
   xmlns="http://www.w3.org/2000/svg"
   xmlns:sodipodi="http://sodipodi.sourceforge.net/DTD/sodipodi-0.dtd"
   xmlns:inkscape="http://www.inkscape.org/namespaces/inkscape"
   overflow="visible"
   id="svg3085"
   version="1.1"
   inkscape:version="0.48.4 r9939"
   width="100%"
   height="100%"
   sodipodi:docname="img10.svg">
  <metadata
     id="metadata3093">
    <rdf:RDF>
      <cc:Work
         rdf:about="">
        <dc:format>image/svg+xml</dc:format>
        <dc:type
           rdf:resource="http://purl.org/dc/dcmitype/StillImage" />
        <dc:title />
      </cc:Work>
    </rdf:RDF>
  </metadata>
  <defs
     id="defs3091" />
  <sodipodi:namedview
     pagecolor="#ffffff"
     bordercolor="#666666"
     borderopacity="1"
     objecttolerance="10"
     gridtolerance="10"
     guidetolerance="10"
     inkscape:pageopacity="0"
     inkscape:pageshadow="2"
     inkscape:window-width="640"
     inkscape:window-height="480"
     id="namedview3089"
     showgrid="false"
     inkscape:zoom="3.5881183"
     inkscape:cx="56.384327"
     inkscape:cy="1019.3556"
     inkscape:window-x="0"
     inkscape:window-y="0"
     inkscape:window-maximized="0"
     inkscape:current-layer="svg3085" />
  <path
     d="m 17.376377,0.13744797 c -4.3722,0 -7.9167004,3.54440003 -7.9167004,7.91660003 0,4.3723 3.5445004,7.9167 7.9167004,7.9167 4.3723,0 7.9167,-3.5444 7.9167,-7.9167 0,-4.3722 -3.5445,-7.91660003 -7.9167,-7.91660003 z M 9.4596766,27.054048 l -0.6059,13.7027 c 2.8153004,1.3651 5.9754004,2.1307 9.3143004,2.1307 2.7391,0 5.3579,-0.5152 7.7647,-1.4541 l -0.6397,-14.3793 c 1.0555,0.5278 3.1667,4.75 3.1667,4.75 0,0 1.0555,1.5834 1.5833,7.9167 l 4.7499,-1.5833 -1.5833,-7.9167 c 0,0 -3.1666,-11.0833 -9.5001,-11.0832 l -12.6666,0 c -6.3333004,-10e-5 -9.4999004,11.0832 -9.4999004,11.0832 l -1.58339999,7.9166 4.74999999,1.5833 c 0.5278,-6.3333 1.5834,-7.9167 1.5834,-7.9167 0,0 2.1111,-4.2221 3.1666,-4.7499 z"
     id="path3087"
     inkscape:connector-curvature="0"
     style="fill:#000000;fill-rule:nonzero" />
</svg>
