<?xml version="1.0" encoding="UTF-8" standalone="no"?>
<svg
   xmlns:dc="http://purl.org/dc/elements/1.1/"
   xmlns:cc="http://creativecommons.org/ns#"
   xmlns:rdf="http://www.w3.org/1999/02/22-rdf-syntax-ns#"
   xmlns:svg="http://www.w3.org/2000/svg"
   xmlns="http://www.w3.org/2000/svg"
   xmlns:sodipodi="http://sodipodi.sourceforge.net/DTD/sodipodi-0.dtd"
   xmlns:inkscape="http://www.inkscape.org/namespaces/inkscape"
   overflow="visible"
   id="svg3085"
   version="1.1"
   inkscape:version="0.48.4 r9939"
   width="100%"
   height="100%"
   sodipodi:docname="a.xaml">
  <metadata
     id="metadata3093">
    <rdf:RDF>
      <cc:Work
         rdf:about="">
        <dc:format>image/svg+xml</dc:format>
        <dc:type
           rdf:resource="http://purl.org/dc/dcmitype/StillImage" />
        <dc:title></dc:title>
      </cc:Work>
    </rdf:RDF>
  </metadata>
  <defs
     id="defs3091" />
  <sodipodi:namedview
     pagecolor="#ffffff"
     bordercolor="#666666"
     borderopacity="1"
     objecttolerance="10"
     gridtolerance="10"
     guidetolerance="10"
     inkscape:pageopacity="0"
     inkscape:pageshadow="2"
     inkscape:window-width="640"
     inkscape:window-height="480"
     id="namedview3089"
     showgrid="false"
     inkscape:zoom="5.0743655"
     inkscape:cx="34.400621"
     inkscape:cy="1027.0863"
     inkscape:window-x="823"
     inkscape:window-y="297"
     inkscape:window-maximized="0"
     inkscape:current-layer="svg3085" />
  <path
     d="m 22.435424,19.836155 0.7558,-5.1293 c -0.3855,-0.0725 -0.8289,-0.1155 -1.3301,-0.1291 l -0.8465,0.0797 c -1.365,0.3284 -2.5333,1.0973 -3.5049,2.3069 -1.0333,1.2863 -1.6642,2.8158 -1.8927,4.5886 l -0.0184,0.4759 c 0.0012,1.1151 0.2414,1.9908 0.7548,2.6714 0.4425,0.3459 1.0101,0.5232 1.7029,0.5321 1.0938,-0.0416 2.1021,-0.6405 3.0247,-1.7967 l 0.3525,-0.4791 c 0.4723,-0.9047 0.8062,-1.9448 1.0019,-3.1204 z m -17.5652,14.3465 c -2.9218,-2.9537 -4.4535,-6.9933 -4.5952,-12.1188 0.0667,-4.4236 1.1545,-8.3177 3.2633,-11.6821 0.8233,-1.4547004 1.8285,-2.8151004 3.0157,-4.0811004 3.7817,-4.0331 8.8713,-6.1311 15.2689,-6.2941 5.1246,0.079 9.2079,1.571 12.25,4.4763 0.1536,0.1466 0.3034,0.2957 0.4495,0.4472 1.3592,1.3105 2.4187,2.8108 3.1785,4.5008 1.1294,2.2295004 1.7166,4.8022004 1.7616,7.7182004 -0.0521,4.3109 -1.0439,7.6797 -2.9754,10.1066 -1.9315,2.4269 -4.4902,3.6612 -7.6759,3.703 -0.7678,-7e-4 -1.4596,-0.1101 -2.0753,-0.3281 -0.723,-0.1648 -1.354,-0.4612 -1.8929,-0.8892 -0.187,-0.1484 -0.3576,-0.3123 -0.512,-0.4918 -0.5282,-0.4546 -0.9163,-1.0426 -1.1644,-1.7639 -1.8098,2.3149 -4.1452,3.4892 -7.0061,3.5227 -1.0182,-0.0065 -1.9317,-0.2117 -2.7405,-0.6157 -0.7562,-0.3107 -1.4262,-0.7852 -2.0098,-1.4236 -0.1582,-0.1442 -0.3108,-0.2991 -0.4579,-0.4646 -1.1353,-1.2779 -1.721,-3.1201 -1.757,-5.5266 0.0287,-2.8037 0.737,-5.2817 2.125,-7.4339 0.5057,-0.9215 1.1275,-1.7874 1.8652,-2.5977 2.3084,-2.5357 5.53,-3.8592004 9.6647,-3.9705004 1.2924,0.0105 2.5598,0.1432 3.8023,0.3981 1.2424,0.255 2.2388,0.5693 2.989,0.9430004 l -0.0324,0.2001 c 0.1507,0.0633 0.2934,0.1285 0.4283,0.1957 l -0.0846,0.5214 0.2511,0.1188 -1.7409,10.7332 c -0.2124,1.1561 -0.295,2.1138 -0.2477,2.8731 0.0702,0.2566 0.1657,0.4746 0.2865,0.6539 0.2349,0.1526 0.5197,0.2288 0.8544,0.2288 1.3043,0.06 2.5338,-0.7047 3.7717,-2.4113 0.7983,-1.5566 1.2293,-3.6915 1.2932,-6.4048 -0.0153,-3.7312 -1.1492,-6.7798 -3.4019,-9.1457004 -2.3079,-2.1899 -5.5889,-3.3208 -9.843,-3.3926 -3.1863,0.0316 -6.0229,0.8294 -8.5098,2.3934 -0.8896,0.5932 -1.7341,1.2853 -2.5334,2.0765 -1.6692,1.6523004 -2.9145,3.6603004 -3.7359,6.0240004 -0.5701,1.8815 -0.8826,3.9791 -0.9377,6.2928 0.0727,4.4221 1.2644,7.8472 3.6602,10.3555 2.6265,2.4484 6.0619,3.6794 10.3064,3.6931 1.4779,-0.0023 2.945,-0.1451 4.4015,-0.4284 1.4565,-0.2834 2.7667,-0.6939 3.9307,-1.2316 l 0.1378,0.5119 c 0.0868,-0.038 0.1728,-0.0767 0.2581,-0.1161 l 0.8394,3.1193 0.3399,1.0062 c -1.707,0.7191 -3.3996,1.2254 -5.0776,1.5191 -1.6781,0.2937 -3.5448,0.4355 -5.6,0.4254 -4.8581,-0.0376 -9.006,-1.5823 -12.4437,-4.6342 l -0.946,-0.9159 c -0.0677,-0.0683 -0.1345,-0.1373 -0.2007,-0.2068 l -0.1952,-0.189 z"
     id="path3087"
     inkscape:connector-curvature="0"
     style="fill:#000000;fill-rule:nonzero" />
</svg>
