<?xml version="1.0" encoding="UTF-8" standalone="no"?>
<svg
   xmlns:dc="http://purl.org/dc/elements/1.1/"
   xmlns:cc="http://creativecommons.org/ns#"
   xmlns:rdf="http://www.w3.org/1999/02/22-rdf-syntax-ns#"
   xmlns:svg="http://www.w3.org/2000/svg"
   xmlns="http://www.w3.org/2000/svg"
   xmlns:sodipodi="http://sodipodi.sourceforge.net/DTD/sodipodi-0.dtd"
   xmlns:inkscape="http://www.inkscape.org/namespaces/inkscape"
   overflow="visible"
   id="svg3105"
   version="1.1"
   inkscape:version="0.48.4 r9939"
   width="100%"
   height="100%"
   sodipodi:docname="img16.svg">
  <metadata
     id="metadata3113">
    <rdf:RDF>
      <cc:Work
         rdf:about="">
        <dc:format>image/svg+xml</dc:format>
        <dc:type
           rdf:resource="http://purl.org/dc/dcmitype/StillImage" />
        <dc:title />
      </cc:Work>
    </rdf:RDF>
  </metadata>
  <defs
     id="defs3111" />
  <sodipodi:namedview
     pagecolor="#ffffff"
     bordercolor="#666666"
     borderopacity="1"
     objecttolerance="10"
     gridtolerance="10"
     guidetolerance="10"
     inkscape:pageopacity="0"
     inkscape:pageshadow="2"
     inkscape:window-width="640"
     inkscape:window-height="480"
     id="namedview3109"
     showgrid="false"
     inkscape:zoom="3.5881183"
     inkscape:cx="62.040904"
     inkscape:cy="1027.2712"
     inkscape:window-x="821"
     inkscape:window-y="295"
     inkscape:window-maximized="0"
     inkscape:current-layer="svg3105" />
  <path
     d="m 9.7665173,43.166146 0,-2.7709 6.3333997,1.1875 0,1.5834 -6.3333997,0 z m -3.1667,-5.1458 0,-2.7709 12.6666997,1.5834 0,2.7708 -12.6666997,-1.5833 z m 12.6666997,-3.1667 -12.6666997,-1.5833 0,-2.7709 12.6666997,1.5834 0,2.7708 z m -6.3333,-34.43750037 c 6.9956,0 12.6667,6.02549997 12.6667,13.45830037 0,4.9815 -6.3334,9.8574 -6.3334,11.6579 l 0,4.9671 -12.6665997,-1.5833 0,-3.3838 c 0,-1.3662 -6.33339998,-6.6764 -6.33339998,-11.6579 0,-7.4328004 5.67109998,-13.45830037 12.66669968,-13.45830037 z"
     id="path3107"
     inkscape:connector-curvature="0"
     style="fill:#000000;fill-rule:nonzero" />
</svg>
