<?xml version="1.0" encoding="UTF-8" standalone="no"?>
<svg
   xmlns:dc="http://purl.org/dc/elements/1.1/"
   xmlns:cc="http://creativecommons.org/ns#"
   xmlns:rdf="http://www.w3.org/1999/02/22-rdf-syntax-ns#"
   xmlns:svg="http://www.w3.org/2000/svg"
   xmlns="http://www.w3.org/2000/svg"
   xmlns:sodipodi="http://sodipodi.sourceforge.net/DTD/sodipodi-0.dtd"
   xmlns:inkscape="http://www.inkscape.org/namespaces/inkscape"
   overflow="visible"
   id="svg3145"
   version="1.1"
   inkscape:version="0.48.4 r9939"
   width="100%"
   height="100%"
   sodipodi:docname="a.xaml">
  <metadata
     id="metadata3153">
    <rdf:RDF>
      <cc:Work
         rdf:about="">
        <dc:format>image/svg+xml</dc:format>
        <dc:type
           rdf:resource="http://purl.org/dc/dcmitype/StillImage" />
        <dc:title></dc:title>
      </cc:Work>
    </rdf:RDF>
  </metadata>
  <defs
     id="defs3151" />
  <sodipodi:namedview
     pagecolor="#ffffff"
     bordercolor="#666666"
     borderopacity="1"
     objecttolerance="10"
     gridtolerance="10"
     guidetolerance="10"
     inkscape:pageopacity="0"
     inkscape:pageshadow="2"
     inkscape:window-width="640"
     inkscape:window-height="480"
     id="namedview3149"
     showgrid="false"
     inkscape:zoom="2.5371828"
     inkscape:cx="39.414932"
     inkscape:cy="1050.7005"
     inkscape:window-x="0"
     inkscape:window-y="0"
     inkscape:window-maximized="0"
     inkscape:current-layer="svg3145" />
  <path
     d="m 20.258706,-0.1599039 c 0,6.3333 -2.7709,12.2707999 -2.7709,10.6874999 0,-1.5832999 -3.1666,4.75 -4.75,7.9167 -1.5833,3.1666 -3.1665996,7.5208 -3.1665996,7.5208 l -6.3333,-0.3958 c 0,0 -1.5834,13.8541 1.5833,15.4375 3.1667,1.5833 6.4640996,-0.6341 9.4999996,1.1875 7.9166,4.75 20.5833,1.5833 19,-1.5834 0,0 6.3333,-3.1666 4.75,-4.75 0,0 1.5833,-2.375 -0.3958,-4.75 1.9791,-2.375 1.1875,-4.75 0,-6.3333 1.1875,-2.375 1.9791,-4.75 -2.7709,-6.3333 -3.0041,-1.0014 -11.0833,2.7708 -11.0833,-1.5834 0,-1.5833 3.1666,-6.3333 3.1666,-9.4999999 0,-6.3333 -6.7291,-7.5208 -6.7291,-7.5208 z"
     id="path3147"
     inkscape:connector-curvature="0"
     style="fill:#000000;fill-rule:nonzero" />
</svg>
