<?xml version="1.0" encoding="UTF-8" standalone="no"?>
<svg
   xmlns:dc="http://purl.org/dc/elements/1.1/"
   xmlns:cc="http://creativecommons.org/ns#"
   xmlns:rdf="http://www.w3.org/1999/02/22-rdf-syntax-ns#"
   xmlns:svg="http://www.w3.org/2000/svg"
   xmlns="http://www.w3.org/2000/svg"
   xmlns:sodipodi="http://sodipodi.sourceforge.net/DTD/sodipodi-0.dtd"
   xmlns:inkscape="http://www.inkscape.org/namespaces/inkscape"
   overflow="visible"
   id="svg3225"
   version="1.1"
   inkscape:version="0.48.4 r9939"
   width="100%"
   height="100%"
   sodipodi:docname="a.xaml">
  <metadata
     id="metadata3233">
    <rdf:RDF>
      <cc:Work
         rdf:about="">
        <dc:format>image/svg+xml</dc:format>
        <dc:type
           rdf:resource="http://purl.org/dc/dcmitype/StillImage" />
        <dc:title></dc:title>
      </cc:Work>
    </rdf:RDF>
  </metadata>
  <defs
     id="defs3231" />
  <sodipodi:namedview
     pagecolor="#ffffff"
     bordercolor="#666666"
     borderopacity="1"
     objecttolerance="10"
     gridtolerance="10"
     guidetolerance="10"
     inkscape:pageopacity="0"
     inkscape:pageshadow="2"
     inkscape:window-width="640"
     inkscape:window-height="480"
     id="namedview3229"
     showgrid="false"
     inkscape:zoom="3.5881183"
     inkscape:cx="24.407356"
     inkscape:cy="1017.8209"
     inkscape:window-x="0"
     inkscape:window-y="0"
     inkscape:window-maximized="0"
     inkscape:current-layer="svg3225" />
  <path
     d="m 43.980135,11.905827 -3.448,-8.806 c -0.658,-1.703 -2.088,-3.15899999 -4.777,-3.15899999 l -4.949,0 -8.427,0 -5.004,0 c -2.691,0 -4.12,1.45599999 -4.777,3.15899999 l -3.4480003,8.806 -3.935,0 0,12.246 0.034,0 0,4.114 3.406,0 0,3.635 c 0,4.477 6.4000003,4.423 6.4000003,0 l 0,-3.635 11.506,0 0.008,0 11.51,0 0,3.635 c 0,4.423 6.396,4.477 6.396,0 l 0,-3.635 3.406,0 0,-4.114 0,-7.266 0,-4.98 -3.901,0 z m -32.023,9.406 c -1.632,0 -2.9540003,-1.35 -2.9540003,-3.016 0,-1.665 1.3220003,-3.017 2.9540003,-3.017 1.634,0 2.956,1.352 2.956,3.017 0,1.666 -1.322,3.016 -2.956,3.016 z m 14.612,-9.481 -0.007,0 -0.006,0 -13.833,0 2.634,-6.917 c 0.332,-0.989 0.824,-1.704 1.978,-1.714 l 9.221,0 0.006,0 0.007,0 9.226,0 c 1.153,0.01 1.646,0.725 1.977,1.714 l 2.639,6.917 -13.842,0 z m 14.603,9.481 c -1.632,0 -2.955,-1.35 -2.955,-3.016 0,-1.665 1.323,-3.017 2.955,-3.017 1.634,0 2.956,1.352 2.956,3.017 0,1.666 -1.322,3.016 -2.956,3.016 z"
     id="path3227"
     inkscape:connector-curvature="0"
     style="fill:#000000" />
</svg>
