<?xml version="1.0" encoding="UTF-8" standalone="no"?>
<svg
   xmlns:dc="http://purl.org/dc/elements/1.1/"
   xmlns:cc="http://creativecommons.org/ns#"
   xmlns:rdf="http://www.w3.org/1999/02/22-rdf-syntax-ns#"
   xmlns:svg="http://www.w3.org/2000/svg"
   xmlns="http://www.w3.org/2000/svg"
   xmlns:sodipodi="http://sodipodi.sourceforge.net/DTD/sodipodi-0.dtd"
   xmlns:inkscape="http://www.inkscape.org/namespaces/inkscape"
   overflow="visible"
   id="svg3235"
   version="1.1"
   inkscape:version="0.48.4 r9939"
   width="100%"
   height="100%"
   sodipodi:docname="a.xaml">
  <metadata
     id="metadata3243">
    <rdf:RDF>
      <cc:Work
         rdf:about="">
        <dc:format>image/svg+xml</dc:format>
        <dc:type
           rdf:resource="http://purl.org/dc/dcmitype/StillImage" />
        <dc:title></dc:title>
      </cc:Work>
    </rdf:RDF>
  </metadata>
  <defs
     id="defs3241" />
  <sodipodi:namedview
     pagecolor="#ffffff"
     bordercolor="#666666"
     borderopacity="1"
     objecttolerance="10"
     gridtolerance="10"
     guidetolerance="10"
     inkscape:pageopacity="0"
     inkscape:pageshadow="2"
     inkscape:window-width="640"
     inkscape:window-height="480"
     id="namedview3239"
     showgrid="false"
     inkscape:zoom="3.5881183"
     inkscape:cx="9.8352006"
     inkscape:cy="1030.0932"
     inkscape:window-x="0"
     inkscape:window-y="0"
     inkscape:window-maximized="0"
     inkscape:current-layer="svg3235" />
  <path
     d="M17.099982,16.20401L34.266981,16.20401 34.266981,18.89901 17.099982,18.89901z M14.053982,10.75501L36.317982,10.75501 36.317982,13.45001 14.053982,13.45001z M0.67000008,0L6.9869986,1.4330082 7.4139986,2.5930147 7.4130716,2.5935116 14.808873,22.069011 36.276239,22.069011 39.940575,6.0790195 42.666985,6.7039852 38.623377,24.348001 38.533981,24.327541 38.533981,24.86601 15.871031,24.86601 17.193412,28.34826 17.19502,28.348138C17.262076,28.344734 17.329573,28.343012 17.397471,28.343012 18.891221,28.343012 20.191679,29.17667 20.858591,30.403734L20.942261,30.56701 29.598175,30.56701 29.68175,30.403734C30.34793,29.17667 31.647352,28.343012 33.141983,28.343012 35.31599,28.343012 37.077997,30.106785 37.077997,32.279505 37.077997,34.452223 35.31599,36.214996 33.141983,36.214996 31.307664,36.214996 29.767365,34.960052 29.330806,33.262781L29.293941,33.10301 21.246878,33.10301 21.209962,33.262781C20.772813,34.960052 19.23071,36.214996 17.397471,36.214996 15.224743,36.214996 13.461964,34.452223 13.461963,32.279505 13.461964,31.193145 13.902658,30.209022 14.614944,29.496489L14.631997,29.480224 4.8030195,3.5954418 0,2.4010134z"
     fill="#000000"
     id="path3237" />
</svg>
