<?xml version="1.0" encoding="UTF-8" standalone="no"?>
<svg
   xmlns:dc="http://purl.org/dc/elements/1.1/"
   xmlns:cc="http://creativecommons.org/ns#"
   xmlns:rdf="http://www.w3.org/1999/02/22-rdf-syntax-ns#"
   xmlns:svg="http://www.w3.org/2000/svg"
   xmlns="http://www.w3.org/2000/svg"
   xmlns:sodipodi="http://sodipodi.sourceforge.net/DTD/sodipodi-0.dtd"
   xmlns:inkscape="http://www.inkscape.org/namespaces/inkscape"
   overflow="visible"
   id="svg3155"
   version="1.1"
   inkscape:version="0.48.4 r9939"
   width="100%"
   height="100%"
   sodipodi:docname="a.xaml">
  <metadata
     id="metadata3163">
    <rdf:RDF>
      <cc:Work
         rdf:about="">
        <dc:format>image/svg+xml</dc:format>
        <dc:type
           rdf:resource="http://purl.org/dc/dcmitype/StillImage" />
        <dc:title></dc:title>
      </cc:Work>
    </rdf:RDF>
  </metadata>
  <defs
     id="defs3161" />
  <sodipodi:namedview
     pagecolor="#ffffff"
     bordercolor="#666666"
     borderopacity="1"
     objecttolerance="10"
     gridtolerance="10"
     guidetolerance="10"
     inkscape:pageopacity="0"
     inkscape:pageshadow="2"
     inkscape:window-width="640"
     inkscape:window-height="480"
     id="namedview3159"
     showgrid="false"
     inkscape:zoom="2.5371828"
     inkscape:cx="89.378115"
     inkscape:cy="1004.1873"
     inkscape:window-x="0"
     inkscape:window-y="0"
     inkscape:window-maximized="0"
     inkscape:current-layer="svg3155" />
  <path
     d="m 10.362906,28.581379 1.5833,0.1496 0,-23.8996003 25.3333,-4.74999998 0,28.50000028 c 0,2.6234 -2.8355,4.75 -6.3333,4.75 -3.4978,0 -6.3333,-2.1266 -6.3333,-4.75 0,-2.6234 2.8355,-4.75 6.3333,-4.75 0.5467,0 1.0773,0.052 1.5833,0.1497 l 0,-18.2591003 -15.8333,2.9688 0,24.6406003 c 0,2.6234 -2.8355,4.75 -6.3333,4.75 -3.4977996,0 -6.3333996,-2.1266 -6.3333996,-4.75 0,-2.6234 2.8356,-4.75 6.3333996,-4.75 z"
     id="path3157"
     inkscape:connector-curvature="0"
     style="fill:#000000;fill-rule:nonzero" />
</svg>
