<?xml version="1.0" encoding="UTF-8" standalone="no"?>
<svg
   xmlns:dc="http://purl.org/dc/elements/1.1/"
   xmlns:cc="http://creativecommons.org/ns#"
   xmlns:rdf="http://www.w3.org/1999/02/22-rdf-syntax-ns#"
   xmlns:svg="http://www.w3.org/2000/svg"
   xmlns="http://www.w3.org/2000/svg"
   xmlns:sodipodi="http://sodipodi.sourceforge.net/DTD/sodipodi-0.dtd"
   xmlns:inkscape="http://www.inkscape.org/namespaces/inkscape"
   overflow="visible"
   id="svg3398"
   version="1.1"
   inkscape:version="0.48.4 r9939"
   width="100%"
   height="100%"
   sodipodi:docname="img39.svg">
  <metadata
     id="metadata3406">
    <rdf:RDF>
      <cc:Work
         rdf:about="">
        <dc:format>image/svg+xml</dc:format>
        <dc:type
           rdf:resource="http://purl.org/dc/dcmitype/StillImage" />
        <dc:title />
      </cc:Work>
    </rdf:RDF>
  </metadata>
  <defs
     id="defs3404" />
  <sodipodi:namedview
     pagecolor="#ffffff"
     bordercolor="#666666"
     borderopacity="1"
     objecttolerance="10"
     gridtolerance="10"
     guidetolerance="10"
     inkscape:pageopacity="0"
     inkscape:pageshadow="2"
     inkscape:window-width="640"
     inkscape:window-height="480"
     id="namedview3402"
     showgrid="false"
     inkscape:zoom="3.5881183"
     inkscape:cx="57.056338"
     inkscape:cy="1017.7633"
     inkscape:window-x="324"
     inkscape:window-y="138"
     inkscape:window-maximized="0"
     inkscape:current-layer="svg3398" />
  <path
     d="m 12.389212,32.019929 c 2.1862,0 3.9584,1.7722 3.9584,3.9584 0,2.1861 -1.7722,3.9583 -3.9584,3.9583 -2.1861,0 -3.9582996,-1.7722 -3.9582996,-3.9583 0,-2.1862 1.7721996,-3.9584 3.9582996,-3.9584 z m 0.7917,-31.66660089 c 6.9956,0 12.6666,4.52489999 12.6666,11.08330089 0,2.375 -1.5833,6.3333 -4.7499,7.9167 -3.1667,1.5833 -4.75,3.71 -4.75,6.3333 l 0,3.1667 -7.9166996,0 0,-2.375 c 0,-5.3846 4.7499996,-8.7084 6.3332996,-10.2917 3.1667,-3.1667 3.1667,-3.606 3.1667,-4.75 0,-2.6233009 -2.1267,-4.7500009 -4.75,-4.7500009 -2.6234,0 -4.7499996,2.1267 -4.7499996,4.7500009 l 0,2.375 -7.91670043,0 0,-1.5833 c 0,-6.5584009 5.67110043,-11.87500089 12.66670003,-11.87500089 z"
     id="path3400"
     inkscape:connector-curvature="0"
     style="fill:#000000;fill-rule:nonzero" />
</svg>
