<?xml version="1.0" encoding="UTF-8" standalone="no"?>
<svg
   xmlns:dc="http://purl.org/dc/elements/1.1/"
   xmlns:cc="http://creativecommons.org/ns#"
   xmlns:rdf="http://www.w3.org/1999/02/22-rdf-syntax-ns#"
   xmlns:svg="http://www.w3.org/2000/svg"
   xmlns="http://www.w3.org/2000/svg"
   xmlns:sodipodi="http://sodipodi.sourceforge.net/DTD/sodipodi-0.dtd"
   xmlns:inkscape="http://www.inkscape.org/namespaces/inkscape"
   overflow="visible"
   id="svg3368"
   version="1.1"
   inkscape:version="0.48.4 r9939"
   width="100%"
   height="100%"
   sodipodi:docname="img37.svg">
  <metadata
     id="metadata3376">
    <rdf:RDF>
      <cc:Work
         rdf:about="">
        <dc:format>image/svg+xml</dc:format>
        <dc:type
           rdf:resource="http://purl.org/dc/dcmitype/StillImage" />
        <dc:title />
      </cc:Work>
    </rdf:RDF>
  </metadata>
  <defs
     id="defs3374" />
  <sodipodi:namedview
     pagecolor="#ffffff"
     bordercolor="#666666"
     borderopacity="1"
     objecttolerance="10"
     gridtolerance="10"
     guidetolerance="10"
     inkscape:pageopacity="0"
     inkscape:pageshadow="2"
     inkscape:window-width="1680"
     inkscape:window-height="987"
     id="namedview3372"
     showgrid="false"
     inkscape:zoom="5.0743656"
     inkscape:cx="43.429529"
     inkscape:cy="995.52298"
     inkscape:window-x="-8"
     inkscape:window-y="-8"
     inkscape:window-maximized="1"
     inkscape:current-layer="svg3368" />
  <path
     d="m 19.300916,-0.03935119 c -10.4699999,0 -18.94999985,8.48399999 -18.94999985,18.94700019 0,3.676 1.04999995,7.104 2.85999995,10.007 l 7.9399999,16.643 8.15,17.071 8.14,-17.071 7.94,-16.639 c 1.82,-2.906 2.86,-6.334 2.86,-10.011 0,-10.4630002 -8.48,-18.94700019 -18.94,-18.94700019 m 0,29.41700019 c -5.41,0 -9.7899999,-4.383 -9.7899999,-9.792 0,-5.406 4.3799999,-9.7920002 9.7899999,-9.7920002 5.41,0 9.79,4.3860002 9.79,9.7920002 0,5.409 -4.38,9.792 -9.79,9.792"
     id="path3370"
     inkscape:connector-curvature="0"
     style="fill:#000000" />
</svg>
