<?xml version="1.0" encoding="UTF-8" standalone="no"?>
<svg
   xmlns:dc="http://purl.org/dc/elements/1.1/"
   xmlns:cc="http://creativecommons.org/ns#"
   xmlns:rdf="http://www.w3.org/1999/02/22-rdf-syntax-ns#"
   xmlns:svg="http://www.w3.org/2000/svg"
   xmlns="http://www.w3.org/2000/svg"
   xmlns:sodipodi="http://sodipodi.sourceforge.net/DTD/sodipodi-0.dtd"
   xmlns:inkscape="http://www.inkscape.org/namespaces/inkscape"
   overflow="visible"
   id="svg3290"
   version="1.1"
   inkscape:version="0.48.4 r9939"
   width="100%"
   height="100%"
   sodipodi:docname="a.xaml">
  <metadata
     id="metadata3298">
    <rdf:RDF>
      <cc:Work
         rdf:about="">
        <dc:format>image/svg+xml</dc:format>
        <dc:type
           rdf:resource="http://purl.org/dc/dcmitype/StillImage" />
        <dc:title></dc:title>
      </cc:Work>
    </rdf:RDF>
  </metadata>
  <defs
     id="defs3296" />
  <sodipodi:namedview
     pagecolor="#ffffff"
     bordercolor="#666666"
     borderopacity="1"
     objecttolerance="10"
     gridtolerance="10"
     guidetolerance="10"
     inkscape:pageopacity="0"
     inkscape:pageshadow="2"
     inkscape:window-width="1680"
     inkscape:window-height="987"
     id="namedview3294"
     showgrid="false"
     inkscape:zoom="2.5371828"
     inkscape:cx="-15.774733"
     inkscape:cy="958.74418"
     inkscape:window-x="-8"
     inkscape:window-y="-8"
     inkscape:window-maximized="1"
     inkscape:current-layer="svg3290" />
  <path
     d="m 21.217146,19.716426 c -0.331454,-0.0022 -0.590767,0.03736 -0.608767,0.06511 -0.022,0.037 -0.041,0.426001 -0.041,0.866001 0,0.438 -0.223,0.797 -0.495999,0.797 -0.274999,0 -0.849001,0.552 -0.983,0.761 -0.134,0.21 -0.162,0.768 -0.062,1.241 l 0.306,1.462 c 0.095,0.474 0.931,1.495 1.202999,1.718 0.271,0.224 0.351,0.775 0.178,1.226001 l -1.576998,3.638 c -0.217001,0.432 -0.009,0.695 0.462999,0.586 l 0.907,-0.243 c 0.459999,-0.148 0.851,-0.284 0.868999,-0.303 l 0.023,-0.015 c 1.160999,-0.774 2.625999,-2.204001 2.625999,-2.204001 0.346999,-0.335999 0.787999,-1.181999 0.845,-1.404 0.057,-0.223 0.660999,-0.715 0.847999,-0.838999 0.188999,-0.123 0.454001,-0.603001 0.59,-1.067001 l 0.436999,-1.735 c 0.098,-0.474 -0.324,-1.125 -0.598,-1.268 -0.274,-0.142 -0.563,-0.854 -0.588999,-1.084 -0.025,-0.231 -0.76,-1.122 -1.076,-1.419001 -0.316,-0.296999 -0.968,-0.576999 -1.448999,-0.620999 l -1.466,-0.140001 c -0.120251,-0.012 -0.23875,-0.01737 -0.349232,-0.01811 z M 8.384458,4.2142591 c -0.563746,-0.018553 -1.618449,0.3659 -1.9220741,0.5872755 -0.3459998,0.2519998 -0.488,0.6829996 -0.4350005,0.7639999 0.051001,0.082 -0.2279997,0.2159996 -0.3499994,0.2440004 -0.1199999,0.03 -0.3190002,0.4299994 -0.3540001,0.5759993 -0.036,0.1460009 0.3310003,0.1930008 0.4849997,0.1700001 0.1529998,-0.023 -0.165,0.4640007 -0.3140002,0.6700001 -0.150999,0.2049999 -0.1759996,0.8730001 -0.1459999,1.0610008 0.031,0.1890001 0.3509999,0.2919998 0.4689999,0.2749996 0.118,-0.017 -0.3259993,0.7560005 -0.4929991,1.0690002 -0.1660003,0.3129998 0.382,-0.361 0.7279997,-0.6900005 0.3449993,-0.3289995 1.191999,-1.0760002 1.421,-1.2480001 0.229,-0.1709996 1.270998,0.018001 1.622999,0.1600008 0.351,0.1419992 0.838999,0.5979995 1.082,1.0149994 l 0.609999,1.0540008 c 0.244001,0.4169996 0.412,1.1529996 0.373,1.6349996 l -0.082,1.119 c -0.031,0.482 0.471999,1.943 0.683999,2.365 0.213,0.422 0.593,1.103 0.845,1.517001 l 1.141999,1.851999 c 0.255001,0.411 0.833,0.885001 1.285999,1.055001 l 1.041001,0.386 c 0.451999,0.168 0.822,0.145 0.822,-0.053 0,-0.197999 -0.04,-0.330999 -0.056,-0.32 -0.014,0.011 -0.125,-0.123999 -0.246001,-0.299999 -0.120001,-0.176 -0.142,-1.405001 -0.031,-1.694001 0.111,-0.29 1.459,-0.672 1.926998,-0.722 0.467001,-0.051 1.067002,0.538 1.149,0.779 0.08,0.24 0.462,0.401 0.577,0.390001 0.114,-0.012 0.218,-0.602001 0.220001,-0.820001 0.003,-0.216 0.243,-0.709 0.532999,-1.093999 l 0.58,-0.781001 c 0.289,-0.387 1.451,-1.128 1.774,-1.276999 0.321999,-0.147001 1.582999,-0.599001 1.909998,-0.700001 0.327002,-0.103 0.460001,-0.558 0.296002,-1.012 l -0.944,-2.345 c -0.197001,-0.441 -0.667,-0.691 -0.790001,-0.6470004 -0.123999,0.044001 -0.575999,-0.7049999 -0.714999,-0.9879999 -0.138,-0.2849998 -0.937999,-0.6160002 -1.208,-0.651 -0.267999,-0.034 -0.513,0.3170004 -0.544,0.7790003 -0.029,0.4609995 -0.067,0.927 -0.067,0.927 -0.04,0.4829998 -0.353001,0.876 -0.462,0.876 -0.108,0 -0.478,-0.2780004 -0.823,-0.6159997 L 18.68238,8.3655347 c -0.36,-0.323 -0.42,-1.0670004 -0.335001,-1.2370005 0.086,-0.1699991 1.336001,-0.3689994 1.771,-0.3799991 0.433001,-0.011001 0.639,-0.9870005 0.578001,-1.2880001 -0.062,-0.3000002 -0.506,-0.552001 -0.991001,-0.5600005 l -3.948997,0.043 c -0.482001,0.014999 -1.260001,-0.08 -1.725001,-0.2080002 l -1.017,-0.2849999 c -0.469999,-0.1180009 -1.583999,0.071 -1.863998,0.2079993 -0.280001,0.1380005 -0.891,0.1420002 -1.354,0.007 l -1.204,-0.4169998 C 8.535513,4.2277839 8.464992,4.2169079 8.384458,4.2142591 z m 8.938923,-4.11572461 c 9.635996,0 17.447996,7.81099991 17.447996,17.44800051 0,9.637001 -7.812,17.448003 -17.447996,17.448003 C 7.93191,34.814175 -0.11388974,28.604544 -0.12661454,17.546535 -0.12661454,7.9095344 7.684383,0.09853449 17.323381,0.09853449 z"
     id="path3292"
     inkscape:connector-curvature="0"
     style="fill:#000000"
     sodipodi:nodetypes="scsscccccccccccccccccsccsccccccccscccccccccccccsccccccccccccccccccscccccccccccccssccs" />
</svg>
