<?xml version="1.0" encoding="UTF-8" standalone="no"?>
<svg
   xmlns:dc="http://purl.org/dc/elements/1.1/"
   xmlns:cc="http://creativecommons.org/ns#"
   xmlns:rdf="http://www.w3.org/1999/02/22-rdf-syntax-ns#"
   xmlns:svg="http://www.w3.org/2000/svg"
   xmlns="http://www.w3.org/2000/svg"
   xmlns:sodipodi="http://sodipodi.sourceforge.net/DTD/sodipodi-0.dtd"
   xmlns:inkscape="http://www.inkscape.org/namespaces/inkscape"
   overflow="visible"
   id="svg3328"
   version="1.1"
   inkscape:version="0.48.4 r9939"
   width="100%"
   height="100%"
   sodipodi:docname="a.xaml">
  <metadata
     id="metadata3336">
    <rdf:RDF>
      <cc:Work
         rdf:about="">
        <dc:format>image/svg+xml</dc:format>
        <dc:type
           rdf:resource="http://purl.org/dc/dcmitype/StillImage" />
        <dc:title></dc:title>
      </cc:Work>
    </rdf:RDF>
  </metadata>
  <defs
     id="defs3334" />
  <sodipodi:namedview
     pagecolor="#ffffff"
     bordercolor="#666666"
     borderopacity="1"
     objecttolerance="10"
     gridtolerance="10"
     guidetolerance="10"
     inkscape:pageopacity="0"
     inkscape:pageshadow="2"
     inkscape:window-width="640"
     inkscape:window-height="480"
     id="namedview3332"
     showgrid="false"
     inkscape:zoom="3.5881183"
     inkscape:cx="13.786845"
     inkscape:cy="1046.0223"
     inkscape:window-x="0"
     inkscape:window-y="0"
     inkscape:window-maximized="0"
     inkscape:current-layer="svg3328" />
  <path
     d="m 31.03256,9.637448 c 4.618,0 6.5972,2.6388 5.9312,8.1778 0.595,0.3413 0.9959,0.9828 0.9959,1.718 0,0.8996 -0.6002,1.659 -1.422,1.8997 -0.3433,1.2236 -0.8765,2.3069 -1.5468,3.1734 l 0,4.163 c 2.1991,0.4398 3.9584,0.6597 6.5972,1.9792 2.6389,1.3194 3.5186,2.5289 5.2778,4.2882 l 0,6.2673 -31.6666,0 -1e-4,-6.2673 c 1.7593,-1.7593 2.6389,-2.9688 5.2778,-4.2882 2.6389,-1.3195 4.3982,-1.5394 6.5973,-1.9792 l 0,-4.163 c -0.6703,-0.8665 -1.2035,-1.9498 -1.5468,-3.1735 -0.8218,-0.2406 -1.422,-1 -1.422,-1.8996 0,-0.7352 0.4008,-1.3767 0.9959,-1.718 -0.666,-5.539 1.3131,-8.1778 5.9312,-8.1778 z m -12.1389,19.9236 c -2.1876,1.0938 -1.9787,0.9245 -3.2517,2.2431 l -9.9427003,-10e-5 0,-6.2673 c 1.7592,-1.7593 2.6389,-2.9688 5.2777003,-4.2882 2.6389,-1.3195 4.3982,-1.5394 6.5973,-1.9792 l 0,-4.163 c -0.6703,-0.8665 -1.2035,-1.9497 -1.5468,-3.1734 -0.8218,-0.2407 -1.422,-1.0001 -1.422,-1.8997 0,-0.7352 0.4009,-1.3767 0.9959,-1.718 -0.666,-5.5389 1.3131,-8.17779998 5.9312,-8.17779998 4.3315,0 6.3414,3.50909998 6.0246,8.36769998 -2.8579,1.1323 -4.4413,2.7156 -4.435,7.3309 -0.595,0.3413 -0.9958,0.9829 -0.9958,1.718 0,0.8996 0.2043,2.0549 1.0261,2.2955 0.3433,1.2237 0.8765,2.307 1.5468,3.1735 l 0,4.5588 c -2.1991,0.4398 -3.1667,0.6597 -5.8056,1.9792 z m 24.2778,0 c -2.6389,-1.3195 -3.6065,-1.5394 -5.8056,-1.9792 l 0,-4.5588 c 0.6703,-0.8665 1.2035,-1.9498 1.5468,-3.1735 0.8218,-0.2406 1.0261,-1.3959 1.0261,-2.2955 0,-0.7351 -0.4008,-1.3767 -0.9958,-1.718 0.0063,-4.6153 -1.5771,-6.1986 -4.435,-7.3309 -0.3169,-4.8587 1.6931,-8.36769998 6.0246,-8.36769998 4.618,0 6.5972,2.63879998 5.9312,8.17779998 0.595,0.3413 0.9959,0.9828 0.9959,1.718 0,0.8996 -0.6002,1.659 -1.422,1.8996 -0.3433,1.2237 -0.8765,2.307 -1.5468,3.1735 l 0,4.163 c 2.1991,0.4398 3.9583,0.6597 6.5972,1.9792 2.6389,1.3194 3.5186,2.5289 5.2778,4.2882 l 0,6.2673 -9.9427,0 c -1.273,-1.3185 -1.0641,-1.1492 -3.2517,-2.243 z"
     id="path3330"
     inkscape:connector-curvature="0"
     style="fill:#000000;fill-rule:nonzero" />
</svg>
