<?xml version="1.0" encoding="UTF-8" standalone="no"?>
<svg
   xmlns:dc="http://purl.org/dc/elements/1.1/"
   xmlns:cc="http://creativecommons.org/ns#"
   xmlns:rdf="http://www.w3.org/1999/02/22-rdf-syntax-ns#"
   xmlns:svg="http://www.w3.org/2000/svg"
   xmlns="http://www.w3.org/2000/svg"
   xmlns:sodipodi="http://sodipodi.sourceforge.net/DTD/sodipodi-0.dtd"
   xmlns:inkscape="http://www.inkscape.org/namespaces/inkscape"
   overflow="visible"
   id="svg3757"
   version="1.1"
   inkscape:version="0.48.4 r9939"
   width="100%"
   height="100%"
   sodipodi:docname="a.xaml">
  <metadata
     id="metadata3765">
    <rdf:RDF>
      <cc:Work
         rdf:about="">
        <dc:format>image/svg+xml</dc:format>
        <dc:type
           rdf:resource="http://purl.org/dc/dcmitype/StillImage" />
        <dc:title></dc:title>
      </cc:Work>
    </rdf:RDF>
  </metadata>
  <defs
     id="defs3763" />
  <sodipodi:namedview
     pagecolor="#ffffff"
     bordercolor="#666666"
     borderopacity="1"
     objecttolerance="10"
     gridtolerance="10"
     guidetolerance="10"
     inkscape:pageopacity="0"
     inkscape:pageshadow="2"
     inkscape:window-width="640"
     inkscape:window-height="480"
     id="namedview3761"
     showgrid="false"
     inkscape:zoom="2.5371828"
     inkscape:cx="41.620625"
     inkscape:cy="1003.6266"
     inkscape:window-x="385"
     inkscape:window-y="186"
     inkscape:window-maximized="0"
     inkscape:current-layer="svg3757" />
  <path
     d="m 0.68724078,0.68724078 0,10.00000022 10.00000022,0 0,-10.00000022 -10.00000022,0 z m 13.00000022,0 0,10.00000022 10,0 0,-10.00000022 -10,0 z m 13,0 0,10.00000022 10,0 0,-10.00000022 -10,0 z M 0.68724078,13.687241 l 0,10 10.00000022,0 0,-10 -10.00000022,0 z m 13.00000022,0 0,10 10,0 0,-10 -10,0 z m 13,0 0,10 10,0 0,-10 -10,0 z m -24.1250002,2.09375 6.21875,0 0,5.8125 -6.21875,0 0,-5.8125 z m -1.87500002,10.90625 0,10 10.00000022,0 0,-10 -10.00000022,0 z m 13.00000022,0 0,10 10,0 0,-10 -10,0 z m 13,0 0,10 10,0 0,-10 -10,0 z"
     id="path3759"
     inkscape:connector-curvature="0" />
</svg>
