<?xml version="1.0" encoding="UTF-8" standalone="no"?>
<svg
   xmlns:dc="http://purl.org/dc/elements/1.1/"
   xmlns:cc="http://creativecommons.org/ns#"
   xmlns:rdf="http://www.w3.org/1999/02/22-rdf-syntax-ns#"
   xmlns:svg="http://www.w3.org/2000/svg"
   xmlns="http://www.w3.org/2000/svg"
   xmlns:sodipodi="http://sodipodi.sourceforge.net/DTD/sodipodi-0.dtd"
   xmlns:inkscape="http://www.inkscape.org/namespaces/inkscape"
   overflow="visible"
   id="svg3280"
   version="1.1"
   inkscape:version="0.48.4 r9939"
   width="100%"
   height="100%"
   sodipodi:docname="a.xaml">
  <metadata
     id="metadata3288">
    <rdf:RDF>
      <cc:Work
         rdf:about="">
        <dc:format>image/svg+xml</dc:format>
        <dc:type
           rdf:resource="http://purl.org/dc/dcmitype/StillImage" />
        <dc:title></dc:title>
      </cc:Work>
    </rdf:RDF>
  </metadata>
  <defs
     id="defs3286" />
  <sodipodi:namedview
     pagecolor="#ffffff"
     bordercolor="#666666"
     borderopacity="1"
     objecttolerance="10"
     gridtolerance="10"
     guidetolerance="10"
     inkscape:pageopacity="0"
     inkscape:pageshadow="2"
     inkscape:window-width="640"
     inkscape:window-height="480"
     id="namedview3284"
     showgrid="false"
     inkscape:zoom="2.5371828"
     inkscape:cx="32.558126"
     inkscape:cy="1011.5444"
     inkscape:window-x="0"
     inkscape:window-y="0"
     inkscape:window-maximized="0"
     inkscape:current-layer="svg3280" />
  <path
     d="M45.455635,22.860925L36.6511,32.343714 26.065681,38.995514 26.534082,39.296078C28.524519,40.506739 30.859674,41.204496 33.35455,41.204496 40.614979,41.204496 46.518698,35.299498 46.518698,28.040497 46.518698,26.225698 46.149715,24.495461 45.482798,22.920929z M33.35455,14.8751C26.096725,14.875099 20.190605,20.781299 20.190605,28.040497 20.190605,29.628404 20.473222,31.15152 20.990783,32.562206L21.210587,33.11862 29.231801,24.701918 40.989271,17.325162 40.710388,17.126668C38.609085,15.705659,36.077211,14.875099,33.35455,14.8751z M31.666488,0L36.012171,14.131907 36.248508,14.176146C38.304346,14.604612,40.197964,15.480146,41.82275,16.696057L41.897854,16.755109 64,2.8879986 46.191145,22.068754 46.401546,22.533468C46.580917,22.956886,46.740255,23.390775,46.878368,23.833936L46.898163,23.903498 61.135998,26.450237 47.259584,30.716722 47.218908,30.934042C46.890312,32.510801,46.298716,33.992222,45.492233,35.330153L45.400713,35.476465 50.365,41.875 42.962917,38.432741 42.827625,38.558771C41.327021,39.911604,39.536434,40.94869,37.561565,41.564238L37.237972,41.656332 34.85414,55.917002 30.360079,41.880934 30.160671,41.838718C28.449331,41.44264,26.855672,40.735415,25.442794,39.780092L25.149395,39.571302 0,55.374998 20.466995,33.898874 20.307837,33.547443C20.128413,33.124027,19.969024,32.690144,19.830865,32.246984L19.813147,32.184744 5.0960007,29.549187 19.497737,25.120782 19.586636,24.718053C20.004729,22.985836,20.742185,21.376757,21.732897,19.956862L21.921265,19.695447 17.445002,12.916999 24.588198,16.928058 24.699041,16.839487C25.838126,15.957222,27.114829,15.244557,28.490895,14.739715L29.066907,14.544406z"
     fill="#000000"
     id="path3282" />
</svg>
