<?xml version="1.0" encoding="UTF-8" standalone="no"?>
<svg
   xmlns:dc="http://purl.org/dc/elements/1.1/"
   xmlns:cc="http://creativecommons.org/ns#"
   xmlns:rdf="http://www.w3.org/1999/02/22-rdf-syntax-ns#"
   xmlns:svg="http://www.w3.org/2000/svg"
   xmlns="http://www.w3.org/2000/svg"
   xmlns:sodipodi="http://sodipodi.sourceforge.net/DTD/sodipodi-0.dtd"
   xmlns:inkscape="http://www.inkscape.org/namespaces/inkscape"
   overflow="visible"
   id="svg3348"
   version="1.1"
   inkscape:version="0.48.4 r9939"
   width="100%"
   height="100%"
   sodipodi:docname="a.xaml">
  <metadata
     id="metadata3356">
    <rdf:RDF>
      <cc:Work
         rdf:about="">
        <dc:format>image/svg+xml</dc:format>
        <dc:type
           rdf:resource="http://purl.org/dc/dcmitype/StillImage" />
        <dc:title></dc:title>
      </cc:Work>
    </rdf:RDF>
  </metadata>
  <defs
     id="defs3354" />
  <sodipodi:namedview
     pagecolor="#ffffff"
     bordercolor="#666666"
     borderopacity="1"
     objecttolerance="10"
     gridtolerance="10"
     guidetolerance="10"
     inkscape:pageopacity="0"
     inkscape:pageshadow="2"
     inkscape:window-width="640"
     inkscape:window-height="480"
     id="namedview3352"
     showgrid="false"
     inkscape:zoom="1.7940591"
     inkscape:cx="69.824852"
     inkscape:cy="997.33979"
     inkscape:window-x="0"
     inkscape:window-y="0"
     inkscape:window-maximized="0"
     inkscape:current-layer="svg3348" />
  <path
     d="m 5.5901624,0.04856236 8.7083996,0 22.1667,22.16669964 c 1.2366,1.2366 1.2366,3.2416 0,4.4783 l -9.7717,9.7717 c -1.2366,1.2366 -3.2417,1.2366 -4.4783,0 l -22.16669964,-22.1667 0,-8.7082996 c 0,-1.8472 0,-3.6945 0.9236,-4.61810004 0.92360004,-0.9236 2.77080004,-0.9236 4.61800004,-0.9236 z m 2.3751,4.75000004 c -1.7489,0 -3.1667,1.4178 -3.1667,3.1667 0,1.7489 1.4178,3.1665996 3.1667,3.1665996 1.7489,0 3.1665996,-1.4176996 3.1665996,-3.1665996 0,-1.7489 -1.4176996,-3.1667 -3.1665996,-3.1667 z"
     id="path3350"
     inkscape:connector-curvature="0"
     style="fill:#000000;fill-rule:nonzero" />
</svg>
