<?xml version="1.0" encoding="UTF-8" standalone="no"?>
<svg
   xmlns:dc="http://purl.org/dc/elements/1.1/"
   xmlns:cc="http://creativecommons.org/ns#"
   xmlns:rdf="http://www.w3.org/1999/02/22-rdf-syntax-ns#"
   xmlns:svg="http://www.w3.org/2000/svg"
   xmlns="http://www.w3.org/2000/svg"
   xmlns:sodipodi="http://sodipodi.sourceforge.net/DTD/sodipodi-0.dtd"
   xmlns:inkscape="http://www.inkscape.org/namespaces/inkscape"
   overflow="visible"
   id="svg3408"
   version="1.1"
   inkscape:version="0.48.4 r9939"
   width="100%"
   height="100%"
   sodipodi:docname="a.xaml">
  <metadata
     id="metadata3416">
    <rdf:RDF>
      <cc:Work
         rdf:about="">
        <dc:format>image/svg+xml</dc:format>
        <dc:type
           rdf:resource="http://purl.org/dc/dcmitype/StillImage" />
        <dc:title></dc:title>
      </cc:Work>
    </rdf:RDF>
  </metadata>
  <defs
     id="defs3414" />
  <sodipodi:namedview
     pagecolor="#ffffff"
     bordercolor="#666666"
     borderopacity="1"
     objecttolerance="10"
     gridtolerance="10"
     guidetolerance="10"
     inkscape:pageopacity="0"
     inkscape:pageshadow="2"
     inkscape:window-width="640"
     inkscape:window-height="480"
     id="namedview3412"
     showgrid="false"
     inkscape:zoom="5.0743655"
     inkscape:cx="4.4429103"
     inkscape:cy="1045.091"
     inkscape:window-x="0"
     inkscape:window-y="0"
     inkscape:window-maximized="0"
     inkscape:current-layer="svg3408" />
  <path
     d="M36.142006,10.962172L32.702682,19.484018 39.562656,19.484018z M21.377508,3.9540111C20.638903,3.9540111 20.040033,4.5530071 20.040033,5.2910022 20.040033,6.0299968 20.638903,6.628993 21.377508,6.6289934 22.116112,6.628993 22.714981,6.0299968 22.714981,5.2910022 22.714981,4.5530071 22.116112,3.9540111 21.377508,3.9540111z M6.6772561,2.9800028L2.754442,12.676995 10.570013,12.676995z M22.358694,0L23.716986,0.50600021 22.821655,2.9272763 22.930405,2.9933538C23.667496,3.4914021,24.152054,4.3347625,24.152054,5.2910132L24.149601,5.3880271 36.3316,8.6201219C36.687801,8.7148008,36.912186,9.0652198,36.856457,9.4242076L36.854034,9.4358653 40.896374,19.484018 42.039047,19.484018C42.379021,19.484018 42.668999,19.764019 42.668999,20.110018 42.668999,20.435331 42.414135,20.702635 42.10215,20.734777L42.051029,20.737402 42.044209,20.979973C41.883854,23.824837 39.268093,26.088999 36.061001,26.088999 32.853897,26.088999 30.238142,23.824837 30.077787,20.979973L30.070986,20.738018 30.069948,20.738018C29.729973,20.738018 29.449993,20.457018 29.449993,20.110018 29.449993,19.764019 29.729973,19.484018 30.069948,19.484018L31.367119,19.484018 35.273426,9.8214015 23.728537,6.7583441 23.678848,6.8401408C23.529467,7.0612735,23.349003,7.2596955,23.143724,7.429131L23.073011,7.482017 23.073011,29.562002 40.337971,29.562002 40.337971,32.895 2.5100434,32.895 2.5100434,29.562002 19.739973,29.562002 19.739973,7.5201239 19.618309,7.429131C19.002472,6.9208245,18.60998,6.1516399,18.60998,5.2910132L18.611324,5.2378539 7.7520838,2.3584441 11.894357,12.676995 12.589052,12.676995C12.939026,12.676995 13.219004,12.957995 13.219004,13.303996 13.219004,13.629309 12.97293,13.895735 12.6538,13.927768L12.601033,13.9304 12.594211,14.173107C12.433858,17.018515 9.818099,19.284 6.611002,19.284 3.4039052,19.284 0.78814697,17.018515 0.62779361,14.173107L0.62097508,13.93055 0.56520373,13.927768C0.24607517,13.895735 0,13.629309 0,13.303996 0,12.957995 0.27997872,12.676995 0.62995219,12.676995L1.4269502,12.676995 5.9680638,1.4442006 5.9658251,1.4318957C5.9537902,1.3398513 5.9600406,1.243728 5.9875469,1.1482275 6.0688004,0.83705931 6.3415871,0.62754457 6.6449142,0.61463474 6.7149138,0.61165541 6.7865396,0.61914628 6.8578115,0.63827442L19.011492,3.8599045 19.083187,3.7418858C19.581125,3.0047764,20.424408,2.5200102,21.381016,2.5200097L21.417152,2.520924z"
     fill="#000000"
     id="path3410" />
</svg>
