<?xml version="1.0" encoding="UTF-8" standalone="no"?>
<svg
   xmlns:dc="http://purl.org/dc/elements/1.1/"
   xmlns:cc="http://creativecommons.org/ns#"
   xmlns:rdf="http://www.w3.org/1999/02/22-rdf-syntax-ns#"
   xmlns:svg="http://www.w3.org/2000/svg"
   xmlns="http://www.w3.org/2000/svg"
   xmlns:sodipodi="http://sodipodi.sourceforge.net/DTD/sodipodi-0.dtd"
   xmlns:inkscape="http://www.inkscape.org/namespaces/inkscape"
   overflow="visible"
   id="svg3358"
   version="1.1"
   inkscape:version="0.48.4 r9939"
   width="100%"
   height="100%"
   sodipodi:docname="img40.svg">
  <metadata
     id="metadata3366">
    <rdf:RDF>
      <cc:Work
         rdf:about="">
        <dc:format>image/svg+xml</dc:format>
        <dc:type
           rdf:resource="http://purl.org/dc/dcmitype/StillImage" />
        <dc:title />
      </cc:Work>
    </rdf:RDF>
  </metadata>
  <defs
     id="defs3364" />
  <sodipodi:namedview
     pagecolor="#ffffff"
     bordercolor="#666666"
     borderopacity="1"
     objecttolerance="10"
     gridtolerance="10"
     guidetolerance="10"
     inkscape:pageopacity="0"
     inkscape:pageshadow="2"
     inkscape:window-width="640"
     inkscape:window-height="480"
     id="namedview3362"
     showgrid="false"
     inkscape:zoom="2.5371828"
     inkscape:cx="34.0711"
     inkscape:cy="1010.5649"
     inkscape:window-x="0"
     inkscape:window-y="0"
     inkscape:window-maximized="0"
     inkscape:current-layer="svg3358" />
  <path
     d="m 26.485947,36.89083 c 0.1145,0.27 0.1718,0.544 0.1718,0.8222 0,0.3845 -0.1023,0.7435 -0.3068,1.0769 -0.2045,0.3334 -0.4909,0.588 -0.859,0.7639 l -1.7304,0.81 c -0.675,0.3068 -1.351,0.5297 -2.028,0.6688 -0.677,0.1391 -1.3611,0.2086 -2.0525,0.2086 -1.1126,0 -2.212,-0.1851 -3.2981,-0.5553 -1.0861,-0.3702 -2.1251,-0.8999 -3.1171,-1.5892 -0.992,-0.6893 -1.9226,-1.5228 -2.7919,-2.5004 -0.8692997,-0.9777 -1.6474997,-2.0679 -2.3347997,-3.2706 -0.4377,-0.6667 -0.8979,-1.4276 -1.3806,-2.2826 -0.409,-0.7281 -0.8764,-1.6004 -1.402,-2.617 -0.5257,-1.0165 -1.0565,-2.1445 -1.5923,-3.384 -0.5482,-1.2395 -0.9828,-2.3225 -1.304,-3.249 -0.3211,-0.9266 -0.5696,-1.6966 -0.7454997,-2.3102 -0.2045,-0.7159 -0.3456,-1.3295 -0.4234,-1.8409 -0.2822,-0.949 -0.48980002,-1.8929 -0.62280002,-2.8317 -0.1329,-0.9388 -0.1994,-1.8685 -0.1994,-2.7889 0,-1.2026 0.1207,-2.3602999 0.362,-3.4729995 0.24140002,-1.1126 0.61160002,-2.1476 1.11059972,-3.1048 0.4991,-0.9572 1.1321,-1.8132 1.8992,-2.5679 0.767,-0.7548 1.6741,-1.3694 2.7213,-1.8439 l 1.7058,-0.7854 c 0.27,-0.1146 0.54,-0.1718 0.81,-0.1718 0.3804,0 0.7342,0.1053 1.0614997,0.316 0.3272,0.2106 0.5727,0.50209996 0.7363,0.8744 l 3.2828,7.4552 c 0.1145,0.27 0.1718,0.54 0.1718,0.81 0,0.3967996 -0.1023,0.7638995 -0.3068,1.1013995 -0.2045,0.3375 -0.4929,0.5901 -0.8652,0.7582 l -3.3747997,1.552 c -0.4459,0.2046 -0.7875,0.5052 -1.0247,0.902 -0.2373,0.3968 -0.3559,0.8243 -0.3559,1.2825 0,0.3477 0.0654,0.6749 0.1963,0.9817 l 5.5408997,12.6525 c 0.2168,0.4868 0.5164,0.8448 0.8989,1.0738 0.3825,0.2291 0.7987,0.3437 1.2487,0.3437 0.3068,0 0.6197,-0.0696 0.9388,-0.2087 l 3.3748,-1.5524 c 0.2659,-0.1145 0.5339,-0.1718 0.8039,-0.1718 0.3722,0 0.724,0.1053 1.0554,0.316 0.3313,0.2107 0.5808,0.5001 0.7485,0.8683 l 3.2767,7.4614 z"
     id="path3360"
     inkscape:connector-curvature="0"
     style="fill:#000000;fill-rule:nonzero" />
</svg>
