<?xml version="1.0" encoding="UTF-8" standalone="no"?>
<svg
   xmlns:dc="http://purl.org/dc/elements/1.1/"
   xmlns:cc="http://creativecommons.org/ns#"
   xmlns:rdf="http://www.w3.org/1999/02/22-rdf-syntax-ns#"
   xmlns:svg="http://www.w3.org/2000/svg"
   xmlns="http://www.w3.org/2000/svg"
   xmlns:sodipodi="http://sodipodi.sourceforge.net/DTD/sodipodi-0.dtd"
   xmlns:inkscape="http://www.inkscape.org/namespaces/inkscape"
   overflow="visible"
   id="svg3055"
   version="1.1"
   inkscape:version="0.48.4 r9939"
   width="100%"
   height="100%"
   sodipodi:docname="img07.svg">
  <metadata
     id="metadata3063">
    <rdf:RDF>
      <cc:Work
         rdf:about="">
        <dc:format>image/svg+xml</dc:format>
        <dc:type
           rdf:resource="http://purl.org/dc/dcmitype/StillImage" />
        <dc:title />
      </cc:Work>
    </rdf:RDF>
  </metadata>
  <defs
     id="defs3061" />
  <sodipodi:namedview
     pagecolor="#ffffff"
     bordercolor="#666666"
     borderopacity="1"
     objecttolerance="10"
     gridtolerance="10"
     guidetolerance="10"
     inkscape:pageopacity="0"
     inkscape:pageshadow="2"
     inkscape:window-width="640"
     inkscape:window-height="480"
     id="namedview3059"
     showgrid="false"
     inkscape:zoom="1.7940591"
     inkscape:cx="40.964769"
     inkscape:cy="1039.3917"
     inkscape:window-x="0"
     inkscape:window-y="0"
     inkscape:window-maximized="0"
     inkscape:current-layer="svg3055" />
  <path
     d="m 0.16585237,39.171452 0,-34.0048996 5.00070003,0 0,-3.0004 c 1e-4,-1.1048 0.8956,-2.00030003 2.0003,-2.00030003 l 4.0004996,0 c 1.1047,0 2.0002,0.89550003 2.0003,2.00010003 l 0,3.0006 14.002,0 -10e-5,-3.0006 c 0,-1.1048 0.8956,-2.00030003 2.0003,-2.00030003 l 4.0006,0 c 1.1047,0 2.0003,0.89550003 2.0003,2.00030003 l 0,3.0006 5.0007,0 0,34.0048996 -40.00559963,0 z m 3.00040003,-3.0004 34.0046996,0 0,-23.0033 -34.0046996,0 0,23.0033 z m 2.0003,-7.0011 6.0007996,0 0,5.0007 -6.0007996,0 0,-5.0007 z m 8.0010996,0 6.0008,0 0,5.0007 -6.0008,0 0,-5.0007 z m 8.0011,0 6.0009,0 0,5.0007 -6.0009,0 0,-5.0007 z m 8.0011,0 6.0009,0 0,5.0007 -6.0009,0 0,-5.0007 z m -24.0032996,-7.001 6.0007996,0 0,5.0007 -6.0007996,0 0,-5.0007 z m 8.0010996,0 6.0008,0 0,5.0007 -6.0008,0 0,-5.0007 z m 8.0011,0 6.0009,0 0,5.0007 -6.0009,0 0,-5.0007 z m 8.0011,0 6.0009,0 0,5.0007 -6.0009,0 0,-5.0007 z m -16.0022,-7.0008 6.0008,0 0,5.0007 -6.0008,0 0,-5.0007 z m 8.0011,0 6.0009,0 0,5.0007 -6.0009,0 0,-5.0007 z m 8.0011,0 6.0009,0 0,5.0007 -6.0009,0 0,-5.0007 z m 1.5002,-13.0019996 c -0.8285,0 -1.5002,0.6717 -1.5002,1.5003 l 0,3.0004 c 0,0.8285 0.6717,1.5002 1.5002,1.5002 l 1.0002,0 c 0.8285,0 1.5002,-0.6717 1.5002,-1.5002 l 0,-3.0004 c 0,-0.8286 -0.6717,-1.5003 -1.5002,-1.5003 l -1.0002,0 z m -22.0029996,0 c -0.8286,0 -1.5002,0.6717 -1.5002,1.5002 l 0,3.0004 c 0,0.8286 0.6716,1.5003 1.5002,1.5003 l 1.0001,0 c 0.8285996,0 1.5001996,-0.6717 1.5001996,-1.5003 l 0,-3.0004 c 0,-0.8285 -0.6716,-1.5002 -1.5001996,-1.5002 l -1.0001,0 z"
     id="path3057"
     inkscape:connector-curvature="0"
     style="fill:#000000;fill-rule:nonzero" />
</svg>
