<?xml version="1.0" encoding="UTF-8" standalone="no"?>
<svg
   xmlns:dc="http://purl.org/dc/elements/1.1/"
   xmlns:cc="http://creativecommons.org/ns#"
   xmlns:rdf="http://www.w3.org/1999/02/22-rdf-syntax-ns#"
   xmlns:svg="http://www.w3.org/2000/svg"
   xmlns="http://www.w3.org/2000/svg"
   xmlns:sodipodi="http://sodipodi.sourceforge.net/DTD/sodipodi-0.dtd"
   xmlns:inkscape="http://www.inkscape.org/namespaces/inkscape"
   overflow="visible"
   id="svg3045"
   version="1.1"
   inkscape:version="0.48.4 r9939"
   width="100%"
   height="100%"
   sodipodi:docname="img91.svg">
  <metadata
     id="metadata3053">
    <rdf:RDF>
      <cc:Work
         rdf:about="">
        <dc:format>image/svg+xml</dc:format>
        <dc:type
           rdf:resource="http://purl.org/dc/dcmitype/StillImage" />
        <dc:title></dc:title>
      </cc:Work>
    </rdf:RDF>
  </metadata>
  <defs
     id="defs3051" />
  <sodipodi:namedview
     pagecolor="#ffffff"
     bordercolor="#666666"
     borderopacity="1"
     objecttolerance="10"
     gridtolerance="10"
     guidetolerance="10"
     inkscape:pageopacity="0"
     inkscape:pageshadow="2"
     inkscape:window-width="1680"
     inkscape:window-height="987"
     id="namedview3049"
     showgrid="false"
     inkscape:zoom="10.148731"
     inkscape:cx="54.459743"
     inkscape:cy="1035.1817"
     inkscape:window-x="-8"
     inkscape:window-y="-8"
     inkscape:window-maximized="1"
     inkscape:current-layer="svg3045" />
  <path
     d="m 1.8520584,3.644679 2.707,2.3878 4.8266,-5.98860033 2.1578996,2.38780033 -6.0267996,7.1122 -1.6727,0 -3.83070009,-3.7634 0,-2.1358 z"
     id="path3047"
     inkscape:connector-curvature="0"
     style="fill:#000000;fill-rule:nonzero"
     sodipodi:nodetypes="ccccccccc" />
  <path
     d="m 22.6724,3.031175 0.4791,10e-5 c 1.3117,2.74e-4 2.375,0.6675 2.375,1.9792 0,1.3117 -1.4505,1.897174 -2.7622,1.8969 l -0.479,-10e-5 c -1.3117,-2.74e-4 -1.9879,-0.5852 -1.9879,-1.8969 0,-1.3117 1.0634,-1.979474 2.375,-1.9792 z"
     id="path3047-8-1"
     inkscape:connector-curvature="0"
     style="fill:#000000;fill-rule:nonzero"
     sodipodi:nodetypes="sssssss" />
  <path
     d="m 15.600449,3.031175 0.4791,10e-5 c 1.3117,2.74e-4 2.375,0.6675 2.375,1.9792 0,1.3117 -1.4505,1.897174 -2.7622,1.8969 l -0.479,-10e-5 c -1.3117,-2.74e-4 -1.9879,-0.5852 -1.9879,-1.8969 0,-1.3117 1.0634,-1.979474 2.375,-1.9792 z"
     id="path3047-8-1-1"
     inkscape:connector-curvature="0"
     style="fill:#000000;fill-rule:nonzero"
     sodipodi:nodetypes="sssssss" />
  <path
     d="m 29.744352,3.031175 0.4791,10e-5 c 1.3117,2.74e-4 2.375,0.6675 2.375,1.9792 0,1.3117 -1.4505,1.897174 -2.7622,1.8969 l -0.479,-10e-5 c -1.3117,-2.74e-4 -1.9879,-0.5852 -1.9879,-1.8969 0,-1.3117 1.0634,-1.979474 2.375,-1.9792 z"
     id="path3047-8-1-4"
     inkscape:connector-curvature="0"
     style="fill:#000000;fill-rule:nonzero"
     sodipodi:nodetypes="sssssss" />
  <path
     d="m 36.816301,3.031175 0.4791,10e-5 c 1.3117,2.74e-4 2.375,0.6675 2.375,1.9792 0,1.3117 -1.4505,1.897174 -2.7622,1.8969 l -0.479,-10e-5 c -1.3117,-2.74e-4 -1.9879,-0.5852 -1.9879,-1.8969 0,-1.3117 1.0634,-1.979474 2.375,-1.9792 z"
     id="path3047-8-1-2"
     inkscape:connector-curvature="0"
     style="fill:#000000;fill-rule:nonzero"
     sodipodi:nodetypes="sssssss" />
  <path
     d="m 43.888255,3.031175 0.4791,10e-5 c 1.3117,2.74e-4 2.375,0.6675 2.375,1.9792 0,1.3117 -1.4505,1.897174 -2.7622,1.8969 l -0.479,-10e-5 c -1.3117,-2.74e-4 -1.9879,-0.5852 -1.9879,-1.8969 0,-1.3117 1.0634,-1.979474 2.375,-1.9792 z"
     id="path3047-8-1-3"
     inkscape:connector-curvature="0"
     style="fill:#000000;fill-rule:nonzero"
     sodipodi:nodetypes="sssssss" />
</svg>
