<?xml version="1.0" encoding="UTF-8" standalone="no"?>
<svg
   xmlns:dc="http://purl.org/dc/elements/1.1/"
   xmlns:cc="http://creativecommons.org/ns#"
   xmlns:rdf="http://www.w3.org/1999/02/22-rdf-syntax-ns#"
   xmlns:svg="http://www.w3.org/2000/svg"
   xmlns="http://www.w3.org/2000/svg"
   xmlns:sodipodi="http://sodipodi.sourceforge.net/DTD/sodipodi-0.dtd"
   xmlns:inkscape="http://www.inkscape.org/namespaces/inkscape"
   overflow="visible"
   id="svg3055"
   version="1.1"
   inkscape:version="0.48.4 r9939"
   width="100%"
   height="100%"
   sodipodi:docname="img96.svg">
  <metadata
     id="metadata3063">
    <rdf:RDF>
      <cc:Work
         rdf:about="">
        <dc:format>image/svg+xml</dc:format>
        <dc:type
           rdf:resource="http://purl.org/dc/dcmitype/StillImage" />
        <dc:title></dc:title>
      </cc:Work>
    </rdf:RDF>
  </metadata>
  <defs
     id="defs3061" />
  <sodipodi:namedview
     pagecolor="#ffffff"
     bordercolor="#666666"
     borderopacity="1"
     objecttolerance="10"
     gridtolerance="10"
     guidetolerance="10"
     inkscape:pageopacity="0"
     inkscape:pageshadow="2"
     inkscape:window-width="1680"
     inkscape:window-height="987"
     id="namedview3059"
     showgrid="false"
     inkscape:zoom="7.1762364"
     inkscape:cx="33.386979"
     inkscape:cy="1031.6243"
     inkscape:window-x="-8"
     inkscape:window-y="-8"
     inkscape:window-maximized="1"
     inkscape:current-layer="svg3055" />
  <path
     d="m 0.16585237,39.171452 0,-34.0048996 5.00070003,0 0,-3.0004 c 1e-4,-1.1048 0.8956,-2.00030003 2.0003,-2.00030003 l 4.0004996,0 c 1.1047,0 2.0002,0.89550003 2.0003,2.00010003 l 0,3.0006 14.002,0 -10e-5,-3.0006 c 0,-1.1048 0.8956,-2.00030003 2.0003,-2.00030003 l 4.0006,0 c 1.1047,0 2.0003,0.89550003 2.0003,2.00030003 l 0,3.0006 5.0007,0 0,34.0048996 z m 3.00040003,-3.0004 34.0046996,0 0,-23.0033 -34.0046996,0 z M 30.670052,2.1661524 c -0.8285,0 -1.5002,0.6717 -1.5002,1.5003 l 0,3.0004 c 0,0.8285 0.6717,1.5002 1.5002,1.5002 l 1.0002,0 c 0.8285,0 1.5002,-0.6717 1.5002,-1.5002 l 0,-3.0004 c 0,-0.8286 -0.6717,-1.5003 -1.5002,-1.5003 z m -22.0029996,0 c -0.8286,0 -1.5002,0.6717 -1.5002,1.5002 l 0,3.0004 c 0,0.8286 0.6716,1.5003 1.5002,1.5003 l 1.0001,0 c 0.8285996,0 1.5001996,-0.6717 1.5001996,-1.5003 l 0,-3.0004 c 0,-0.8285 -0.6716,-1.5002 -1.5001996,-1.5002 z"
     id="path3057"
     inkscape:connector-curvature="0"
     style="fill:#000000;fill-rule:nonzero"
     sodipodi:nodetypes="ccccssccccssscccccccccssssssssssssssssss" />
  <g
     style="font-size:24px;font-style:normal;font-variant:normal;font-weight:normal;font-stretch:normal;line-height:125%;letter-spacing:0px;word-spacing:0px;fill:#000000;fill-opacity:1;stroke:none;font-family:Segoe UI;-inkscape-font-specification:Segoe UI"
     id="text3743">
    <path
       d="m 18.278709,27.664833 c -0.07032,-0.20312 -0.132816,-0.466792 -0.1875,-0.791016 -0.05469,-0.324213 -0.08203,-0.646478 -0.08203,-0.966796 -3e-6,-0.499994 0.09961,-0.951165 0.298828,-1.353516 0.199215,-0.402336 0.447262,-0.779288 0.744141,-1.130859 0.29687,-0.351554 0.621088,-0.689444 0.972656,-1.013672 0.351557,-0.324209 0.675775,-0.652333 0.972656,-0.984375 0.296868,-0.33202 0.544915,-0.679676 0.744141,-1.042969 0.199211,-0.363269 0.29882,-0.763659 0.298828,-1.201172 -8e-6,-0.374986 -0.07227,-0.707017 -0.216797,-0.996094 -0.144538,-0.289048 -0.341804,-0.531235 -0.591797,-0.726562 -0.250006,-0.195298 -0.539068,-0.341782 -0.867187,-0.439453 -0.328131,-0.09764 -0.675787,-0.146469 -1.042969,-0.146485 -1.320316,1.6e-5 -2.464846,0.519547 -3.433594,1.558594 l 0,-2.0625 c 1.19531,-0.749983 2.43359,-1.124983 3.714844,-1.125 0.593744,1.7e-5 1.152338,0.07814 1.675781,0.234375 0.52343,0.156267 0.982414,0.388688 1.376954,0.697266 0.394522,0.308609 0.705069,0.693375 0.93164,1.154297 0.226553,0.460952 0.339834,0.996107 0.339844,1.605468 -1e-5,0.578138 -0.101572,1.093763 -0.304688,1.546875 -0.203134,0.453137 -0.458993,0.869152 -0.767578,1.248047 -0.308602,0.378917 -0.642586,0.732432 -1.001953,1.060547 -0.359382,0.328134 -0.693366,0.654306 -1.001953,0.978516 -0.3086,0.324227 -0.564459,0.662117 -0.767578,1.013672 -0.203131,0.351569 -0.304693,0.738288 -0.304688,1.160156 -5e-6,0.359381 0.04296,0.685552 0.128907,0.978515 0.08593,0.292974 0.171869,0.541021 0.257812,0.744141 z m 1.054688,4.875 c -0.343755,0 -0.648442,-0.125 -0.914063,-0.375 -0.257816,-0.25 -0.386722,-0.554687 -0.386718,-0.914062 -4e-6,-0.367186 0.128902,-0.671874 0.386718,-0.914063 0.257809,-0.25781 0.562496,-0.386716 0.914063,-0.386719 0.351557,3e-6 0.656244,0.128909 0.914062,0.386719 0.257807,0.242189 0.386713,0.546877 0.386719,0.914063 -6e-6,0.359375 -0.128912,0.664062 -0.386719,0.914062 -0.26563,0.25 -0.570317,0.375 -0.914062,0.375 z"
       style=""
       id="path3748" />
  </g>
</svg>
